STARTFONT 2.1
COMMENT
COMMENT Converted from OpenType font "ibmplex_regular.ttf" by "otf2bdf 3.0".
COMMENT
FONT -FreeType-IBM Plex Sans Thin-Medium-R-Normal--66-480-100-100-P-293-ISO10646-1
SIZE 48 100 100
FONTBOUNDINGBOX 88 87 -10 -14
STARTPROPERTIES 19
FOUNDRY "FreeType"
FAMILY_NAME "IBM Plex Sans Thin"
WEIGHT_NAME "Medium"
SLANT "R"
SETWIDTH_NAME "Normal"
ADD_STYLE_NAME ""
PIXEL_SIZE 66
POINT_SIZE 480
RESOLUTION_X 100
RESOLUTION_Y 100
SPACING "P"
AVERAGE_WIDTH 293
CHARSET_REGISTRY "ISO10646"
CHARSET_ENCODING "1"
FONT_ASCENT 68
FONT_DESCENT 18
COPYRIGHT "Copyright 2018 IBM Corp. All rights reserved."
_OTF_FONTFILE "ibmplex_regular.ttf"
_OTF_PSNAME "IBMPlexSans-Thin"
ENDPROPERTIES
CHARS 826
STARTCHAR 0000
ENCODING 0
SWIDTH 0 0
DWIDTH 0 0
BBX 0 0 0 0
BITMAP
ENDCHAR
STARTCHAR 000D
ENCODING 13
SWIDTH 225 0
DWIDTH 15 0
BBX 0 0 0 0
BITMAP
ENDCHAR
STARTCHAR 0020
ENCODING 32
SWIDTH 225 0
DWIDTH 15 0
BBX 0 0 0 0
BITMAP
ENDCHAR
STARTCHAR 0021
ENCODING 33
SWIDTH 240 0
DWIDTH 16 0
BBX 3 47 7 0
BITMAP
40
40
40
40
40
40
40
40
40
40
40
40
40
40
40
40
40
40
40
40
40
40
40
40
40
40
40
40
40
40
40
40
40
40
40
00
00
00
00
00
00
00
00
40
E0
E0
E0
ENDCHAR
STARTCHAR 0022
ENCODING 34
SWIDTH 360 0
DWIDTH 24 0
BBX 11 16 7 33
BITMAP
8020
8020
8020
8020
8020
8020
8020
8020
8020
8020
8020
8020
8020
8020
8020
8020
ENDCHAR
STARTCHAR 0023
ENCODING 35
SWIDTH 705 0
DWIDTH 47 0
BBX 38 47 5 0
BITMAP
0001800400
0001000400
0001000400
0001000C00
0003000C00
0003000800
0003000800
0002000800
0002000800
0002001800
0006001800
0006001000
0004001000
0004001000
0004001000
3FFFFFFFFC
000C003000
000C002000
0008002000
0008002000
0008006000
0008006000
0018006000
0018004000
0010004000
0010004000
001000C000
001000C000
003000C000
0030008000
0020008000
FFFFFFFFE0
0020018000
0060018000
0060018000
0060010000
0040010000
0040010000
0040030000
00C0030000
00C0020000
0080020000
0080020000
0080020000
0080060000
0180060000
0180040000
ENDCHAR
STARTCHAR 0024
ENCODING 36
SWIDTH 540 0
DWIDTH 36 0
BBX 30 57 3 -5
BITMAP
00010000
00010000
00010000
00010000
00010000
00038000
00FFFC00
03810F00
0E0101C0
18010060
30010030
30010018
60010010
60010000
60010000
40010000
40010000
40010000
40010000
60010000
60010000
20010000
30010000
18010000
0C010000
07010000
01E10000
003F0000
0003F800
00010F00
00010180
000100E0
00010020
00010030
00010018
00010018
00010008
00010008
0001000C
0001000C
0001000C
0001000C
00010008
00010008
C0010018
60010010
30010030
18010060
0C0100C0
07810380
01F93E00
001FF000
00010000
00010000
00010000
00010000
00010000
ENDCHAR
STARTCHAR 0025
ENCODING 37
SWIDTH 870 0
DWIDTH 58 0
BBX 49 48 5 -1
BITMAP
03F80000008000
0C060000018000
18030000030000
30018000020000
20008000040000
6000C0000C0000
40004000080000
C0004000100000
C0006000300000
C0006000600000
80006000400000
80006000C00000
80006001800000
80006001000000
80006003000000
C0006006000000
C0006004000000
40004008000000
40004018000000
6000C010000000
20008020000000
30018060000000
180300C007C000
0C0600801C7000
03F80180601800
00000300C00400
00000200800600
00000601800200
00000C01000300
00000801000100
00001003000100
00003002000180
00002002000180
00004002000180
0000C002000180
00018002000180
00010002000180
00030002000180
00060002000180
00040003000100
000C0001000100
00180001000300
00100001800200
00200000800600
00600000C00400
00C00000601800
008000003C7000
0000000007C000
ENDCHAR
STARTCHAR 0026
ENCODING 38
SWIDTH 675 0
DWIDTH 45 0
BBX 37 48 5 -1
BITMAP
001FF00000
00701C0000
01C0070000
0300010000
0200018000
060000C000
040000C000
0400004000
0C00004000
0C00004000
0C00004000
0C0000C000
040000C000
0400008000
0600018000
0200030000
0300060000
01800C0000
00C0380000
00C0600000
0061800000
0036000000
0038000000
006C000000
01860003F8
0603000200
0C01800200
1800C00200
3000600200
6000300200
4000180200
C0000C0600
C000060400
8000030400
8000018400
800000CC00
8000006800
8000003800
8000001800
C000001C00
C000002600
6000006300
600000C180
30000180C0
1C00070060
07001C0030
03FFF00018
007F000000
ENDCHAR
STARTCHAR 0027
ENCODING 39
SWIDTH 210 0
DWIDTH 14 0
BBX 1 16 7 33
BITMAP
80
80
80
80
80
80
80
80
80
80
80
80
80
80
80
80
ENDCHAR
STARTCHAR 0028
ENCODING 40
SWIDTH 330 0
DWIDTH 22 0
BBX 14 60 7 -9
BITMAP
000C
0018
0030
0060
00C0
0080
0180
0300
0200
0600
0400
0C00
0800
1800
1000
1000
3000
2000
2000
6000
4000
4000
4000
C000
C000
C000
C000
8000
8000
8000
8000
8000
8000
8000
C000
C000
C000
4000
4000
4000
4000
6000
2000
2000
3000
1000
1000
0800
0800
0C00
0400
0600
0300
0100
0180
00C0
0040
0020
0010
0018
ENDCHAR
STARTCHAR 0029
ENCODING 41
SWIDTH 330 0
DWIDTH 22 0
BBX 14 60 1 -9
BITMAP
C000
6000
3000
1800
0C00
0400
0200
0300
0100
0180
0080
0040
0040
0060
0020
0030
0010
0010
0018
0018
0008
0008
0008
000C
000C
0004
0004
0004
0004
0004
0004
0004
0004
0004
0004
000C
000C
000C
0008
0008
0008
0018
0010
0010
0030
0020
0020
0060
0040
00C0
0080
0180
0100
0200
0600
0400
0800
1000
3000
6000
ENDCHAR
STARTCHAR 002A
ENCODING 42
SWIDTH 360 0
DWIDTH 24 0
BBX 22 21 1 29
BITMAP
003000
003000
003000
003000
003000
003000
003000
803004
F0103C
1E11E0
03DF00
003000
003800
004800
00C400
018600
010300
020100
060180
0C00C0
080040
ENDCHAR
STARTCHAR 002B
ENCODING 43
SWIDTH 600 0
DWIDTH 40 0
BBX 32 33 4 4
BITMAP
00018000
00018000
00018000
00018000
00018000
00018000
00018000
00018000
00018000
00018000
00018000
00018000
00018000
00018000
00018000
00018000
FFFFFFFF
00018000
00018000
00018000
00018000
00018000
00018000
00018000
00018000
00018000
00018000
00018000
00018000
00018000
00018000
00018000
00018000
ENDCHAR
STARTCHAR 002C
ENCODING 44
SWIDTH 240 0
DWIDTH 16 0
BBX 6 14 4 -10
BITMAP
08
3C
3C
3C
0C
08
08
08
10
10
20
60
40
80
ENDCHAR
STARTCHAR 002D
ENCODING 45
SWIDTH 390 0
DWIDTH 26 0
BBX 15 1 6 20
BITMAP
FFFE
ENDCHAR
STARTCHAR 002E
ENCODING 46
SWIDTH 240 0
DWIDTH 16 0
BBX 4 3 6 1
BITMAP
F0
F0
F0
ENDCHAR
STARTCHAR 002F
ENCODING 47
SWIDTH 300 0
DWIDTH 20 0
BBX 17 59 1 -10
BITMAP
000180
000180
000100
000100
000300
000300
000200
000200
000600
000400
000400
000400
000C00
000800
000800
001800
001800
001000
001000
003000
003000
002000
002000
006000
004000
004000
004000
00C000
008000
008000
018000
018000
010000
010000
030000
030000
020000
020000
060000
040000
040000
040000
0C0000
080000
080000
180000
180000
100000
100000
300000
300000
200000
200000
600000
400000
400000
400000
C00000
800000
ENDCHAR
STARTCHAR 0030
ENCODING 48
SWIDTH 600 0
DWIDTH 40 0
BBX 30 48 5 -1
BITMAP
003FF000
00E01C00
03800700
06000180
0C0000C0
08000040
18000060
30000020
30000030
20000010
60000018
40000008
40000008
40000008
C000000C
C000000C
C000000C
80000004
80000004
80000004
80000004
80000004
80000004
80000004
80000004
80000004
80000004
80000004
80000004
80000004
C000000C
C000000C
C000000C
C0000008
40000008
40000008
60000018
60000010
20000010
30000030
10000020
18000060
0C0000C0
06000180
03000300
01C00E00
007FF800
000FC000
ENDCHAR
STARTCHAR 0031
ENCODING 49
SWIDTH 600 0
DWIDTH 40 0
BBX 31 47 5 0
BITMAP
00018000
00078000
000C8000
00188000
00308000
00608000
00C08000
03008000
06008000
0C008000
18008000
30008000
E0008000
00008000
00008000
00008000
00008000
00008000
00008000
00008000
00008000
00008000
00008000
00008000
00008000
00008000
00008000
00008000
00008000
00008000
00008000
00008000
00008000
00008000
00008000
00008000
00008000
00008000
00008000
00008000
00008000
00008000
00008000
00008000
00008000
00008000
7FFFFFFE
ENDCHAR
STARTCHAR 0032
ENCODING 50
SWIDTH 600 0
DWIDTH 40 0
BBX 29 47 6 0
BITMAP
00FFE000
03C03800
06000E00
18000700
10000300
30000180
60000080
400000C0
C00000C0
80000040
00000040
00000040
00000040
00000040
00000040
00000040
000000C0
000000C0
00000080
00000180
00000180
00000300
00000200
00000600
00000C00
00001800
00001000
00003000
00006000
0000C000
00018000
00030000
00060000
000C0000
00180000
00300000
00600000
00C00000
01800000
03000000
06000000
0C000000
18000000
30000000
60000000
C0000000
FFFFFFF8
ENDCHAR
STARTCHAR 0033
ENCODING 51
SWIDTH 600 0
DWIDTH 40 0
BBX 28 48 5 -1
BITMAP
007FE000
03C03C00
06000E00
0C000300
18000180
30000080
200000C0
20000040
00000040
00000060
00000060
00000060
00000060
00000060
00000040
000000C0
000000C0
00000180
00000100
00000300
00000C00
00007000
01FF8000
00007800
00000E00
00000300
00000180
000000C0
00000040
00000060
00000020
00000020
00000030
00000030
00000030
00000030
00000030
00000020
00000020
00000060
80000060
C00000C0
60000080
30000180
18000700
0F001C00
03FFF800
001F8000
ENDCHAR
STARTCHAR 0034
ENCODING 52
SWIDTH 600 0
DWIDTH 40 0
BBX 34 47 3 0
BITMAP
000000C000
000001C000
000001C000
000003C000
000006C000
000004C000
000008C000
000018C000
000010C000
000020C000
000060C000
0000C0C000
000080C000
000180C000
000300C000
000200C000
000400C000
000C00C000
000800C000
001000C000
003000C000
006000C000
004000C000
00C000C000
018000C000
010000C000
030000C000
060000C000
040000C000
080000C000
180000C000
100000C000
200000C000
600000C000
C00000C000
FFFFFFFFC0
000000C000
000000C000
000000C000
000000C000
000000C000
000000C000
000000C000
000000C000
000000C000
000000C000
000000C000
ENDCHAR
STARTCHAR 0035
ENCODING 53
SWIDTH 600 0
DWIDTH 40 0
BBX 28 48 6 -1
BITMAP
1FFFFFC0
1FFFFFC0
10000000
10000000
10000000
10000000
10000000
10000000
10000000
10000000
10000000
10000000
30000000
30000000
30000000
30000000
20000000
20000000
20000000
20060000
20FFF000
23801C00
26000600
28000300
30000180
000000C0
00000040
00000060
00000020
00000020
00000020
00000030
00000030
00000030
00000030
00000030
00000020
00000020
00000060
00000060
80000040
C00000C0
60000180
30000300
18000600
0F001C00
03FFF000
001F8000
ENDCHAR
STARTCHAR 0036
ENCODING 54
SWIDTH 600 0
DWIDTH 40 0
BBX 28 48 6 -1
BITMAP
00003000
0000E000
00018000
00030000
000C0000
00180000
00300000
00600000
00C00000
01800000
01000000
03000000
06000000
04000000
0C000000
08000000
18000000
10000000
30000000
201F8000
60FFF800
63801C00
4E000700
48000180
D00000C0
E00000C0
E0000060
C0000060
C0000020
C0000030
C0000030
80000030
80000030
80000030
80000030
80000030
C0000030
C0000030
40000020
40000060
60000060
300000C0
10000080
18000180
0E000700
03801C00
01FFF000
003F8000
ENDCHAR
STARTCHAR 0037
ENCODING 55
SWIDTH 600 0
DWIDTH 40 0
BBX 29 47 5 0
BITMAP
FFFFFFF8
FFFFFFF8
C0000018
C0000010
C0000030
C0000030
C0000060
C0000060
C0000040
C00000C0
C0000080
C0000180
C0000100
00000300
00000300
00000600
00000600
00000400
00000C00
00000800
00001800
00001000
00003000
00003000
00006000
00006000
00004000
0000C000
00008000
00018000
00010000
00030000
00030000
00060000
00060000
00040000
000C0000
00080000
00180000
00100000
00300000
00300000
00600000
00600000
00400000
00C00000
00800000
ENDCHAR
STARTCHAR 0038
ENCODING 56
SWIDTH 600 0
DWIDTH 40 0
BBX 30 48 5 -1
BITMAP
007FF800
01E01E00
07000380
0C0000C0
18000060
18000060
30000030
30000030
20000010
60000010
60000018
60000018
60000018
20000010
20000010
30000030
30000030
18000060
08000040
0E0001C0
07000300
01E01E00
003FF000
01F03E00
07000380
0C0000C0
18000060
30000030
60000018
40000008
C000000C
C000000C
C000000C
80000004
80000004
80000004
80000004
C000000C
C000000C
40000008
60000018
60000010
30000030
18000060
0E0001C0
03800700
00FFFC00
001FE000
ENDCHAR
STARTCHAR 0039
ENCODING 57
SWIDTH 600 0
DWIDTH 40 0
BBX 28 47 6 0
BITMAP
007FF000
01C03C00
07000600
0C000300
18000180
300000C0
20000060
60000020
40000020
40000030
C0000010
C0000010
C0000010
C0000010
C0000010
C0000010
C0000010
C0000010
40000030
60000030
60000030
20000050
300000F0
180001B0
0C000320
07000620
01E03C60
007FE040
00000040
000000C0
00000080
00000180
00000100
00000300
00000200
00000600
00000C00
00001800
00003000
00002000
00004000
00018000
00030000
00060000
000C0000
00380000
00600000
ENDCHAR
STARTCHAR 003A
ENCODING 58
SWIDTH 255 0
DWIDTH 17 0
BBX 3 34 7 0
BITMAP
E0
E0
E0
60
00
00
00
00
00
00
00
00
00
00
00
00
00
00
00
00
00
00
00
00
00
00
00
00
00
00
00
E0
E0
E0
ENDCHAR
STARTCHAR 003B
ENCODING 59
SWIDTH 255 0
DWIDTH 17 0
BBX 6 44 4 -10
BITMAP
1C
1C
1C
0C
00
00
00
00
00
00
00
00
00
00
00
00
00
00
00
00
00
00
00
00
00
00
00
00
00
00
00
1C
1C
1C
04
04
04
0C
08
18
10
20
60
C0
ENDCHAR
STARTCHAR 003C
ENCODING 60
SWIDTH 600 0
DWIDTH 40 0
BBX 28 35 6 3
BITMAP
00000010
00000030
000000C0
00000380
00000600
00001800
00007000
0000C000
00030000
000E0000
00180000
00600000
01C00000
03000000
0C000000
38000000
60000000
80000000
E0000000
30000000
1C000000
07000000
01800000
00E00000
00380000
000C0000
00070000
0001C000
00006000
00003800
00000E00
00000300
000001C0
00000070
00000010
ENDCHAR
STARTCHAR 003D
ENCODING 61
SWIDTH 600 0
DWIDTH 40 0
BBX 32 13 4 14
BITMAP
FFFFFFFF
00000000
00000000
00000000
00000000
00000000
00000000
00000000
00000000
00000000
00000000
00000000
FFFFFFFF
ENDCHAR
STARTCHAR 003E
ENCODING 62
SWIDTH 600 0
DWIDTH 40 0
BBX 28 35 6 3
BITMAP
80000000
C0000000
70000000
1C000000
06000000
01800000
00E00000
00300000
000C0000
00070000
00018000
00006000
00003800
00000C00
00000300
000001C0
00000060
00000010
00000030
000000C0
00000380
00000E00
00001800
00007000
0001C000
00030000
000E0000
00380000
00600000
01C00000
07000000
0C000000
38000000
E0000000
80000000
ENDCHAR
STARTCHAR 003F
ENCODING 63
SWIDTH 450 0
DWIDTH 30 0
BBX 25 47 3 0
BITMAP
01FFC000
07007000
0C001800
18000C00
30000600
60000300
40000100
C0000100
80000180
80000180
00000080
00000080
00000080
00000180
00000180
00000180
00000100
00000300
00000200
00000600
00000C00
00001800
00007000
0007C000
003E0000
00300000
00300000
00300000
00300000
00300000
00300000
00300000
00300000
00300000
00300000
00000000
00000000
00000000
00000000
00000000
00000000
00000000
00000000
00200000
00780000
00780000
00780000
ENDCHAR
STARTCHAR 0040
ENCODING 64
SWIDTH 870 0
DWIDTH 58 0
BBX 49 55 5 -8
BITMAP
00003FFE000000
0001E003C00000
00070000380000
001C00000C0000
00300000030000
00C00000018000
0180000000C000
03000000006000
06000000003000
04000000001800
0C000000000800
18000000000C00
10000000000400
300007E0000600
20003C3C600200
20006006600300
6000C003600100
40018001E00100
40030000E00100
C0020000600180
C0020000600180
80060000600180
80040000600180
80040000600080
80040000600080
80040000600080
80040000600080
80040000600080
80040000600180
80040000600180
80040000600180
80040000600180
80040000600100
80060000600100
C0060000600100
40020000600300
40030000E00200
40010000E00600
60018001200400
2000C002300800
2000700C183800
10001FF80FE000
10000000000000
08000000000000
0C000000000000
06000000000000
02000000000000
01000000000000
00800000000000
00600000000000
00300000000000
001C0000000000
00070000000000
0001F000000000
00001FFFFF0000
ENDCHAR
STARTCHAR 0041
ENCODING 65
SWIDTH 600 0
DWIDTH 40 0
BBX 36 47 2 0
BITMAP
0000600000
0000600000
0000F00000
0000900000
0000900000
0001980000
0001080000
00030C0000
00030C0000
0002040000
0006060000
0004060000
0004020000
000C030000
0008010000
0008010000
0018018000
0010008000
003000C000
003000C000
0020004000
0060006000
0060006000
0040002000
00C0003000
0080001000
0080001000
0180001800
0100000800
0300000C00
03FFFFFC00
0200000400
0600000600
0600000600
0400000200
0C00000300
0800000100
0800000100
1800000180
1000000080
30000000C0
30000000C0
2000000040
6000000060
6000000060
4000000020
C000000030
ENDCHAR
STARTCHAR 0042
ENCODING 66
SWIDTH 615 0
DWIDTH 41 0
BBX 30 47 7 0
BITMAP
FFFF8000
FFFFFC00
C0000700
C0000180
C00000C0
C0000040
C0000060
C0000060
C0000020
C0000020
C0000020
C0000030
C0000030
C0000020
C0000020
C0000020
C0000060
C0000060
C00000C0
C0000180
C0000300
C0000E00
FFFFFC00
C0000700
C00000C0
C0000060
C0000030
C0000010
C0000018
C0000008
C0000008
C0000008
C000000C
C000000C
C000000C
C000000C
C000000C
C0000008
C0000008
C0000018
C0000018
C0000030
C0000030
C0000060
C00001C0
C0000F00
FFFFFC00
ENDCHAR
STARTCHAR 0043
ENCODING 67
SWIDTH 600 0
DWIDTH 40 0
BBX 31 48 5 -1
BITMAP
001FFC00
00780780
01C001C0
03000060
06000030
0C000018
0800000C
18000004
30000006
20000002
20000000
60000000
40000000
40000000
C0000000
C0000000
C0000000
C0000000
80000000
80000000
80000000
80000000
80000000
80000000
80000000
80000000
80000000
80000000
80000000
80000000
C0000000
C0000000
C0000000
40000000
40000000
60000000
60000000
20000002
30000002
10000006
18000004
0C00000C
06000018
03000030
01800060
00E00180
003FFF00
0003F000
ENDCHAR
STARTCHAR 0044
ENCODING 68
SWIDTH 645 0
DWIDTH 43 0
BBX 32 47 7 0
BITMAP
FFFC0000
FFFFF800
C0001E00
C0000380
C00000C0
C0000060
C0000030
C0000018
C0000018
C000000C
C000000C
C0000004
C0000006
C0000002
C0000002
C0000002
C0000003
C0000003
C0000003
C0000001
C0000001
C0000001
C0000001
C0000001
C0000001
C0000001
C0000001
C0000001
C0000003
C0000003
C0000003
C0000003
C0000002
C0000002
C0000006
C0000006
C0000004
C000000C
C0000008
C0000018
C0000030
C0000060
C00000C0
C0000180
C0000700
C000FC00
FFFFE000
ENDCHAR
STARTCHAR 0045
ENCODING 69
SWIDTH 555 0
DWIDTH 37 0
BBX 26 47 7 0
BITMAP
FFFFFFC0
FFFFFFC0
C0000000
C0000000
C0000000
C0000000
C0000000
C0000000
C0000000
C0000000
C0000000
C0000000
C0000000
C0000000
C0000000
C0000000
C0000000
C0000000
C0000000
C0000000
C0000000
C0000000
C0000000
FFFFFF80
C0000000
C0000000
C0000000
C0000000
C0000000
C0000000
C0000000
C0000000
C0000000
C0000000
C0000000
C0000000
C0000000
C0000000
C0000000
C0000000
C0000000
C0000000
C0000000
C0000000
C0000000
C0000000
FFFFFFC0
ENDCHAR
STARTCHAR 0046
ENCODING 70
SWIDTH 525 0
DWIDTH 35 0
BBX 25 47 7 0
BITMAP
FFFFFF80
FFFFFF80
C0000000
C0000000
C0000000
C0000000
C0000000
C0000000
C0000000
C0000000
C0000000
C0000000
C0000000
C0000000
C0000000
C0000000
C0000000
C0000000
C0000000
C0000000
C0000000
C0000000
C0000000
FFFFFF00
C0000000
C0000000
C0000000
C0000000
C0000000
C0000000
C0000000
C0000000
C0000000
C0000000
C0000000
C0000000
C0000000
C0000000
C0000000
C0000000
C0000000
C0000000
C0000000
C0000000
C0000000
C0000000
C0000000
ENDCHAR
STARTCHAR 0047
ENCODING 71
SWIDTH 660 0
DWIDTH 44 0
BBX 34 48 5 -1
BITMAP
000FFE0000
007803C000
00E0006000
0380003800
0600000C00
0C00000600
0C00000200
1800000300
1000000180
3000000000
2000000000
6000000000
4000000000
4000000000
4000000000
C000000000
C000000000
C000000000
8000000000
8000000000
8000000000
8000000000
8000000000
8000000000
8000000000
800007FFC0
8000000040
8000000040
8000000040
8000000040
C000000040
C000000040
C000000040
4000000040
4000000040
60000000C0
60000000C0
20000000C0
30000000C0
1000000140
1800000140
0C00000240
0600000440
0300000C40
01C0003040
00F000E040
003FFF8040
0003F80000
ENDCHAR
STARTCHAR 0048
ENCODING 72
SWIDTH 690 0
DWIDTH 46 0
BBX 32 47 7 0
BITMAP
C0000003
C0000003
C0000003
C0000003
C0000003
C0000003
C0000003
C0000003
C0000003
C0000003
C0000003
C0000003
C0000003
C0000003
C0000003
C0000003
C0000003
C0000003
C0000003
C0000003
C0000003
C0000003
C0000003
FFFFFFFF
C0000003
C0000003
C0000003
C0000003
C0000003
C0000003
C0000003
C0000003
C0000003
C0000003
C0000003
C0000003
C0000003
C0000003
C0000003
C0000003
C0000003
C0000003
C0000003
C0000003
C0000003
C0000003
C0000003
ENDCHAR
STARTCHAR 0049
ENCODING 73
SWIDTH 360 0
DWIDTH 24 0
BBX 15 47 5 0
BITMAP
FFFE
FFFE
0100
0100
0100
0100
0100
0100
0100
0100
0100
0100
0100
0100
0100
0100
0100
0100
0100
0100
0100
0100
0100
0100
0100
0100
0100
0100
0100
0100
0100
0100
0100
0100
0100
0100
0100
0100
0100
0100
0100
0100
0100
0100
0100
0100
FFFE
ENDCHAR
STARTCHAR 004A
ENCODING 74
SWIDTH 450 0
DWIDTH 30 0
BBX 23 48 1 -1
BITMAP
07FFFE
07FFFE
000002
000002
000002
000002
000002
000002
000002
000002
000002
000002
000002
000002
000002
000002
000002
000002
000002
000002
000002
000002
000002
000002
000002
000002
000002
000002
000002
000002
000002
000002
000002
000002
000002
000002
000002
000002
000006
C00006
400006
600004
20000C
300018
180030
0E0060
03FFC0
007E00
ENDCHAR
STARTCHAR 004B
ENCODING 75
SWIDTH 570 0
DWIDTH 38 0
BBX 30 47 7 0
BITMAP
C000000C
C0000018
C0000030
C0000060
C00000C0
C0000180
C0000300
C0000600
C0000C00
C0000800
C0001000
C0003000
C0006000
C000C000
C0018000
C0030000
C0060000
C00C0000
C0180000
C0300000
C0300000
C0580000
C0C80000
C18C0000
C3060000
C6020000
CC030000
D8018000
F0008000
E000C000
C0006000
C0002000
C0003000
C0001800
C0000800
C0000C00
C0000600
C0000200
C0000300
C0000180
C0000080
C00000C0
C0000060
C0000020
C0000030
C0000018
C0000008
ENDCHAR
STARTCHAR 004C
ENCODING 76
SWIDTH 465 0
DWIDTH 31 0
BBX 23 47 7 0
BITMAP
C00000
C00000
C00000
C00000
C00000
C00000
C00000
C00000
C00000
C00000
C00000
C00000
C00000
C00000
C00000
C00000
C00000
C00000
C00000
C00000
C00000
C00000
C00000
C00000
C00000
C00000
C00000
C00000
C00000
C00000
C00000
C00000
C00000
C00000
C00000
C00000
C00000
C00000
C00000
C00000
C00000
C00000
C00000
C00000
C00000
C00000
FFFFFE
ENDCHAR
STARTCHAR 004D
ENCODING 77
SWIDTH 795 0
DWIDTH 53 0
BBX 39 47 7 0
BITMAP
C000000006
E00000000E
F00000001E
D000000016
D800000036
C800000026
CC00000066
C6000000C6
C200000086
C300000186
C180000106
C180000306
C0C0000606
C040000406
C060000C06
C030000806
C010001806
C018003006
C008002006
C00C006006
C006004006
C002008006
C003018006
C001010006
C001830006
C000C60006
C000440006
C0006C0006
C000380006
C000380006
C000100006
C000000006
C000000006
C000000006
C000000006
C000000006
C000000006
C000000006
C000000006
C000000006
C000000006
C000000006
C000000006
C000000006
C000000006
C000000006
C000000006
ENDCHAR
STARTCHAR 004E
ENCODING 78
SWIDTH 690 0
DWIDTH 46 0
BBX 32 47 7 0
BITMAP
C0000001
E0000001
F0000001
D0000001
D8000001
C8000001
CC000001
C6000001
C2000001
C3000001
C1800001
C0800001
C0C00001
C0400001
C0600001
C0300001
C0100001
C0180001
C00C0001
C0040001
C0060001
C0030001
C0030001
C0018001
C0008001
C000C001
C0006001
C0002001
C0003001
C0001801
C0001801
C0000C01
C0000401
C0000601
C0000301
C0000101
C0000181
C00000C1
C00000C1
C0000061
C0000021
C0000031
C0000019
C0000009
C000000D
C0000007
C0000007
ENDCHAR
STARTCHAR 004F
ENCODING 79
SWIDTH 675 0
DWIDTH 45 0
BBX 36 48 5 -1
BITMAP
000FFF0000
007803C000
00E0007000
0380001800
0600000C00
0C00000600
0C00000300
1800000300
1000000180
3000000080
20000000C0
60000000C0
4000000040
4000000060
4000000060
C000000060
C000000020
C000000020
8000000020
8000000030
8000000030
8000000030
8000000030
8000000030
8000000030
8000000030
8000000030
8000000030
8000000020
8000000020
C000000020
C000000020
C000000060
4000000060
4000000040
6000000040
60000000C0
2000000080
3000000180
1000000180
1800000300
0C00000600
0600000C00
0300001C00
01C0003000
00F000E000
003FFF8000
0003F80000
ENDCHAR
STARTCHAR 0050
ENCODING 80
SWIDTH 585 0
DWIDTH 39 0
BBX 30 47 7 0
BITMAP
FFFFC000
FFFFFF00
C0000380
C00000C0
C0000060
C0000030
C0000010
C0000018
C0000008
C0000008
C000000C
C000000C
C000000C
C000000C
C000000C
C000000C
C0000008
C0000008
C0000018
C0000010
C0000030
C0000060
C00000C0
C0000380
FFFFFE00
FFFFC000
C0000000
C0000000
C0000000
C0000000
C0000000
C0000000
C0000000
C0000000
C0000000
C0000000
C0000000
C0000000
C0000000
C0000000
C0000000
C0000000
C0000000
C0000000
C0000000
C0000000
C0000000
ENDCHAR
STARTCHAR 0051
ENCODING 81
SWIDTH 675 0
DWIDTH 45 0
BBX 36 57 5 -10
BITMAP
000FFF0000
007803C000
00E0007000
0380001800
0600000C00
0C00000600
0C00000300
1800000300
1000000180
3000000080
20000000C0
60000000C0
4000000040
4000000060
4000000060
C000000060
C000000020
C000000020
8000000020
8000000030
8000000030
8000000030
8000000030
8000000030
8000000030
8000000030
8000000030
8000000030
8000000020
8000000020
C000000020
C000000020
C000000060
4000000060
4000000040
6000000040
60000000C0
2000000080
3000000180
1000000100
1800000300
0C00000600
0600000C00
0300001800
01C0003000
00F000E000
003FFF8000
0001F80000
0000400000
0000400000
0000400000
0000400000
0000400000
0000400000
0000400000
00007F8000
00003F8000
ENDCHAR
STARTCHAR 0052
ENCODING 82
SWIDTH 630 0
DWIDTH 42 0
BBX 30 47 7 0
BITMAP
FFFFC000
FFFFFF00
C0000380
C00000C0
C0000060
C0000030
C0000010
C0000018
C0000008
C0000008
C000000C
C000000C
C000000C
C000000C
C000000C
C000000C
C0000008
C0000008
C0000018
C0000010
C0000030
C0000060
C00000C0
C0000380
FFFFFE00
FFFFC000
C0006000
C0006000
C0003000
C0001000
C0001800
C0000C00
C0000C00
C0000600
C0000200
C0000300
C0000100
C0000180
C00000C0
C0000040
C0000060
C0000020
C0000030
C0000018
C0000008
C000000C
C0000004
ENDCHAR
STARTCHAR 0053
ENCODING 83
SWIDTH 540 0
DWIDTH 36 0
BBX 30 48 3 -1
BITMAP
007FF800
03C00F00
06000180
0C0000E0
18000030
30000010
20000010
60000000
60000000
40000000
40000000
40000000
40000000
40000000
60000000
60000000
20000000
30000000
18000000
0C000000
07000000
01E00000
007F0000
0007F800
00003E00
00000380
000000C0
00000060
00000030
00000010
00000018
00000008
00000008
0000000C
0000000C
0000000C
0000000C
00000008
00000008
00000018
C0000018
60000010
30000030
18000060
0E0000C0
03800380
00FFFE00
000FE000
ENDCHAR
STARTCHAR 0054
ENCODING 84
SWIDTH 555 0
DWIDTH 37 0
BBX 35 47 1 0
BITMAP
FFFFFFFFE0
FFFFFFFFE0
0000400000
0000400000
0000400000
0000400000
0000400000
0000400000
0000400000
0000400000
0000400000
0000400000
0000400000
0000400000
0000400000
0000400000
0000400000
0000400000
0000400000
0000400000
0000400000
0000400000
0000400000
0000400000
0000400000
0000400000
0000400000
0000400000
0000400000
0000400000
0000400000
0000400000
0000400000
0000400000
0000400000
0000400000
0000400000
0000400000
0000400000
0000400000
0000400000
0000400000
0000400000
0000400000
0000400000
0000400000
0000400000
ENDCHAR
STARTCHAR 0055
ENCODING 85
SWIDTH 645 0
DWIDTH 43 0
BBX 30 48 7 -1
BITMAP
8000000C
8000000C
8000000C
8000000C
8000000C
8000000C
8000000C
8000000C
8000000C
8000000C
8000000C
8000000C
8000000C
8000000C
8000000C
8000000C
8000000C
8000000C
8000000C
8000000C
8000000C
8000000C
8000000C
8000000C
8000000C
8000000C
8000000C
8000000C
8000000C
8000000C
8000000C
8000000C
8000000C
8000000C
8000000C
C0000008
C0000008
C0000008
40000018
40000018
60000010
20000030
30000060
18000060
0C0001C0
07000700
01FFFE00
003FE000
ENDCHAR
STARTCHAR 0056
ENCODING 86
SWIDTH 570 0
DWIDTH 38 0
BBX 34 47 2 0
BITMAP
C0000000C0
C0000000C0
4000000080
6000000180
6000000180
2000000100
3000000300
3000000300
1000000200
1800000600
1800000600
0800000400
0C00000C00
0C00000C00
0400000800
0600001800
0200001000
0200001000
0300003000
0100002000
0100002000
0180006000
0080004000
0080004000
00C000C000
0040008000
0060008000
0060018000
0020010000
0030010000
0030030000
0010020000
0018020000
0018060000
0008040000
000C0C0000
000C0C0000
0004080000
0006180000
0006180000
0002100000
0003300000
0003300000
0001200000
0001E00000
0001E00000
0000C00000
ENDCHAR
STARTCHAR 0057
ENCODING 87
SWIDTH 870 0
DWIDTH 58 0
BBX 54 47 2 0
BITMAP
C0000030000004
C000003000000C
4000007800000C
40000068000008
60000048000008
6000004C000018
200000CC000018
20000084000010
30000084000030
30000186000030
10000182000020
18000102000020
18000103000060
18000303000060
08000201000040
0C000201000040
0C0006018000C0
040006018000C0
04000400800080
06000400800080
06000C00C00180
02000C00400180
02000800400100
03000800600300
03001800600300
01001000200200
01001000200200
01803000300600
01803000100600
00802000100400
00C02000180400
00C06000180C00
00404000080C00
00404000080800
0060C0000C0800
0060C000041800
00208000041800
00208000061000
00318000063000
00318000023000
00110000022000
00130000032000
001B0000036000
001A0000016000
000A0000014000
000E000001C000
000E000000C000
ENDCHAR
STARTCHAR 0058
ENCODING 88
SWIDTH 555 0
DWIDTH 37 0
BBX 33 47 2 0
BITMAP
C000000180
6000000300
3000000200
3000000600
1800000C00
0C00000800
0C00001800
0600003000
0300002000
0300006000
018000C000
00C0008000
00C0018000
0060030000
0030020000
0030060000
00180C0000
000C080000
000C180000
0006300000
0003200000
0003600000
0001C00000
0000C00000
0001C00000
0003600000
0002300000
0006100000
000C180000
00080C0000
0018040000
0030060000
0020030000
0060010000
00C0018000
008000C000
0180004000
0300006000
0200003000
0600001000
0C00001800
0800000C00
1800000400
3000000600
2000000300
6000000100
C000000180
ENDCHAR
STARTCHAR 0059
ENCODING 89
SWIDTH 540 0
DWIDTH 36 0
BBX 34 47 1 0
BITMAP
C0000000C0
6000000080
2000000180
3000000100
1000000300
1800000600
0C00000400
0400000C00
0600000800
0200001800
0300003000
0180002000
0080006000
00C0004000
004000C000
0060018000
0030010000
0010030000
0018020000
0008060000
000C0C0000
0006080000
0002180000
0003100000
0001300000
0001E00000
0000C00000
0000C00000
0000C00000
0000C00000
0000C00000
0000C00000
0000C00000
0000C00000
0000C00000
0000C00000
0000C00000
0000C00000
0000C00000
0000C00000
0000C00000
0000C00000
0000C00000
0000C00000
0000C00000
0000C00000
0000C00000
ENDCHAR
STARTCHAR 005A
ENCODING 90
SWIDTH 555 0
DWIDTH 37 0
BBX 32 47 3 0
BITMAP
7FFFFFFE
7FFFFFFE
00000004
0000000C
00000018
00000010
00000030
00000060
00000040
000000C0
00000180
00000100
00000300
00000600
00000400
00000C00
00001800
00001000
00003000
00006000
0000C000
0000C000
00018000
00030000
00030000
00060000
000C0000
00080000
00180000
00300000
00200000
00600000
00C00000
00800000
01800000
03000000
02000000
06000000
0C000000
08000000
18000000
30000000
20000000
60000000
C0000000
80000000
FFFFFFFF
ENDCHAR
STARTCHAR 005B
ENCODING 91
SWIDTH 300 0
DWIDTH 20 0
BBX 8 60 7 -9
BITMAP
FF
FF
C0
C0
C0
C0
C0
C0
C0
C0
C0
C0
C0
C0
C0
C0
C0
C0
C0
C0
C0
C0
C0
C0
C0
C0
C0
C0
C0
C0
C0
C0
C0
C0
C0
C0
C0
C0
C0
C0
C0
C0
C0
C0
C0
C0
C0
C0
C0
C0
C0
C0
C0
C0
C0
C0
C0
C0
C0
FF
ENDCHAR
STARTCHAR 005C
ENCODING 92
SWIDTH 300 0
DWIDTH 20 0
BBX 16 59 3 -10
BITMAP
8000
C000
C000
4000
4000
6000
2000
2000
2000
3000
1000
1000
1000
1800
0800
0800
0800
0C00
0400
0400
0600
0600
0200
0200
0300
0300
0100
0100
0180
0080
0080
0080
00C0
0040
0040
0040
0060
0020
0020
0020
0030
0010
0010
0018
0018
0008
0008
000C
000C
0004
0004
0006
0002
0002
0002
0003
0001
0001
0001
ENDCHAR
STARTCHAR 005D
ENCODING 93
SWIDTH 300 0
DWIDTH 20 0
BBX 8 60 5 -9
BITMAP
FF
FF
01
01
01
01
01
01
01
01
01
01
01
01
01
01
01
01
01
01
01
01
01
01
01
01
01
01
01
01
01
01
01
01
01
01
01
01
01
01
01
01
01
01
01
01
01
01
01
01
01
01
01
01
01
01
01
01
01
FF
ENDCHAR
STARTCHAR 005E
ENCODING 94
SWIDTH 600 0
DWIDTH 40 0
BBX 30 25 5 21
BITMAP
00030000
00030000
00078000
000CC000
00084000
00186000
00102000
00303000
00601800
00400800
00C00C00
00800400
01800600
03000300
02000100
06000180
04000080
0C0000C0
18000060
10000020
30000030
20000010
60000018
C000000C
80000004
ENDCHAR
STARTCHAR 005F
ENCODING 95
SWIDTH 555 0
DWIDTH 37 0
BBX 34 1 2 -9
BITMAP
FFFFFFFFC0
ENDCHAR
STARTCHAR 0060
ENCODING 96
SWIDTH 600 0
DWIDTH 40 0
BBX 8 11 14 39
BITMAP
80
C0
60
20
30
18
08
04
06
03
01
ENDCHAR
STARTCHAR 0061
ENCODING 97
SWIDTH 510 0
DWIDTH 34 0
BBX 29 36 4 -1
BITMAP
00180000
01FFC000
07007000
0C001800
18000C00
30000400
20000600
60000200
00000200
00000200
00000300
00000300
00000300
00000300
00000300
00000300
00000300
03FFFF00
0E000300
18000300
30000300
60000300
40000300
C0000300
C0000300
C0000300
C0000300
C0000300
C0000300
C0000700
40000F00
60000B00
30003300
1C00E300
07FF81F8
01FC0000
ENDCHAR
STARTCHAR 0062
ENCODING 98
SWIDTH 555 0
DWIDTH 37 0
BBX 27 50 7 -1
BITMAP
80000000
80000000
80000000
80000000
80000000
80000000
80000000
80000000
80000000
80000000
80000000
80000000
80000000
80000000
800C0000
81FFC000
87007000
8C001C00
90000600
A0000200
E0000300
C0000180
C0000080
C0000080
800000C0
80000040
80000040
80000040
80000040
80000060
80000060
80000060
80000060
80000060
80000060
80000060
80000040
80000040
80000040
800000C0
800000C0
C0000080
C0000180
C0000100
A0000300
90000600
88000C00
86003800
83F7E000
003F0000
ENDCHAR
STARTCHAR 0063
ENCODING 99
SWIDTH 480 0
DWIDTH 32 0
BBX 26 36 4 -1
BITMAP
00040000
00FFE000
03803800
06000C00
0C000600
18000300
10000180
30000000
20000000
60000000
40000000
40000000
C0000000
C0000000
C0000000
C0000000
C0000000
C0000000
C0000000
C0000000
C0000000
C0000000
C0000000
C0000000
40000000
40000000
60000000
60000000
20000000
300000C0
18000180
0C000300
06000600
03801C00
00FFF000
001F8000
ENDCHAR
STARTCHAR 0064
ENCODING 100
SWIDTH 555 0
DWIDTH 37 0
BBX 27 50 4 -1
BITMAP
00000060
00000060
00000060
00000060
00000060
00000060
00000060
00000060
00000060
00000060
00000060
00000060
00000060
00000060
00060060
00FFF060
03801C60
06000660
0C000360
180001E0
100000E0
30000060
20000060
60000060
40000060
40000060
C0000060
C0000060
C0000060
C0000060
C0000060
C0000060
C0000060
C0000060
C0000060
C0000060
C0000060
C0000060
40000060
40000060
60000060
60000060
20000060
300000E0
180001E0
0C000360
06000660
03801C60
00FDF060
001F8000
ENDCHAR
STARTCHAR 0065
ENCODING 101
SWIDTH 525 0
DWIDTH 35 0
BBX 28 35 4 0
BITMAP
00FFE000
03803800
06000C00
0C000600
18000300
10000180
30000080
200000C0
60000040
40000060
40000060
C0000020
C0000020
C0000020
C0000020
C0000030
FFFFFFF0
C0000000
C0000000
C0000000
C0000000
C0000000
C0000000
40000000
40000000
60000000
60000060
20000040
300000C0
18000180
0C000300
06000600
03801C00
00FDF000
001F8000
ENDCHAR
STARTCHAR 0066
ENCODING 102
SWIDTH 285 0
DWIDTH 19 0
BBX 15 49 2 0
BITMAP
03FE
0300
0300
0300
0300
0300
0300
0300
0300
0300
0300
0300
0300
0300
0300
FFFE
FFFE
0300
0300
0300
0300
0300
0300
0300
0300
0300
0300
0300
0300
0300
0300
0300
0300
0300
0300
0300
0300
0300
0300
0300
0300
0300
0300
0300
0300
0300
0300
0300
0300
ENDCHAR
STARTCHAR 0067
ENCODING 103
SWIDTH 525 0
DWIDTH 35 0
BBX 31 51 3 -14
BITMAP
000003FE
00000200
00030200
007FF200
01C01E00
03000600
06000300
04000100
08000080
08000080
180000C0
180000C0
180000C0
180000C0
180000C0
180000C0
180000C0
180000C0
08000080
0C000180
06000100
03000200
01800C00
00F07800
00FFC000
03000000
04000000
08000000
08000000
18000000
18000000
08000000
0C000000
07FFF000
01FFFFC0
06000070
18000018
30000008
6000000C
40000004
C0000004
C0000004
C0000004
C0000004
4000000C
60000008
60000018
30000030
1C0000E0
07800F80
00FFF800
ENDCHAR
STARTCHAR 0068
ENCODING 104
SWIDTH 555 0
DWIDTH 37 0
BBX 24 49 7 0
BITMAP
800000
800000
800000
800000
800000
800000
800000
800000
800000
800000
800000
800000
800000
800000
801800
83FFC0
8600E0
880038
900008
A0000C
C00006
C00006
C00002
800002
800003
800003
800003
800003
800003
800003
800003
800003
800003
800003
800003
800003
800003
800003
800003
800003
800003
800003
800003
800003
800003
800003
800003
800003
800003
ENDCHAR
STARTCHAR 0069
ENCODING 105
SWIDTH 225 0
DWIDTH 15 0
BBX 3 48 6 0
BITMAP
E0
E0
E0
00
00
00
00
00
00
00
00
00
00
00
40
40
40
40
40
40
40
40
40
40
40
40
40
40
40
40
40
40
40
40
40
40
40
40
40
40
40
40
40
40
40
40
40
40
ENDCHAR
STARTCHAR 006A
ENCODING 106
SWIDTH 225 0
DWIDTH 15 0
BBX 8 61 1 -13
BITMAP
07
07
07
00
00
00
00
00
00
00
00
00
00
00
02
02
02
02
02
02
02
02
02
02
02
02
02
02
02
02
02
02
02
02
02
02
02
02
02
02
02
02
02
02
02
02
02
02
02
02
02
02
02
02
02
02
02
02
02
02
FE
ENDCHAR
STARTCHAR 006B
ENCODING 107
SWIDTH 480 0
DWIDTH 32 0
BBX 24 49 7 0
BITMAP
800000
800000
800000
800000
800000
800000
800000
800000
800000
800000
800000
800000
800000
800000
800000
80000C
800018
800030
800060
8000C0
800180
800300
800600
800C00
801800
803000
806000
80C000
818000
830000
878000
8CC000
986000
B03000
E01000
C01800
800C00
800600
800300
800180
800080
8000C0
800060
800030
800018
800008
800004
800006
800003
ENDCHAR
STARTCHAR 006C
ENCODING 108
SWIDTH 240 0
DWIDTH 16 0
BBX 7 49 7 0
BITMAP
80
80
80
80
80
80
80
80
80
80
80
80
80
80
80
80
80
80
80
80
80
80
80
80
80
80
80
80
80
80
80
80
80
80
80
80
80
80
80
80
80
80
80
80
80
80
80
80
FE
ENDCHAR
STARTCHAR 006D
ENCODING 109
SWIDTH 870 0
DWIDTH 58 0
BBX 45 35 7 0
BITMAP
001000004000
83FF800FFE00
8600E0380380
9800306000C0
900018C00060
A00008800030
C00005000010
C00005000010
C00007000018
800002000018
800002000008
800002000008
800002000008
800002000008
800002000008
800002000008
800002000008
800002000008
800002000008
800002000008
800002000008
800002000008
800002000008
800002000008
800002000008
800002000008
800002000008
800002000008
800002000008
800002000008
800002000008
800002000008
800002000008
800002000008
800002000008
ENDCHAR
STARTCHAR 006E
ENCODING 110
SWIDTH 555 0
DWIDTH 37 0
BBX 24 35 7 0
BITMAP
001800
83FFC0
8600E0
880038
900008
A0000C
C00006
C00006
C00002
800002
800003
800003
800003
800003
800003
800003
800003
800003
800003
800003
800003
800003
800003
800003
800003
800003
800003
800003
800003
800003
800003
800003
800003
800003
800003
ENDCHAR
STARTCHAR 006F
ENCODING 111
SWIDTH 540 0
DWIDTH 36 0
BBX 28 36 4 -1
BITMAP
00040000
00FFF000
03801C00
06000600
0C000300
18000180
10000080
300000C0
20000040
60000060
40000020
40000020
C0000030
C0000030
C0000030
C0000030
C0000030
C0000030
C0000030
C0000030
C0000030
C0000030
C0000030
C0000030
40000020
40000020
60000060
60000060
20000040
300000C0
18000180
0C000300
06000600
03801C00
00FFF000
001F8000
ENDCHAR
STARTCHAR 0070
ENCODING 112
SWIDTH 555 0
DWIDTH 37 0
BBX 27 48 7 -13
BITMAP
000C0000
81FFC000
87007000
8C001C00
90000600
A0000200
E0000300
C0000180
C0000080
C0000080
800000C0
80000040
80000040
80000040
80000040
80000060
80000060
80000060
80000060
80000060
80000060
80000060
80000040
80000040
80000040
800000C0
800000C0
C0000080
C0000180
C0000100
A0000300
90000600
88000C00
86003800
83F7E000
803F0000
80000000
80000000
80000000
80000000
80000000
80000000
80000000
80000000
80000000
80000000
80000000
80000000
ENDCHAR
STARTCHAR 0071
ENCODING 113
SWIDTH 555 0
DWIDTH 37 0
BBX 27 48 4 -13
BITMAP
00060000
00FFF060
03801C60
06000660
0C000360
180001E0
100000E0
30000060
20000060
60000060
40000060
40000060
C0000060
C0000060
C0000060
C0000060
C0000060
C0000060
C0000060
C0000060
C0000060
C0000060
C0000060
C0000060
40000060
40000060
60000060
60000060
20000060
300000E0
180001E0
0C000360
06000660
03801C60
00FDF060
001F8060
00000060
00000060
00000060
00000060
00000060
00000060
00000060
00000060
00000060
00000060
00000060
00000060
ENDCHAR
STARTCHAR 0072
ENCODING 114
SWIDTH 330 0
DWIDTH 22 0
BBX 15 34 7 0
BITMAP
803E
83FE
8E00
9800
9000
A000
C000
C000
C000
8000
8000
8000
8000
8000
8000
8000
8000
8000
8000
8000
8000
8000
8000
8000
8000
8000
8000
8000
8000
8000
8000
8000
8000
8000
ENDCHAR
STARTCHAR 0073
ENCODING 115
SWIDTH 450 0
DWIDTH 30 0
BBX 24 35 3 0
BITMAP
03FFC0
060070
080018
10000C
300006
200000
200000
600000
600000
600000
200000
200000
300000
180000
0E0000
07C000
00FE00
0007E0
000070
00001C
000004
000006
000002
000003
000003
000003
000003
000003
C00003
600002
300006
18000C
0E0038
03F7E0
007F00
ENDCHAR
STARTCHAR 0074
ENCODING 116
SWIDTH 300 0
DWIDTH 20 0
BBX 16 43 2 0
BITMAP
0300
0300
0300
0300
0300
0300
0300
0300
0300
FFFF
FFFF
0300
0300
0300
0300
0300
0300
0300
0300
0300
0300
0300
0300
0300
0300
0300
0300
0300
0300
0300
0300
0300
0300
0300
0300
0300
0300
0300
0300
0300
0300
0300
01FE
ENDCHAR
STARTCHAR 0075
ENCODING 117
SWIDTH 555 0
DWIDTH 37 0
BBX 24 35 6 -1
BITMAP
C00001
C00001
C00001
C00001
C00001
C00001
C00001
C00001
C00001
C00001
C00001
C00001
C00001
C00001
C00001
C00001
C00001
C00001
C00001
C00001
C00001
C00001
C00001
C00001
C00001
400001
400003
600003
600003
200005
30000D
180019
0E0071
03FFC1
007E00
ENDCHAR
STARTCHAR 0076
ENCODING 118
SWIDTH 450 0
DWIDTH 30 0
BBX 26 34 2 0
BITMAP
80000040
C0000040
C00000C0
40000080
60000180
20000180
20000100
30000300
10000200
18000200
18000600
08000400
0C000400
04000C00
04000800
06001800
02001000
03001000
03003000
01002000
01802000
00806000
00804000
00C0C000
00408000
00408000
00618000
00210000
00310000
00130000
00120000
001A0000
000E0000
000C0000
ENDCHAR
STARTCHAR 0077
ENCODING 119
SWIDTH 720 0
DWIDTH 48 0
BBX 44 34 2 0
BITMAP
C00006000010
400006000030
400007000020
60000D000020
200009000060
200009800040
300009800040
1000188000C0
1000108000C0
180010C00080
180030400080
080020400180
080020600100
0C0060200100
040040200300
040040300200
0600C0100200
020080100600
020080180400
030080080400
030180080400
010100080C00
0101000C0800
018300040800
008200041800
008200061000
00C600021000
004400023000
004400032000
006C00012000
002800012000
00280001E000
00380000C000
00380000C000
ENDCHAR
STARTCHAR 0078
ENCODING 120
SWIDTH 465 0
DWIDTH 31 0
BBX 26 34 3 0
BITMAP
800000C0
C0000180
60000300
30000200
10000600
18000C00
0C000800
04001000
02003000
03006000
01804000
0080C000
00418000
00630000
00320000
00160000
001C0000
001C0000
00160000
00320000
00610000
00C18000
0080C000
01804000
03006000
02003000
04001800
0C000800
18000C00
10000600
20000200
60000100
C0000180
800000C0
ENDCHAR
STARTCHAR 0079
ENCODING 121
SWIDTH 450 0
DWIDTH 30 0
BBX 26 47 2 -13
BITMAP
80000040
C0000040
C00000C0
40000080
60000180
20000180
20000100
30000300
10000200
18000200
18000600
08000400
0C000400
04000C00
04000800
06001800
02001000
03001000
03003000
01002000
01802000
00806000
00804000
00C0C000
00408000
00408000
00618000
00210000
00310000
00130000
00120000
001A0000
000E0000
000C0000
000C0000
00080000
00080000
00180000
00100000
00300000
00300000
00200000
00600000
00400000
00400000
00C00000
3F800000
ENDCHAR
STARTCHAR 007A
ENCODING 122
SWIDTH 405 0
DWIDTH 27 0
BBX 24 34 2 0
BITMAP
FFFFFF
FFFFFF
000002
000004
00000C
000018
000010
000030
000060
0000C0
000080
000180
000300
000200
000400
000C00
001800
001000
003000
006000
004000
008000
018000
030000
020000
060000
0C0000
180000
100000
300000
600000
400000
800000
FFFFFF
ENDCHAR
STARTCHAR 007B
ENCODING 123
SWIDTH 315 0
DWIDTH 21 0
BBX 14 60 2 -9
BITMAP
01FC
03FC
0200
0200
0200
0200
0200
0200
0200
0200
0200
0200
0200
0200
0200
0200
0200
0200
0200
0200
0200
0200
0200
0200
0200
0200
0600
0C00
7800
C000
8000
F000
1C00
0400
0600
0200
0200
0200
0200
0200
0200
0200
0200
0200
0200
0200
0200
0200
0200
0200
0200
0200
0200
0200
0200
0200
0200
0200
0200
03FC
ENDCHAR
STARTCHAR 007C
ENCODING 124
SWIDTH 225 0
DWIDTH 15 0
BBX 2 60 7 -9
BITMAP
C0
C0
C0
C0
C0
C0
C0
C0
C0
C0
C0
C0
C0
C0
C0
C0
C0
C0
C0
C0
C0
C0
C0
C0
C0
C0
C0
C0
C0
C0
C0
C0
C0
C0
C0
C0
C0
C0
C0
C0
C0
C0
C0
C0
C0
C0
C0
C0
C0
C0
C0
C0
C0
C0
C0
C0
C0
C0
C0
C0
ENDCHAR
STARTCHAR 007D
ENCODING 125
SWIDTH 315 0
DWIDTH 21 0
BBX 14 60 5 -9
BITMAP
FE00
FF00
0100
0100
0100
0100
0100
0100
0100
0100
0100
0100
0100
0100
0100
0100
0100
0100
0100
0100
0100
0100
0100
0100
0100
0100
0180
00C0
0078
000C
0004
003C
00E0
0080
0180
0100
0100
0100
0100
0100
0100
0100
0100
0100
0100
0100
0100
0100
0100
0100
0100
0100
0100
0100
0100
0100
0100
0100
0100
FF00
ENDCHAR
STARTCHAR 007E
ENCODING 126
SWIDTH 600 0
DWIDTH 40 0
BBX 30 6 5 17
BITMAP
3FF00000
603C0000
C0070004
0001E00C
00007CF0
00000FC0
ENDCHAR
STARTCHAR 00A0
ENCODING 160
SWIDTH 225 0
DWIDTH 15 0
BBX 0 0 0 0
BITMAP
ENDCHAR
STARTCHAR 00A1
ENCODING 161
SWIDTH 240 0
DWIDTH 16 0
BBX 3 47 7 -13
BITMAP
E0
E0
E0
C0
00
00
00
00
00
00
00
00
40
40
40
40
40
40
40
40
40
40
40
40
40
40
40
40
40
40
40
40
40
40
40
40
40
40
40
40
40
40
40
40
40
40
40
ENDCHAR
STARTCHAR 00A2
ENCODING 162
SWIDTH 495 0
DWIDTH 33 0
BBX 26 49 4 -8
BITMAP
00040000
00040000
00040000
00040000
00040000
00040000
00040000
00FFE000
03843800
06040C00
0C040600
18040300
10040180
30040000
20040000
60040000
40040000
40040000
C0040000
C0040000
C0040000
C0040000
C0040000
C0040000
C0040000
C0040000
C0040000
C0040000
C0040000
C0040000
40040000
40040000
60040000
60040000
20040000
300400C0
18040180
0C040300
06040600
03841C00
00FFF000
001FC000
00040000
00040000
00040000
00040000
00040000
00040000
00040000
ENDCHAR
STARTCHAR 00A3
ENCODING 163
SWIDTH 570 0
DWIDTH 38 0
BBX 30 47 5 0
BITMAP
001FF800
00700F00
01C00180
030000C0
06000060
0C000030
0C000018
1800000C
18000000
10000000
10000000
10000000
30000000
30000000
10000000
10000000
10000000
10000000
18000000
08000000
08000000
0C000000
04000000
06000000
06000000
FFFFFC00
03000000
03000000
01000000
01000000
01000000
01000000
01000000
01000000
01000000
01000000
03000000
03000000
02000000
06000000
04000000
0C000000
18000000
10000000
20000000
40000000
7FFFFFF8
ENDCHAR
STARTCHAR 00A4
ENCODING 164
SWIDTH 585 0
DWIDTH 39 0
BBX 35 36 2 5
BITMAP
8000000020
C000000060
60000000C0
3003F80180
181E0F0300
0C7001C600
06C0006C00
0380003800
0100001000
0300001800
0200000800
0600000C00
0600000C00
0400000400
0400000400
0400000400
0400000400
0400000400
0400000400
0400000400
0400000400
0400000400
0400000400
0600000C00
0200000800
0200000800
0300001800
0180003000
03C0007800
066000CC00
0C38038600
180FFE0300
3000000180
60000000C0
C000000060
8000000020
ENDCHAR
STARTCHAR 00A5
ENCODING 165
SWIDTH 570 0
DWIDTH 38 0
BBX 32 47 3 0
BITMAP
C0000001
60000003
60000002
30000006
1000000C
18000008
0C000018
04000010
06000030
02000060
03000040
018000C0
00800180
00C00100
00600300
00600200
00300600
00100C00
00180800
000C1800
00043000
00062000
00026000
00034000
3FFFFFFC
00008000
00008000
00008000
00008000
00008000
00008000
00008000
00008000
00008000
00008000
3FFFFFFC
00008000
00008000
00008000
00008000
00008000
00008000
00008000
00008000
00008000
00008000
00008000
ENDCHAR
STARTCHAR 00A6
ENCODING 166
SWIDTH 225 0
DWIDTH 15 0
BBX 2 60 7 -9
BITMAP
C0
C0
C0
C0
C0
C0
C0
C0
C0
C0
C0
C0
C0
C0
C0
C0
C0
C0
C0
C0
C0
C0
C0
C0
00
00
00
00
00
00
00
00
00
00
00
00
C0
C0
C0
C0
C0
C0
C0
C0
C0
C0
C0
C0
C0
C0
C0
C0
C0
C0
C0
C0
C0
C0
C0
C0
ENDCHAR
STARTCHAR 00A7
ENCODING 167
SWIDTH 555 0
DWIDTH 37 0
BBX 26 57 6 -10
BITMAP
00FFE000
03803800
06000E00
0C000300
18000000
10000000
30000000
30000000
30000000
30000000
30000000
30000000
10000000
18000000
0C000000
06000000
03800000
03F00000
063E0000
1807C000
3000F000
60001C00
40000600
C0000300
80000180
80000080
80000080
800000C0
800000C0
800000C0
C00000C0
400000C0
600000C0
30000080
18000180
0E000100
03800200
00F80C00
001E1800
0003E000
00006000
00001800
00000C00
00000400
00000600
00000200
00000200
00000200
00000200
00000200
00000200
00000600
00000400
30000C00
18001800
0F00E000
03FF8000
ENDCHAR
STARTCHAR 00A8
ENCODING 168
SWIDTH 600 0
DWIDTH 40 0
BBX 16 3 12 43
BITMAP
6006
E007
6006
ENDCHAR
STARTCHAR 00A9
ENCODING 169
SWIDTH 705 0
DWIDTH 47 0
BBX 43 48 2 -1
BITMAP
0001FFF00000
0007001E0000
001800038000
00600000C000
00C000006000
018000003000
030000000800
060000000C00
0C0000000600
080000000200
180000000100
10003F800100
3000C0600080
200180300080
2002001800C0
600600080040
400400000040
400C00000040
400800000060
C00800000060
C00800000060
C00800000020
C01800000020
C01800000020
C01800000020
C01800000020
C00800000060
C00800000060
400800000060
400800000060
400C00000040
400400040040
6006000C00C0
200200080080
200180300080
3000E0E00180
10003F800100
180000000300
0C0000000200
040000000400
020000000C00
030000001800
018000003000
00600000E000
003800018000
000E000F0000
0003F9F80000
00003FC00000
ENDCHAR
STARTCHAR 00AA
ENCODING 170
SWIDTH 345 0
DWIDTH 23 0
BBX 19 23 3 24
BITMAP
07E000
1C3800
200400
400200
C00200
000300
000100
000100
000100
000100
000100
1FFF00
300100
400100
C00100
800100
800100
800300
800300
C00500
400D00
3031E0
1FC1E0
ENDCHAR
STARTCHAR 00AB
ENCODING 171
SWIDTH 465 0
DWIDTH 31 0
BBX 26 25 2 7
BITMAP
00040040
00080080
00100100
00600600
00C00C00
01801800
03003000
06006000
0C00C000
18018000
30030000
60060000
C00C0000
60060000
30030000
18018000
0C00C000
06006000
03003000
01801800
00400400
00200200
00180180
000C00C0
00040040
ENDCHAR
STARTCHAR 00AC
ENCODING 172
SWIDTH 600 0
DWIDTH 40 0
BBX 31 14 4 7
BITMAP
FFFFFFFE
00000006
00000006
00000006
00000006
00000006
00000006
00000006
00000006
00000006
00000006
00000006
00000006
00000006
ENDCHAR
STARTCHAR 00AD
ENCODING 173
SWIDTH 390 0
DWIDTH 26 0
BBX 15 1 6 20
BITMAP
FFFE
ENDCHAR
STARTCHAR 00AE
ENCODING 174
SWIDTH 465 0
DWIDTH 31 0
BBX 27 27 2 20
BITMAP
007FC000
01803800
06000C00
0C000600
18000300
30000180
207E0080
6041C0C0
40404040
40406040
40402040
C0402060
C0404060
C07FC060
C0430060
C0410060
40408040
40408040
40404040
204060C0
20402080
10000100
18000300
0C000600
06000C00
01C07000
007FC000
ENDCHAR
STARTCHAR 00AF
ENCODING 175
SWIDTH 600 0
DWIDTH 40 0
BBX 18 1 11 44
BITMAP
FFFFC0
ENDCHAR
STARTCHAR 00B0
ENCODING 176
SWIDTH 465 0
DWIDTH 31 0
BBX 21 22 5 25
BITMAP
03FE00
0E0380
1800C0
300060
600030
600010
C00018
C00018
800008
800008
800008
800008
800008
800008
C00018
400010
600030
200020
300060
1C01C0
070700
01FC00
ENDCHAR
STARTCHAR 00B1
ENCODING 177
SWIDTH 600 0
DWIDTH 40 0
BBX 32 40 4 0
BITMAP
00018000
00018000
00018000
00018000
00018000
00018000
00018000
00018000
00018000
00018000
00018000
00018000
00018000
00018000
00018000
FFFFFFFF
FFFFFFFF
00018000
00018000
00018000
00018000
00018000
00018000
00018000
00018000
00018000
00018000
00018000
00018000
00018000
00018000
00018000
00000000
00000000
00000000
00000000
00000000
00000000
00000000
FFFFFFFF
ENDCHAR
STARTCHAR 00B2
ENCODING 178
SWIDTH 345 0
DWIDTH 23 0
BBX 17 25 3 22
BITMAP
07F000
1C1C00
300600
600200
C00300
800100
000100
000100
000100
000300
000200
000600
000400
000800
001800
003000
004000
018000
030000
060000
080000
100000
600000
C00000
FFFF80
ENDCHAR
STARTCHAR 00B3
ENCODING 179
SWIDTH 345 0
DWIDTH 23 0
BBX 16 25 3 22
BITMAP
07E0
1C38
6004
4002
0002
0003
0003
0003
0002
0002
0004
0038
07F0
000C
0002
0003
0001
0001
0001
0001
0001
8002
C006
300C
1FF8
ENDCHAR
STARTCHAR 00B4
ENCODING 180
SWIDTH 600 0
DWIDTH 40 0
BBX 8 11 18 39
BITMAP
01
03
06
04
0C
18
30
20
60
C0
80
ENDCHAR
STARTCHAR 00B5
ENCODING 181
SWIDTH 555 0
DWIDTH 37 0
BBX 24 47 7 -13
BITMAP
800003
800003
800003
800003
800003
800003
800003
800003
800003
800003
800003
800003
800003
800003
800003
800003
800003
800003
800003
800003
800003
800003
800003
800003
C00003
C00003
C00003
C00003
E00007
A00007
B0000B
980013
8E0063
83EFC3
807C00
800000
800000
800000
800000
800000
800000
800000
800000
800000
800000
800000
800000
ENDCHAR
STARTCHAR 00B6
ENCODING 182
SWIDTH 585 0
DWIDTH 39 0
BBX 30 57 3 -10
BITMAP
0007FFFC
00FFFFFC
03FE0080
07FE0080
1FFE0080
1FFE0080
3FFE0080
7FFE0080
7FFE0080
7FFE0080
7FFE0080
FFFE0080
FFFE0080
FFFE0080
FFFE0080
7FFE0080
7FFE0080
7FFE0080
3FFE0080
3FFE0080
1FFE0080
0FFE0080
07FE0080
01FE0080
003E0080
00020080
00020080
00020080
00020080
00020080
00020080
00020080
00020080
00020080
00020080
00020080
00020080
00020080
00020080
00020080
00020080
00020080
00020080
00020080
00020080
00020080
00020080
00020080
00020080
00020080
00020080
00020080
00020080
00020080
00020080
00020080
00020080
ENDCHAR
STARTCHAR 00B7
ENCODING 183
SWIDTH 285 0
DWIDTH 19 0
BBX 4 3 8 18
BITMAP
F0
F0
F0
ENDCHAR
STARTCHAR 00B8
ENCODING 184
SWIDTH 600 0
DWIDTH 40 0
BBX 11 13 15 -13
BITMAP
0C00
0800
0800
0800
1800
1F80
00C0
0060
0020
0020
0060
C0C0
3F80
ENDCHAR
STARTCHAR 00B9
ENCODING 185
SWIDTH 360 0
DWIDTH 24 0
BBX 19 25 3 22
BITMAP
006000
01A000
032000
062000
0C2000
182000
202000
C02000
002000
002000
002000
002000
002000
002000
002000
002000
002000
002000
002000
002000
002000
002000
002000
002000
7FFFE0
ENDCHAR
STARTCHAR 00BA
ENCODING 186
SWIDTH 360 0
DWIDTH 24 0
BBX 18 23 3 24
BITMAP
03F000
0E1C00
180600
300100
200180
400080
4000C0
C00040
C00040
C00040
800040
800040
800040
800040
C00040
C00040
4000C0
400080
200180
300100
180200
0E0C00
03F000
ENDCHAR
STARTCHAR 00BB
ENCODING 187
SWIDTH 465 0
DWIDTH 31 0
BBX 25 25 4 7
BITMAP
80080000
C00C0000
60060000
30030000
18018000
0C00C000
06006000
03803800
01C01C00
00600600
00300300
00180180
00080080
00380380
00700700
00E00E00
01801800
03003000
06006000
0C00C000
18018000
30030000
60060000
C00C0000
80080000
ENDCHAR
STARTCHAR 00BC
ENCODING 188
SWIDTH 840 0
DWIDTH 56 0
BBX 52 47 3 0
BITMAP
00600000002000
01A00000006000
03200000004000
0620000000C000
0C200000018000
18200000010000
20200000030000
C0200000020000
00200000040000
002000000C0000
00200000080000
00200000100000
00200000300000
00200000200000
00200000600000
00200000C00000
00200000800000
00200001800000
00200003000000
00200002000000
00200006000000
00200004000000
00200008000200
00200018000600
7FFFE010000A00
00000020001A00
00000060003200
00000040002200
000000C0004200
00000180008200
00000100018200
00000300030200
00000600020200
00000400040200
00000C000C0200
00000800180200
00001000100200
00003000200200
00002000400200
00004000C00200
0000C000FFFFF0
00008000000200
00018000000200
00030000000200
00020000000200
00060000000200
00040000000200
ENDCHAR
STARTCHAR 00BD
ENCODING 189
SWIDTH 885 0
DWIDTH 59 0
BBX 53 47 3 0
BITMAP
00600000002000
01A00000006000
03200000004000
0620000000C000
0C200000018000
18200000010000
20200000030000
C0200000020000
00200000040000
002000000C0000
00200000080000
00200000100000
00200000300000
00200000200000
00200000600000
00200000C00000
00200000800000
00200001800000
00200003000000
00200002000000
00200006000000
00200004000000
00200008007F00
0020001801C1C0
7FFFE010030060
00000020060020
000000600C0030
00000040080010
000000C0000010
00000180000010
00000100000010
00000300000030
00000600000020
00000400000060
00000C00000040
00000800000080
00001000000180
00003000000200
00002000000400
00004000001800
0000C000003000
00008000006000
00018000008000
00030000010000
00020000060000
000600000C0000
000400000FFFF8
ENDCHAR
STARTCHAR 00BE
ENCODING 190
SWIDTH 810 0
DWIDTH 54 0
BBX 49 47 3 0
BITMAP
07E00000008000
1C380000010000
60040000030000
40020000020000
00020000060000
000300000C0000
00030000080000
00030000180000
00020000300000
00020000200000
00040000600000
00380000400000
07F00000800000
000C0001800000
00020001000000
00030002000000
00010006000000
00010004000000
0001000C000000
00010018000000
00010010000000
80020030000000
C0060060001800
300C0040003800
1FF800C0002800
00000080004800
00000100008800
00000300018800
00000200030800
00000400020800
00000C00040800
000008000C0800
00001800180800
00003000100800
00002000200800
00006000400800
00004000C00800
00008001800800
00018001000800
00010002000800
00020003FFFF80
00060000000800
00040000000800
000C0000000800
00180000000800
00100000000800
00300000000800
ENDCHAR
STARTCHAR 00BF
ENCODING 191
SWIDTH 450 0
DWIDTH 30 0
BBX 26 48 2 -14
BITMAP
00070000
00070000
00070000
00060000
00000000
00000000
00000000
00000000
00000000
00000000
00000000
00000000
00020000
00020000
00020000
00020000
00020000
00020000
00020000
00020000
00020000
00020000
000E0000
00FE0000
03800000
06000000
0C000000
18000000
30000000
20000000
60000000
40000000
40000000
C0000000
C0000000
C0000000
C0000000
C00000C0
400000C0
40000080
60000180
20000100
30000300
18000600
0C000C00
07003800
01FFE000
001C0000
ENDCHAR
STARTCHAR 00C0
ENCODING 192
SWIDTH 600 0
DWIDTH 40 0
BBX 36 62 2 0
BITMAP
0008000000
000C000000
0006000000
0002000000
0003000000
0001800000
0000800000
0000400000
0000600000
0000300000
0000100000
0000000000
0000000000
0000000000
0000000000
0000600000
0000600000
0000F00000
0000900000
0000900000
0001980000
0001080000
00030C0000
00030C0000
0002040000
0006060000
0004060000
0004020000
000C030000
0008010000
0008010000
0018018000
0010008000
003000C000
003000C000
0020004000
0060006000
0060006000
0040002000
00C0003000
0080001000
0080001000
0180001800
0100000800
0300000C00
03FFFFFC00
0200000400
0600000600
0600000600
0400000200
0C00000300
0800000100
0800000100
1800000180
1000000080
30000000C0
30000000C0
2000000040
6000000060
6000000060
4000000020
C000000030
ENDCHAR
STARTCHAR 00C1
ENCODING 193
SWIDTH 600 0
DWIDTH 40 0
BBX 36 62 2 0
BITMAP
0000010000
0000030000
0000060000
0000040000
00000C0000
0000180000
0000300000
0000200000
0000600000
0000C00000
0000800000
0000000000
0000000000
0000000000
0000000000
0000600000
0000600000
0000F00000
0000900000
0000900000
0001980000
0001080000
00030C0000
00030C0000
0002040000
0006060000
0004060000
0004020000
000C030000
0008010000
0008010000
0018018000
0010008000
003000C000
003000C000
0020004000
0060006000
0060006000
0040002000
00C0003000
0080001000
0080001000
0180001800
0100000800
0300000C00
03FFFFFC00
0200000400
0600000600
0600000600
0400000200
0C00000300
0800000100
0800000100
1800000180
1000000080
30000000C0
30000000C0
2000000040
6000000060
6000000060
4000000020
C000000030
ENDCHAR
STARTCHAR 00C2
ENCODING 194
SWIDTH 600 0
DWIDTH 40 0
BBX 36 62 2 0
BITMAP
0000600000
0000F00000
0001980000
00030C0000
0006060000
000C030000
0018018000
003000C000
0060006000
0040002000
0000000000
0000000000
0000000000
0000000000
0000000000
0000600000
0000600000
0000F00000
0000900000
0000900000
0001980000
0001080000
00030C0000
00030C0000
0002040000
0006060000
0004060000
0004020000
000C030000
0008010000
0008010000
0018018000
0010008000
003000C000
003000C000
0020004000
0060006000
0060006000
0040002000
00C0003000
0080001000
0080001000
0180001800
0100000800
0300000C00
03FFFFFC00
0200000400
0600000600
0600000600
0400000200
0C00000300
0800000100
0800000100
1800000180
1000000080
30000000C0
30000000C0
2000000040
6000000060
6000000060
4000000020
C000000030
ENDCHAR
STARTCHAR 00C3
ENCODING 195
SWIDTH 600 0
DWIDTH 40 0
BBX 36 59 2 0
BITMAP
000E000000
0073800000
00C0603000
0000386000
00000F8000
0000000000
0000000000
0000000000
0000000000
0000000000
0000000000
0000000000
0000600000
0000600000
0000F00000
0000900000
0000900000
0001980000
0001080000
00030C0000
00030C0000
0002040000
0006060000
0004060000
0004020000
000C030000
0008010000
0008010000
0018018000
0010008000
003000C000
003000C000
0020004000
0060006000
0060006000
0040002000
00C0003000
0080001000
0080001000
0180001800
0100000800
0300000C00
03FFFFFC00
0200000400
0600000600
0600000600
0400000200
0C00000300
0800000100
0800000100
1800000180
1000000080
30000000C0
30000000C0
2000000040
6000000060
6000000060
4000000020
C000000030
ENDCHAR
STARTCHAR 00C4
ENCODING 196
SWIDTH 600 0
DWIDTH 40 0
BBX 36 58 2 0
BITMAP
0018018000
003801C000
003801C000
0000000000
0000000000
0000000000
0000000000
0000000000
0000000000
0000000000
0000000000
0000600000
0000600000
0000F00000
0000900000
0000900000
0001980000
0001080000
00030C0000
00030C0000
0002040000
0006060000
0004060000
0004020000
000C030000
0008010000
0008010000
0018018000
0010008000
003000C000
003000C000
0020004000
0060006000
0060006000
0040002000
00C0003000
0080001000
0080001000
0180001800
0100000800
0300000C00
03FFFFFC00
0200000400
0600000600
0600000600
0400000200
0C00000300
0800000100
0800000100
1800000180
1000000080
30000000C0
30000000C0
2000000040
6000000060
6000000060
4000000020
C000000030
ENDCHAR
STARTCHAR 00C5
ENCODING 197
SWIDTH 600 0
DWIDTH 40 0
BBX 36 63 2 0
BITMAP
0001F80000
0006060000
0004020000
000C030000
0008010000
0008010000
0008010000
000C030000
0004020000
0006060000
0003FC0000
0000600000
0000000000
0000000000
0000000000
0000000000
0000600000
0000600000
0000F00000
0000900000
0000900000
0001980000
0001080000
00030C0000
00030C0000
0002040000
0006060000
0004060000
0004020000
000C030000
0008010000
0008010000
0018018000
0010008000
003000C000
003000C000
0020004000
0060006000
0060006000
0040002000
00C0003000
0080001000
0080001000
0180001800
0100000800
0300000C00
03FFFFFC00
0200000400
0600000600
0600000600
0400000200
0C00000300
0800000100
0800000100
1800000180
1000000080
30000000C0
30000000C0
2000000040
6000000060
6000000060
4000000020
C000000030
ENDCHAR
STARTCHAR 00C6
ENCODING 198
SWIDTH 855 0
DWIDTH 57 0
BBX 53 47 0 0
BITMAP
0000003FFFFFF8
0000007FFFFFF8
00000058000000
000000D8000000
00000198000000
00000118000000
00000318000000
00000218000000
00000618000000
00000418000000
00000C18000000
00000818000000
00001818000000
00001018000000
00003018000000
00006018000000
00004018000000
0000C018000000
00008018000000
00018018000000
00010018000000
00030018000000
00020018000000
0006001FFFFFF0
000C0018000000
000C0018000000
00180018000000
00100018000000
00300018000000
00200018000000
007FFFF8000000
00400018000000
00C00018000000
00800018000000
01800018000000
03000018000000
03000018000000
06000018000000
04000018000000
0C000018000000
08000018000000
18000018000000
10000018000000
30000018000000
20000018000000
60000018000000
C000001FFFFFF8
ENDCHAR
STARTCHAR 00C7
ENCODING 199
SWIDTH 600 0
DWIDTH 40 0
BBX 31 60 5 -13
BITMAP
001FFC00
00780780
01C001C0
03000060
06000030
0C000018
0800000C
18000004
30000006
20000002
20000000
60000000
40000000
40000000
C0000000
C0000000
C0000000
C0000000
80000000
80000000
80000000
80000000
80000000
80000000
80000000
80000000
80000000
80000000
80000000
80000000
C0000000
C0000000
C0000000
40000000
40000000
60000000
60000000
20000002
30000002
10000006
18000004
0C00000C
06000018
03000030
01800060
00E00180
003FFE00
0003F000
0000C000
00008000
00008000
00008000
0001F800
00000600
00000200
00000200
00000200
00000600
00060400
0003F800
ENDCHAR
STARTCHAR 00C8
ENCODING 200
SWIDTH 555 0
DWIDTH 37 0
BBX 26 62 7 0
BITMAP
01000000
01800000
00C00000
00400000
00600000
00300000
00100000
00080000
000C0000
00060000
00020000
00000000
00000000
00000000
00000000
FFFFFFC0
FFFFFFC0
C0000000
C0000000
C0000000
C0000000
C0000000
C0000000
C0000000
C0000000
C0000000
C0000000
C0000000
C0000000
C0000000
C0000000
C0000000
C0000000
C0000000
C0000000
C0000000
C0000000
C0000000
FFFFFF80
C0000000
C0000000
C0000000
C0000000
C0000000
C0000000
C0000000
C0000000
C0000000
C0000000
C0000000
C0000000
C0000000
C0000000
C0000000
C0000000
C0000000
C0000000
C0000000
C0000000
C0000000
C0000000
FFFFFFC0
ENDCHAR
STARTCHAR 00C9
ENCODING 201
SWIDTH 555 0
DWIDTH 37 0
BBX 26 62 7 0
BITMAP
00002000
00006000
0000C000
00008000
00018000
00030000
00060000
00040000
000C0000
00180000
00100000
00000000
00000000
00000000
00000000
FFFFFFC0
FFFFFFC0
C0000000
C0000000
C0000000
C0000000
C0000000
C0000000
C0000000
C0000000
C0000000
C0000000
C0000000
C0000000
C0000000
C0000000
C0000000
C0000000
C0000000
C0000000
C0000000
C0000000
C0000000
FFFFFF80
C0000000
C0000000
C0000000
C0000000
C0000000
C0000000
C0000000
C0000000
C0000000
C0000000
C0000000
C0000000
C0000000
C0000000
C0000000
C0000000
C0000000
C0000000
C0000000
C0000000
C0000000
C0000000
FFFFFFC0
ENDCHAR
STARTCHAR 00CA
ENCODING 202
SWIDTH 555 0
DWIDTH 37 0
BBX 26 62 7 0
BITMAP
000C0000
001E0000
00330000
00618000
00C0C000
01806000
03003000
06001800
0C000C00
08000400
00000000
00000000
00000000
00000000
00000000
FFFFFFC0
FFFFFFC0
C0000000
C0000000
C0000000
C0000000
C0000000
C0000000
C0000000
C0000000
C0000000
C0000000
C0000000
C0000000
C0000000
C0000000
C0000000
C0000000
C0000000
C0000000
C0000000
C0000000
C0000000
FFFFFF80
C0000000
C0000000
C0000000
C0000000
C0000000
C0000000
C0000000
C0000000
C0000000
C0000000
C0000000
C0000000
C0000000
C0000000
C0000000
C0000000
C0000000
C0000000
C0000000
C0000000
C0000000
C0000000
FFFFFFC0
ENDCHAR
STARTCHAR 00CB
ENCODING 203
SWIDTH 555 0
DWIDTH 37 0
BBX 26 58 7 0
BITMAP
03003000
07003800
07003800
00000000
00000000
00000000
00000000
00000000
00000000
00000000
00000000
FFFFFFC0
FFFFFFC0
C0000000
C0000000
C0000000
C0000000
C0000000
C0000000
C0000000
C0000000
C0000000
C0000000
C0000000
C0000000
C0000000
C0000000
C0000000
C0000000
C0000000
C0000000
C0000000
C0000000
C0000000
FFFFFF80
C0000000
C0000000
C0000000
C0000000
C0000000
C0000000
C0000000
C0000000
C0000000
C0000000
C0000000
C0000000
C0000000
C0000000
C0000000
C0000000
C0000000
C0000000
C0000000
C0000000
C0000000
C0000000
FFFFFFC0
ENDCHAR
STARTCHAR 00CC
ENCODING 204
SWIDTH 360 0
DWIDTH 24 0
BBX 15 62 5 0
BITMAP
6000
6000
3000
1800
0800
0C00
0600
0300
0100
0080
0080
0000
0000
0000
0000
FFFE
FFFE
0100
0100
0100
0100
0100
0100
0100
0100
0100
0100
0100
0100
0100
0100
0100
0100
0100
0100
0100
0100
0100
0100
0100
0100
0100
0100
0100
0100
0100
0100
0100
0100
0100
0100
0100
0100
0100
0100
0100
0100
0100
0100
0100
0100
FFFE
ENDCHAR
STARTCHAR 00CD
ENCODING 205
SWIDTH 360 0
DWIDTH 24 0
BBX 15 62 5 0
BITMAP
000C
0018
0018
0030
0060
0040
00C0
0180
0300
0200
0000
0000
0000
0000
0000
FFFE
FFFE
0100
0100
0100
0100
0100
0100
0100
0100
0100
0100
0100
0100
0100
0100
0100
0100
0100
0100
0100
0100
0100
0100
0100
0100
0100
0100
0100
0100
0100
0100
0100
0100
0100
0100
0100
0100
0100
0100
0100
0100
0100
0100
0100
0100
FFFE
ENDCHAR
STARTCHAR 00CE
ENCODING 206
SWIDTH 360 0
DWIDTH 24 0
BBX 19 62 3 0
BITMAP
004000
00E000
01B000
031800
060C00
0C0600
180300
300180
6000C0
C00060
000000
000000
000000
000000
000000
3FFF80
3FFF80
004000
004000
004000
004000
004000
004000
004000
004000
004000
004000
004000
004000
004000
004000
004000
004000
004000
004000
004000
004000
004000
004000
004000
004000
004000
004000
004000
004000
004000
004000
004000
004000
004000
004000
004000
004000
004000
004000
004000
004000
004000
004000
004000
004000
3FFF80
ENDCHAR
STARTCHAR 00CF
ENCODING 207
SWIDTH 360 0
DWIDTH 24 0
BBX 15 58 5 0
BITMAP
C00E
E00E
E00E
0000
0000
0000
0000
0000
0000
0000
0000
FFFE
FFFE
0100
0100
0100
0100
0100
0100
0100
0100
0100
0100
0100
0100
0100
0100
0100
0100
0100
0100
0100
0100
0100
0100
0100
0100
0100
0100
0100
0100
0100
0100
0100
0100
0100
0100
0100
0100
0100
0100
0100
0100
0100
0100
0100
0100
FFFE
ENDCHAR
STARTCHAR 00D0
ENCODING 208
SWIDTH 660 0
DWIDTH 44 0
BBX 37 47 2 0
BITMAP
07FFE00000
07FFFFC000
060000F000
0600001C00
0600000600
0600000300
0600000180
06000000C0
0600000040
0600000060
0600000020
0600000030
0600000030
0600000010
0600000010
0600000018
0600000018
0600000008
0600000008
0600000008
0600000008
0600000008
FFFFC00008
0600000008
0600000008
0600000008
0600000008
0600000008
0600000008
0600000008
0600000018
0600000018
0600000018
0600000010
0600000010
0600000030
0600000020
0600000060
0600000060
06000000C0
0600000080
0600000180
0600000700
0600000E00
0600003800
060007E000
07FFFF0000
ENDCHAR
STARTCHAR 00D1
ENCODING 209
SWIDTH 690 0
DWIDTH 46 0
BBX 32 59 7 0
BITMAP
00780000
00CE0000
030180C0
0000E180
00003F00
00000000
00000000
00000000
00000000
00000000
00000000
00000000
C0000001
E0000001
F0000001
D0000001
D8000001
C8000001
CC000001
C6000001
C2000001
C3000001
C1800001
C0800001
C0C00001
C0400001
C0600001
C0300001
C0100001
C0180001
C00C0001
C0040001
C0060001
C0030001
C0030001
C0018001
C0008001
C000C001
C0006001
C0002001
C0003001
C0001801
C0001801
C0000C01
C0000401
C0000601
C0000301
C0000101
C0000181
C00000C1
C00000C1
C0000061
C0000021
C0000031
C0000019
C0000009
C000000D
C0000007
C0000007
ENDCHAR
STARTCHAR 00D2
ENCODING 210
SWIDTH 675 0
DWIDTH 45 0
BBX 36 63 5 -1
BITMAP
0018000000
000C000000
000C000000
0006000000
0003000000
0001000000
0001800000
0000C00000
0000600000
0000200000
0000000000
0000000000
0000000000
0000000000
0000000000
000FFF0000
007803C000
00E0007000
0380001800
0600000C00
0C00000600
0C00000300
1800000300
1000000180
3000000080
20000000C0
60000000C0
4000000040
4000000060
4000000060
C000000060
C000000020
C000000020
8000000020
8000000030
8000000030
8000000030
8000000030
8000000030
8000000030
8000000030
8000000030
8000000030
8000000020
8000000020
C000000020
C000000020
C000000060
4000000060
4000000040
6000000040
60000000C0
2000000080
3000000180
1000000180
1800000300
0C00000600
0600000C00
0300001C00
01C0003000
00F000E000
003FFF8000
0003F80000
ENDCHAR
STARTCHAR 00D3
ENCODING 211
SWIDTH 675 0
DWIDTH 45 0
BBX 36 63 5 -1
BITMAP
0000030000
0000030000
0000060000
00000C0000
0000080000
0000180000
0000300000
0000600000
0000400000
0000C00000
0000800000
0000000000
0000000000
0000000000
0000000000
000FFF0000
007803C000
00E0007000
0380001800
0600000C00
0C00000600
0C00000300
1800000300
1000000180
3000000080
20000000C0
60000000C0
4000000040
4000000060
4000000060
C000000060
C000000020
C000000020
8000000020
8000000030
8000000030
8000000030
8000000030
8000000030
8000000030
8000000030
8000000030
8000000030
8000000020
8000000020
C000000020
C000000020
C000000060
4000000060
4000000040
6000000040
60000000C0
2000000080
3000000180
1000000180
1800000300
0C00000600
0600000C00
0300001C00
01C0003000
00F000E000
003FFF8000
0003F80000
ENDCHAR
STARTCHAR 00D4
ENCODING 212
SWIDTH 675 0
DWIDTH 45 0
BBX 36 63 5 -1
BITMAP
0000600000
0000E00000
0001900000
0003080000
0006040000
000C020000
0018010000
0030008000
0060004000
0040002000
0000000000
0000000000
0000000000
0000000000
0000000000
000FFF0000
007803C000
00E0007000
0380001800
0600000C00
0C00000600
0C00000300
1800000300
1000000180
3000000080
20000000C0
60000000C0
4000000040
4000000060
4000000060
C000000060
C000000020
C000000020
8000000020
8000000030
8000000030
8000000030
8000000030
8000000030
8000000030
8000000030
8000000030
8000000030
8000000020
8000000020
C000000020
C000000020
C000000060
4000000060
4000000040
6000000040
60000000C0
2000000080
3000000180
1000000180
1800000300
0C00000600
0600000C00
0300001C00
01C0003000
00F000E000
003FFF8000
0003F80000
ENDCHAR
STARTCHAR 00D5
ENCODING 213
SWIDTH 675 0
DWIDTH 45 0
BBX 36 60 5 -1
BITMAP
001C000000
0077800000
00C0E03000
008038E000
00000F8000
0000000000
0000000000
0000000000
0000000000
0000000000
0000000000
0000000000
000FFF0000
007803C000
00E0007000
0380001800
0600000C00
0C00000600
0C00000300
1800000300
1000000180
3000000080
20000000C0
60000000C0
4000000040
4000000060
4000000060
C000000060
C000000020
C000000020
8000000020
8000000030
8000000030
8000000030
8000000030
8000000030
8000000030
8000000030
8000000030
8000000030
8000000020
8000000020
C000000020
C000000020
C000000060
4000000060
4000000040
6000000040
60000000C0
2000000080
3000000180
1000000180
1800000300
0C00000600
0600000C00
0300001C00
01C0003000
00F000E000
003FFF8000
0003F80000
ENDCHAR
STARTCHAR 00D6
ENCODING 214
SWIDTH 675 0
DWIDTH 45 0
BBX 36 59 5 -1
BITMAP
0038018000
0038038000
0038038000
0000000000
0000000000
0000000000
0000000000
0000000000
0000000000
0000000000
0000000000
000FFF0000
007803C000
00E0007000
0380001800
0600000C00
0C00000600
0C00000300
1800000300
1000000180
3000000080
20000000C0
60000000C0
4000000040
4000000060
4000000060
C000000060
C000000020
C000000020
8000000020
8000000030
8000000030
8000000030
8000000030
8000000030
8000000030
8000000030
8000000030
8000000030
8000000020
8000000020
C000000020
C000000020
C000000060
4000000060
4000000040
6000000040
60000000C0
2000000080
3000000180
1000000180
1800000300
0C00000600
0600000C00
0300001C00
01C0003000
00F000E000
003FFF8000
0003F80000
ENDCHAR
STARTCHAR 00D7
ENCODING 215
SWIDTH 600 0
DWIDTH 40 0
BBX 26 25 7 7
BITMAP
C00000C0
60000180
30000300
18000600
0C000C00
06001800
03003000
01806000
00C0C000
00618000
00330000
001E0000
000C0000
001E0000
00330000
00618000
00C0C000
01806000
03003000
06001800
0C000C00
18000600
30000300
60000180
C00000C0
ENDCHAR
STARTCHAR 00D8
ENCODING 216
SWIDTH 675 0
DWIDTH 45 0
BBX 36 51 5 -2
BITMAP
0000000020
0000000020
000FFF0060
007803C0C0
00E0007080
0380001980
0600000F00
0C00000600
0C00000700
1800000F00
1000001980
3000001080
20000030C0
60000060C0
4000004040
400000C060
4000018060
C000010060
C000030020
C000060020
80000C0020
8000080030
8000180030
8000300030
8000200030
8000600030
8000C00030
8000800030
8001800030
8003000030
8006000020
8004000020
C00C000020
C018000020
C010000060
4030000060
4060000040
6040000040
20C00000C0
3180000080
3300000180
1B00000180
1E00000300
0C00000600
0E00000C00
1B00001C00
31C0003000
20F000E000
603FFF8000
C003F80000
8000000000
ENDCHAR
STARTCHAR 00D9
ENCODING 217
SWIDTH 645 0
DWIDTH 43 0
BBX 30 63 7 -1
BITMAP
00C00000
00600000
00600000
00300000
00180000
00080000
000C0000
00060000
00030000
00010000
00000000
00000000
00000000
00000000
00000000
8000000C
8000000C
8000000C
8000000C
8000000C
8000000C
8000000C
8000000C
8000000C
8000000C
8000000C
8000000C
8000000C
8000000C
8000000C
8000000C
8000000C
8000000C
8000000C
8000000C
8000000C
8000000C
8000000C
8000000C
8000000C
8000000C
8000000C
8000000C
8000000C
8000000C
8000000C
8000000C
8000000C
8000000C
8000000C
C0000008
C0000008
C0000008
40000018
40000018
60000010
20000030
30000060
18000060
0C0001C0
07000700
01FFFE00
003FE000
ENDCHAR
STARTCHAR 00DA
ENCODING 218
SWIDTH 645 0
DWIDTH 43 0
BBX 30 63 7 -1
BITMAP
00001800
00001800
00003000
00006000
00004000
0000C000
00018000
00030000
00020000
00060000
00040000
00000000
00000000
00000000
00000000
8000000C
8000000C
8000000C
8000000C
8000000C
8000000C
8000000C
8000000C
8000000C
8000000C
8000000C
8000000C
8000000C
8000000C
8000000C
8000000C
8000000C
8000000C
8000000C
8000000C
8000000C
8000000C
8000000C
8000000C
8000000C
8000000C
8000000C
8000000C
8000000C
8000000C
8000000C
8000000C
8000000C
8000000C
8000000C
C0000008
C0000008
C0000008
40000018
40000018
60000010
20000030
30000060
18000060
0C0001C0
07000700
01FFFE00
003FE000
ENDCHAR
STARTCHAR 00DB
ENCODING 219
SWIDTH 645 0
DWIDTH 43 0
BBX 30 63 7 -1
BITMAP
00030000
00070000
000C8000
00184000
00302000
00601000
00C00800
01800400
03000200
02000100
00000000
00000000
00000000
00000000
00000000
8000000C
8000000C
8000000C
8000000C
8000000C
8000000C
8000000C
8000000C
8000000C
8000000C
8000000C
8000000C
8000000C
8000000C
8000000C
8000000C
8000000C
8000000C
8000000C
8000000C
8000000C
8000000C
8000000C
8000000C
8000000C
8000000C
8000000C
8000000C
8000000C
8000000C
8000000C
8000000C
8000000C
8000000C
8000000C
C0000008
C0000008
C0000008
40000018
40000018
60000010
20000030
30000060
18000060
0C0001C0
07000700
01FFFE00
003FE000
ENDCHAR
STARTCHAR 00DC
ENCODING 220
SWIDTH 645 0
DWIDTH 43 0
BBX 30 59 7 -1
BITMAP
01C00C00
01C01C00
01C01C00
00000000
00000000
00000000
00000000
00000000
00000000
00000000
00000000
8000000C
8000000C
8000000C
8000000C
8000000C
8000000C
8000000C
8000000C
8000000C
8000000C
8000000C
8000000C
8000000C
8000000C
8000000C
8000000C
8000000C
8000000C
8000000C
8000000C
8000000C
8000000C
8000000C
8000000C
8000000C
8000000C
8000000C
8000000C
8000000C
8000000C
8000000C
8000000C
8000000C
8000000C
8000000C
C0000008
C0000008
C0000008
40000018
40000018
60000010
20000030
30000060
18000060
0C0001C0
07000700
01FFFE00
003FE000
ENDCHAR
STARTCHAR 00DD
ENCODING 221
SWIDTH 540 0
DWIDTH 36 0
BBX 34 62 1 0
BITMAP
0000020000
0000060000
0000040000
00000C0000
0000180000
0000300000
0000200000
0000600000
0000C00000
0001800000
0001000000
0000000000
0000000000
0000000000
0000000000
C0000000C0
6000000080
2000000180
3000000100
1000000300
1800000600
0C00000400
0400000C00
0600000800
0200001800
0300003000
0180002000
0080006000
00C0004000
004000C000
0060018000
0030010000
0010030000
0018020000
0008060000
000C0C0000
0006080000
0002180000
0003100000
0001300000
0001E00000
0000C00000
0000C00000
0000C00000
0000C00000
0000C00000
0000C00000
0000C00000
0000C00000
0000C00000
0000C00000
0000C00000
0000C00000
0000C00000
0000C00000
0000C00000
0000C00000
0000C00000
0000C00000
0000C00000
0000C00000
0000C00000
ENDCHAR
STARTCHAR 00DE
ENCODING 222
SWIDTH 585 0
DWIDTH 39 0
BBX 30 47 7 0
BITMAP
C0000000
C0000000
C0000000
C0000000
C0000000
C0000000
C0000000
C0000000
C0000000
C0000000
C0000000
FFFFFC00
C0000780
C00001C0
C0000060
C0000030
C0000010
C0000018
C0000008
C0000008
C0000008
C000000C
C000000C
C000000C
C000000C
C000000C
C0000008
C0000008
C0000018
C0000018
C0000030
C0000030
C0000060
C00001C0
C0001F00
FFFFFC00
C0000000
C0000000
C0000000
C0000000
C0000000
C0000000
C0000000
C0000000
C0000000
C0000000
C0000000
ENDCHAR
STARTCHAR 00DF
ENCODING 223
SWIDTH 645 0
DWIDTH 43 0
BBX 37 51 3 -1
BITMAP
0001FE0000
000F03C000
0018006000
0030003000
0060001800
00C0000C00
0080000400
0180000600
0100000200
0100000200
0300000300
0300000300
0200000300
0200000100
0200000100
0200000100
FE00001F00
FE0003FC00
02000F0000
0200180000
0200300000
0200200000
0200600000
0200400000
0200400000
0200400000
0200400000
0200600000
0200200000
0200300000
02001C0000
02000F0000
020001F000
0200003E00
0200000380
02000000C0
0200000020
0200000030
0200000010
0200000018
0200000018
0200000018
0200000018
0200000018
0206000010
0203000010
0201800030
0200C00060
02007001C0
02001FFF00
000001F800
ENDCHAR
STARTCHAR 00E0
ENCODING 224
SWIDTH 510 0
DWIDTH 34 0
BBX 29 51 4 -1
BITMAP
03000000
01800000
01800000
00C00000
00600000
00200000
00300000
00180000
000C0000
00040000
00000000
00000000
00000000
00000000
00000000
00180000
01FFC000
07007000
0C001800
18000C00
30000400
20000600
60000200
00000200
00000200
00000300
00000300
00000300
00000300
00000300
00000300
00000300
03FFFF00
0E000300
18000300
30000300
60000300
40000300
C0000300
C0000300
C0000300
C0000300
C0000300
C0000300
C0000700
40000F00
60000B00
30003300
1C00E300
07FF81F8
01FC0000
ENDCHAR
STARTCHAR 00E1
ENCODING 225
SWIDTH 510 0
DWIDTH 34 0
BBX 29 51 4 -1
BITMAP
00006000
00006000
0000C000
00018000
00010000
00030000
00060000
000C0000
00080000
00180000
00100000
00000000
00000000
00000000
00000000
00180000
01FFC000
07007000
0C001800
18000C00
30000400
20000600
60000200
00000200
00000200
00000300
00000300
00000300
00000300
00000300
00000300
00000300
03FFFF00
0E000300
18000300
30000300
60000300
40000300
C0000300
C0000300
C0000300
C0000300
C0000300
C0000300
C0000700
40000F00
60000B00
30003300
1C00E300
07FF81F8
01FC0000
ENDCHAR
STARTCHAR 00E2
ENCODING 226
SWIDTH 510 0
DWIDTH 34 0
BBX 29 51 4 -1
BITMAP
000C0000
001C0000
00320000
00610000
00C08000
01804000
03002000
06001000
0C000800
08000400
00000000
00000000
00000000
00000000
00000000
00180000
01FFC000
07007000
0C001800
18000C00
30000400
20000600
60000200
00000200
00000200
00000300
00000300
00000300
00000300
00000300
00000300
00000300
03FFFF00
0E000300
18000300
30000300
60000300
40000300
C0000300
C0000300
C0000300
C0000300
C0000300
C0000300
C0000700
40000F00
60000B00
30003300
1C00E300
07FF81F8
01FC0000
ENDCHAR
STARTCHAR 00E3
ENCODING 227
SWIDTH 510 0
DWIDTH 34 0
BBX 29 48 4 -1
BITMAP
03800000
0EF00000
181C0600
10071C00
0001F000
00000000
00000000
00000000
00000000
00000000
00000000
00000000
00180000
01FFC000
07007000
0C001800
18000C00
30000400
20000600
60000200
00000200
00000200
00000300
00000300
00000300
00000300
00000300
00000300
00000300
03FFFF00
0E000300
18000300
30000300
60000300
40000300
C0000300
C0000300
C0000300
C0000300
C0000300
C0000300
C0000700
40000F00
60000B00
30003300
1C00E300
07FF81F8
01FC0000
ENDCHAR
STARTCHAR 00E4
ENCODING 228
SWIDTH 510 0
DWIDTH 34 0
BBX 29 47 4 -1
BITMAP
07007000
07007000
07007000
00000000
00000000
00000000
00000000
00000000
00000000
00000000
00000000
00180000
01FFC000
07007000
0C001800
18000C00
30000400
20000600
60000200
00000200
00000200
00000300
00000300
00000300
00000300
00000300
00000300
00000300
03FFFF00
0E000300
18000300
30000300
60000300
40000300
C0000300
C0000300
C0000300
C0000300
C0000300
C0000300
C0000700
40000F00
60000B00
30003300
1C00E300
07FF81F8
01FC0000
ENDCHAR
STARTCHAR 00E5
ENCODING 229
SWIDTH 510 0
DWIDTH 34 0
BBX 29 52 4 -1
BITMAP
007F0000
00C18000
0180C000
01004000
01006000
01006000
01006000
01004000
01804000
00C0C000
00778000
001C0000
00000000
00000000
00000000
00000000
00180000
01FFC000
07007000
0C001800
18000C00
30000400
20000600
60000200
00000200
00000200
00000300
00000300
00000300
00000300
00000300
00000300
00000300
03FFFF00
0E000300
18000300
30000300
60000300
40000300
C0000300
C0000300
C0000300
C0000300
C0000300
C0000300
C0000700
40000F00
60000B00
30003300
1C00E300
07FF81F8
01FC0000
ENDCHAR
STARTCHAR 00E6
ENCODING 230
SWIDTH 855 0
DWIDTH 57 0
BBX 49 36 4 -1
BITMAP
00180000180000
03FFC003FF8000
0600700E00E000
1C001818003000
10000830001800
20000C60000C00
60000440000600
40000680000200
00000280000300
00000300000100
00000300000100
00000300000180
00000300000080
00000300000080
00000200000080
00000200000080
00000200000080
03FFFFFFFFFF80
0E000200000000
38000200000000
60000200000000
40000200000000
C0000300000000
80000300000000
80000300000000
80000300000000
80000300000000
80000380000180
80000680000100
C00004C0000300
C0000C60000600
60001830000C00
30003018001800
1800E00E007000
0FDF8003FFC000
01FC00007E0000
ENDCHAR
STARTCHAR 00E7
ENCODING 231
SWIDTH 480 0
DWIDTH 32 0
BBX 26 48 4 -13
BITMAP
00040000
00FFE000
03803800
06000C00
0C000600
18000300
10000180
30000000
20000000
60000000
40000000
40000000
C0000000
C0000000
C0000000
C0000000
C0000000
C0000000
C0000000
C0000000
C0000000
C0000000
C0000000
C0000000
40000000
40000000
60000000
60000000
20000000
300000C0
18000180
0C000300
06000600
03801C00
00FFF000
001F8000
00040000
00040000
00040000
000C0000
000FC000
00002000
00003000
00001000
00001000
00003000
00606000
001FC000
ENDCHAR
STARTCHAR 00E8
ENCODING 232
SWIDTH 525 0
DWIDTH 35 0
BBX 28 51 4 -1
BITMAP
00800000
00C00000
00600000
00600000
00300000
00180000
00080000
00040000
00060000
00030000
00010000
00000000
00000000
00000000
00000000
00000000
00FFE000
03803800
06000C00
0C000600
18000300
10000180
30000080
200000C0
60000040
40000060
40000060
C0000020
C0000020
C0000020
C0000020
C0000030
FFFFFFF0
C0000000
C0000000
C0000000
C0000000
C0000000
C0000000
40000000
40000000
60000000
60000060
20000040
300000C0
18000180
0C000300
06000600
03801C00
00FDF000
001F8000
ENDCHAR
STARTCHAR 00E9
ENCODING 233
SWIDTH 525 0
DWIDTH 35 0
BBX 28 51 4 -1
BITMAP
00001000
00003000
00006000
00004000
0000C000
00018000
00030000
00020000
00060000
000C0000
00080000
00000000
00000000
00000000
00000000
00000000
00FFE000
03803800
06000C00
0C000600
18000300
10000180
30000080
200000C0
60000040
40000060
40000060
C0000020
C0000020
C0000020
C0000020
C0000030
FFFFFFF0
C0000000
C0000000
C0000000
C0000000
C0000000
C0000000
40000000
40000000
60000000
60000060
20000040
300000C0
18000180
0C000300
06000600
03801C00
00FDF000
001F8000
ENDCHAR
STARTCHAR 00EA
ENCODING 234
SWIDTH 525 0
DWIDTH 35 0
BBX 28 51 4 -1
BITMAP
00060000
000F0000
00198000
0030C000
00606000
00C03000
01801800
03000C00
06000400
04000200
00000000
00000000
00000000
00000000
00000000
00000000
00FFE000
03803800
06000C00
0C000600
18000300
10000180
30000080
200000C0
60000040
40000060
40000060
C0000020
C0000020
C0000020
C0000020
C0000030
FFFFFFF0
C0000000
C0000000
C0000000
C0000000
C0000000
C0000000
40000000
40000000
60000000
60000060
20000040
300000C0
18000180
0C000300
06000600
03801C00
00FDF000
001F8000
ENDCHAR
STARTCHAR 00EB
ENCODING 235
SWIDTH 525 0
DWIDTH 35 0
BBX 28 47 4 -1
BITMAP
01801800
03803C00
01801800
00000000
00000000
00000000
00000000
00000000
00000000
00000000
00000000
00000000
00FFE000
03803800
06000C00
0C000600
18000300
10000180
30000080
200000C0
60000040
40000060
40000060
C0000020
C0000020
C0000020
C0000020
C0000030
FFFFFFF0
C0000000
C0000000
C0000000
C0000000
C0000000
C0000000
40000000
40000000
60000000
60000060
20000040
300000C0
18000180
0C000300
06000600
03801C00
00FDF000
001F8000
ENDCHAR
STARTCHAR 00EC
ENCODING 236
SWIDTH 225 0
DWIDTH 15 0
BBX 7 50 2 0
BITMAP
80
C0
40
60
30
10
08
0C
06
02
00
00
00
00
00
00
04
04
04
04
04
04
04
04
04
04
04
04
04
04
04
04
04
04
04
04
04
04
04
04
04
04
04
04
04
04
04
04
04
04
ENDCHAR
STARTCHAR 00ED
ENCODING 237
SWIDTH 225 0
DWIDTH 15 0
BBX 8 50 6 0
BITMAP
03
03
06
0C
08
18
30
60
40
C0
80
00
00
00
00
00
40
40
40
40
40
40
40
40
40
40
40
40
40
40
40
40
40
40
40
40
40
40
40
40
40
40
40
40
40
40
40
40
40
40
ENDCHAR
STARTCHAR 00EE
ENCODING 238
SWIDTH 225 0
DWIDTH 15 0
BBX 18 50 -1 0
BITMAP
00C000
01E000
033000
061000
0C0800
180400
300200
600100
C00080
800040
000000
000000
000000
000000
000000
000000
008000
008000
008000
008000
008000
008000
008000
008000
008000
008000
008000
008000
008000
008000
008000
008000
008000
008000
008000
008000
008000
008000
008000
008000
008000
008000
008000
008000
008000
008000
008000
008000
008000
008000
ENDCHAR
STARTCHAR 00EF
ENCODING 239
SWIDTH 225 0
DWIDTH 15 0
BBX 15 46 0 0
BITMAP
E006
E00E
E00E
0000
0000
0000
0000
0000
0000
0000
0000
0000
0100
0100
0100
0100
0100
0100
0100
0100
0100
0100
0100
0100
0100
0100
0100
0100
0100
0100
0100
0100
0100
0100
0100
0100
0100
0100
0100
0100
0100
0100
0100
0100
0100
0100
ENDCHAR
STARTCHAR 00F0
ENCODING 240
SWIDTH 540 0
DWIDTH 36 0
BBX 28 51 4 -1
BITMAP
00000600
01C00C00
00301800
00186000
000CC000
00030000
00070000
000C8000
00304000
00606000
00803000
01001800
00000800
00000C00
00000600
00000200
00000300
007FE100
01C03980
03000C80
0C000280
08000140
100000C0
300000C0
20000060
60000060
40000020
40000020
C0000030
C0000030
C0000030
C0000030
C0000030
C0000030
C0000030
C0000030
C0000030
C0000030
C0000030
40000020
40000020
60000060
20000040
20000040
10000080
18000180
0C000300
06000600
03801C00
00FFF000
001F8000
ENDCHAR
STARTCHAR 00F1
ENCODING 241
SWIDTH 555 0
DWIDTH 37 0
BBX 24 47 7 0
BITMAP
038000
1CE000
30180C
000E18
0003E0
000000
000000
000000
000000
000000
000000
000000
001800
83FFC0
8600E0
880038
900008
A0000C
C00006
C00006
C00002
800002
800003
800003
800003
800003
800003
800003
800003
800003
800003
800003
800003
800003
800003
800003
800003
800003
800003
800003
800003
800003
800003
800003
800003
800003
800003
ENDCHAR
STARTCHAR 00F2
ENCODING 242
SWIDTH 540 0
DWIDTH 36 0
BBX 28 51 4 -1
BITMAP
00800000
00C00000
00600000
00200000
00300000
00180000
000C0000
00040000
00060000
00030000
00010000
00000000
00000000
00000000
00000000
00040000
00FFF000
03801C00
06000600
0C000300
18000180
10000080
300000C0
20000040
60000060
40000020
40000020
C0000030
C0000030
C0000030
C0000030
C0000030
C0000030
C0000030
C0000030
C0000030
C0000030
C0000030
C0000030
40000020
40000020
60000060
60000060
20000040
300000C0
18000180
0C000300
06000600
03801C00
00FFF000
001F8000
ENDCHAR
STARTCHAR 00F3
ENCODING 243
SWIDTH 540 0
DWIDTH 36 0
BBX 28 51 4 -1
BITMAP
00001000
00003000
00006000
00004000
0000C000
00018000
00010000
00020000
00060000
000C0000
00080000
00000000
00000000
00000000
00000000
00040000
00FFF000
03801C00
06000600
0C000300
18000180
10000080
300000C0
20000040
60000060
40000020
40000020
C0000030
C0000030
C0000030
C0000030
C0000030
C0000030
C0000030
C0000030
C0000030
C0000030
C0000030
C0000030
40000020
40000020
60000060
60000060
20000040
300000C0
18000180
0C000300
06000600
03801C00
00FFF000
001F8000
ENDCHAR
STARTCHAR 00F4
ENCODING 244
SWIDTH 540 0
DWIDTH 36 0
BBX 28 51 4 -1
BITMAP
00060000
000F0000
00198000
0030C000
00606000
00C03000
01801800
03000C00
02000600
04000200
00000000
00000000
00000000
00000000
00000000
00040000
00FFF000
03801C00
06000600
0C000300
18000180
10000080
300000C0
20000040
60000060
40000020
40000020
C0000030
C0000030
C0000030
C0000030
C0000030
C0000030
C0000030
C0000030
C0000030
C0000030
C0000030
C0000030
40000020
40000020
60000060
60000060
20000040
300000C0
18000180
0C000300
06000600
03801C00
00FFF000
001F8000
ENDCHAR
STARTCHAR 00F5
ENCODING 245
SWIDTH 540 0
DWIDTH 36 0
BBX 28 48 4 -1
BITMAP
01E00000
03380000
0C060300
00038600
0000FC00
00000000
00000000
00000000
00000000
00000000
00000000
00000000
00040000
00FFF000
03801C00
06000600
0C000300
18000180
10000080
300000C0
20000040
60000060
40000020
40000020
C0000030
C0000030
C0000030
C0000030
C0000030
C0000030
C0000030
C0000030
C0000030
C0000030
C0000030
C0000030
40000020
40000020
60000060
60000060
20000040
300000C0
18000180
0C000300
06000600
03801C00
00FFF000
001F8000
ENDCHAR
STARTCHAR 00F6
ENCODING 246
SWIDTH 540 0
DWIDTH 36 0
BBX 28 47 4 -1
BITMAP
01801800
03C01C00
01801800
00000000
00000000
00000000
00000000
00000000
00000000
00000000
00000000
00040000
00FFF000
03801C00
06000600
0C000300
18000180
10000080
300000C0
20000040
60000060
40000020
40000020
C0000030
C0000030
C0000030
C0000030
C0000030
C0000030
C0000030
C0000030
C0000030
C0000030
C0000030
C0000030
40000020
40000020
60000060
60000060
20000040
300000C0
18000180
0C000300
06000600
03801C00
00FFF000
001F8000
ENDCHAR
STARTCHAR 00F7
ENCODING 247
SWIDTH 600 0
DWIDTH 40 0
BBX 32 29 4 5
BITMAP
0003C000
0003C000
0003C000
00018000
00000000
00000000
00000000
00000000
00000000
00000000
00000000
00000000
00000000
00000000
FFFFFFFF
00000000
00000000
00000000
00000000
00000000
00000000
00000000
00000000
00000000
00000000
00010000
0003C000
0003C000
0003C000
ENDCHAR
STARTCHAR 00F8
ENCODING 248
SWIDTH 540 0
DWIDTH 36 0
BBX 31 38 3 -2
BITMAP
00000006
0003000C
007FF808
00C00E10
03000330
060001E0
0C0000C0
080000E0
18000120
10000330
30000610
30000C10
20000818
20001018
60002018
60006008
6000C008
60018008
60010008
60020008
60060008
600C0008
60180008
60100018
20200018
20600018
20C00010
31800010
11000030
1A000020
0C000060
0C000040
1E000080
33000380
21C00600
407EF800
C00FE000
80000000
ENDCHAR
STARTCHAR 00F9
ENCODING 249
SWIDTH 555 0
DWIDTH 37 0
BBX 24 51 6 -1
BITMAP
020000
030000
018000
00C000
004000
006000
003000
001000
000800
000C00
000400
000000
000000
000000
000000
000000
C00001
C00001
C00001
C00001
C00001
C00001
C00001
C00001
C00001
C00001
C00001
C00001
C00001
C00001
C00001
C00001
C00001
C00001
C00001
C00001
C00001
C00001
C00001
C00001
C00001
400001
400003
600003
600003
200005
30000D
180019
0E0071
03FFC1
007E00
ENDCHAR
STARTCHAR 00FA
ENCODING 250
SWIDTH 555 0
DWIDTH 37 0
BBX 24 51 6 -1
BITMAP
000040
0000C0
000080
000180
000300
000600
000400
000C00
001800
001000
000000
000000
000000
000000
000000
000000
C00001
C00001
C00001
C00001
C00001
C00001
C00001
C00001
C00001
C00001
C00001
C00001
C00001
C00001
C00001
C00001
C00001
C00001
C00001
C00001
C00001
C00001
C00001
C00001
C00001
400001
400003
600003
600003
200005
30000D
180019
0E0071
03FFC1
007E00
ENDCHAR
STARTCHAR 00FB
ENCODING 251
SWIDTH 555 0
DWIDTH 37 0
BBX 24 51 6 -1
BITMAP
001800
003C00
006600
004300
008180
0100C0
020060
040030
080018
100008
000000
000000
000000
000000
000000
000000
C00001
C00001
C00001
C00001
C00001
C00001
C00001
C00001
C00001
C00001
C00001
C00001
C00001
C00001
C00001
C00001
C00001
C00001
C00001
C00001
C00001
C00001
C00001
C00001
C00001
400001
400003
600003
600003
200005
30000D
180019
0E0071
03FFC1
007E00
ENDCHAR
STARTCHAR 00FC
ENCODING 252
SWIDTH 555 0
DWIDTH 37 0
BBX 24 47 6 -1
BITMAP
060070
070070
070070
000000
000000
000000
000000
000000
000000
000000
000000
000000
C00001
C00001
C00001
C00001
C00001
C00001
C00001
C00001
C00001
C00001
C00001
C00001
C00001
C00001
C00001
C00001
C00001
C00001
C00001
C00001
C00001
C00001
C00001
C00001
C00001
400001
400003
600003
600003
200005
30000D
180019
0E0071
03FFC1
007E00
ENDCHAR
STARTCHAR 00FD
ENCODING 253
SWIDTH 450 0
DWIDTH 30 0
BBX 26 63 2 -13
BITMAP
00002000
00006000
00004000
0000C000
00018000
00030000
00020000
00060000
000C0000
00080000
00000000
00000000
00000000
00000000
00000000
00000000
80000040
C0000040
C00000C0
40000080
60000180
20000180
20000100
30000300
10000200
18000200
18000600
08000400
0C000400
04000C00
04000800
06001800
02001000
03001000
03003000
01002000
01802000
00806000
00804000
00C0C000
00408000
00408000
00618000
00210000
00310000
00130000
00120000
001A0000
000E0000
000C0000
000C0000
00080000
00080000
00180000
00100000
00300000
00300000
00200000
00600000
00400000
00400000
00C00000
3F800000
ENDCHAR
STARTCHAR 00FE
ENCODING 254
SWIDTH 555 0
DWIDTH 37 0
BBX 27 62 7 -13
BITMAP
80000000
80000000
80000000
80000000
80000000
80000000
80000000
80000000
80000000
80000000
80000000
80000000
80000000
80000000
800C0000
81FFC000
87007000
8C001C00
90000600
A0000200
E0000300
C0000180
C0000080
C0000080
800000C0
80000040
80000040
80000040
80000040
80000060
80000060
80000060
80000060
80000060
80000060
80000060
80000040
80000040
80000040
800000C0
800000C0
C0000080
C0000180
C0000100
A0000300
90000600
88000C00
86003800
83F7E000
803F0000
80000000
80000000
80000000
80000000
80000000
80000000
80000000
80000000
80000000
80000000
80000000
80000000
ENDCHAR
STARTCHAR 00FF
ENCODING 255
SWIDTH 450 0
DWIDTH 30 0
BBX 26 59 2 -13
BITMAP
03003800
03803800
03803800
00000000
00000000
00000000
00000000
00000000
00000000
00000000
00000000
00000000
80000040
C0000040
C00000C0
40000080
60000180
20000180
20000100
30000300
10000200
18000200
18000600
08000400
0C000400
04000C00
04000800
06001800
02001000
03001000
03003000
01002000
01802000
00806000
00804000
00C0C000
00408000
00408000
00618000
00210000
00310000
00130000
00120000
001A0000
000E0000
000C0000
000C0000
00080000
00080000
00180000
00100000
00300000
00300000
00200000
00600000
00400000
00400000
00C00000
3F800000
ENDCHAR
STARTCHAR 0100
ENCODING 256
SWIDTH 600 0
DWIDTH 40 0
BBX 36 57 2 0
BITMAP
007FFFE000
0000000000
0000000000
0000000000
0000000000
0000000000
0000000000
0000000000
0000000000
0000000000
0000600000
0000600000
0000F00000
0000900000
0000900000
0001980000
0001080000
00030C0000
00030C0000
0002040000
0006060000
0004060000
0004020000
000C030000
0008010000
0008010000
0018018000
0010008000
003000C000
003000C000
0020004000
0060006000
0060006000
0040002000
00C0003000
0080001000
0080001000
0180001800
0100000800
0300000C00
03FFFFFC00
0200000400
0600000600
0600000600
0400000200
0C00000300
0800000100
0800000100
1800000180
1000000080
30000000C0
30000000C0
2000000040
6000000060
6000000060
4000000020
C000000030
ENDCHAR
STARTCHAR 0101
ENCODING 257
SWIDTH 510 0
DWIDTH 34 0
BBX 29 46 4 -1
BITMAP
0FFFF800
00000000
00000000
00000000
00000000
00000000
00000000
00000000
00000000
00000000
00180000
01FFC000
07007000
0C001800
18000C00
30000400
20000600
60000200
00000200
00000200
00000300
00000300
00000300
00000300
00000300
00000300
00000300
03FFFF00
0E000300
18000300
30000300
60000300
40000300
C0000300
C0000300
C0000300
C0000300
C0000300
C0000300
C0000700
40000F00
60000B00
30003300
1C00E300
07FF81F8
01FC0000
ENDCHAR
STARTCHAR 0102
ENCODING 258
SWIDTH 600 0
DWIDTH 40 0
BBX 36 60 2 1
BITMAP
0020004000
0020004000
0010008000
0018018000
000C030000
0006060000
0003FC0000
0000E00000
0000000000
0000000000
0000000000
0000000000
0000000000
0000600000
0000600000
0000F00000
0000900000
0000900000
0001980000
0001080000
00030C0000
00030C0000
0002040000
0006060000
0004060000
0004020000
000C030000
0008010000
0008010000
0018018000
0010008000
003000C000
003000C000
0020004000
0060006000
0060006000
0040002000
00C0003000
0080001000
0080001000
0180001800
0100000800
0300000C00
03FFFFFC00
0200000400
0600000600
0600000600
0400000200
0C00000300
0800000100
0800000100
1800000180
1000000080
30000000C0
30000000C0
2000000040
6000000060
6000000060
4000000020
C000000030
ENDCHAR
STARTCHAR 0103
ENCODING 259
SWIDTH 510 0
DWIDTH 34 0
BBX 29 50 4 -1
BITMAP
00000800
0C000800
04001800
06001000
02002000
01006000
0180C000
007F8000
001C0000
00000000
00000000
00000000
00000000
00000000
00180000
01FFC000
07007000
0C001800
18000C00
30000400
20000600
60000200
00000200
00000200
00000300
00000300
00000300
00000300
00000300
00000300
00000300
03FFFF00
0E000300
18000300
30000300
60000300
40000300
C0000300
C0000300
C0000300
C0000300
C0000300
C0000300
C0000700
40000F00
60000B00
30003300
1C00E300
07FF81F8
01FC0000
ENDCHAR
STARTCHAR 0104
ENCODING 260
SWIDTH 600 0
DWIDTH 40 0
BBX 37 60 2 -13
BITMAP
0000600000
0000600000
0000F00000
0000900000
0000900000
0001980000
0001080000
00030C0000
00030C0000
0002040000
0006060000
0004020000
0004020000
000C030000
0008010000
0008010000
0018018000
0010008000
003000C000
003000C000
0020004000
0060006000
0060006000
0040002000
00C0003000
0080001000
0080001000
0180001800
0100000800
0300000C00
03FFFFFC00
0200000400
0600000600
0600000600
0400000200
0C00000300
0800000100
0800000100
1800000180
1000000080
30000000C0
30000000C0
2000000040
6000000060
6000000060
4000000020
C000000030
0000000060
00000000C0
0000000100
0000000200
0000000400
0000000C00
0000000800
0000001800
0000001800
0000001800
0000001800
0000000C18
00000007F0
ENDCHAR
STARTCHAR 0105
ENCODING 261
SWIDTH 510 0
DWIDTH 34 0
BBX 30 48 4 -13
BITMAP
001C0000
01FFC000
07007000
0C001800
18000C00
30000400
20000600
60000200
00000200
00000200
00000300
00000300
00000300
00000300
00000300
00000300
00000300
03FFFF00
0E000300
18000300
30000300
60000300
40000300
C0000300
C0000300
C0000300
C0000300
C0000300
C0000300
C0000700
40000F00
60000B00
30003300
1C00E300
07FF81F8
01FC0010
00000060
000000C0
00000100
00000200
00000400
00000C00
00000800
00000800
00000800
00000C00
0000040C
000003F8
ENDCHAR
STARTCHAR 0106
ENCODING 262
SWIDTH 600 0
DWIDTH 40 0
BBX 31 63 5 -1
BITMAP
00000200
00000600
00000C00
00000800
00001800
00003000
00006000
00004000
0000C000
00018000
00010000
00000000
00000000
00000000
00000000
001FFC00
00780780
01C001C0
03000060
06000030
0C000018
0800000C
18000004
30000006
20000002
20000000
60000000
40000000
40000000
C0000000
C0000000
C0000000
C0000000
80000000
80000000
80000000
80000000
80000000
80000000
80000000
80000000
80000000
80000000
80000000
80000000
C0000000
C0000000
C0000000
40000000
40000000
60000000
60000000
20000002
30000002
10000006
18000004
0C00000C
06000018
03000030
01800060
00E00180
003FFF00
0003F000
ENDCHAR
STARTCHAR 0107
ENCODING 263
SWIDTH 480 0
DWIDTH 32 0
BBX 26 51 4 -1
BITMAP
00001000
00003000
00006000
00004000
0000C000
00018000
00010000
00020000
00060000
000C0000
00080000
00000000
00000000
00000000
00000000
00040000
00FFE000
03803800
06000C00
0C000600
18000300
10000180
30000000
20000000
60000000
40000000
40000000
C0000000
C0000000
C0000000
C0000000
C0000000
C0000000
C0000000
C0000000
C0000000
C0000000
C0000000
C0000000
40000000
40000000
60000000
60000000
20000000
300000C0
18000180
0C000300
06000600
03801C00
00FFF000
001F8000
ENDCHAR
STARTCHAR 0108
ENCODING 264
SWIDTH 600 0
DWIDTH 40 0
BBX 31 63 5 -1
BITMAP
0000C000
0001E000
00033000
00061800
000C0C00
00180600
00300300
00600180
00C00080
00800040
00000000
00000000
00000000
00000000
00000000
001FFC00
00780780
01C001C0
03000060
06000030
0C000018
0800000C
18000004
30000006
20000002
20000000
60000000
40000000
40000000
C0000000
C0000000
C0000000
C0000000
80000000
80000000
80000000
80000000
80000000
80000000
80000000
80000000
80000000
80000000
80000000
80000000
C0000000
C0000000
C0000000
40000000
40000000
60000000
60000000
20000002
30000002
10000006
18000004
0C00000C
06000018
03000030
01800060
00E00180
003FFF00
0003F000
ENDCHAR
STARTCHAR 0109
ENCODING 265
SWIDTH 480 0
DWIDTH 32 0
BBX 26 51 4 -1
BITMAP
00060000
000F0000
00198000
0030C000
00606000
00C03000
01801800
03000C00
02000600
04000200
00000000
00000000
00000000
00000000
00000000
00040000
00FFE000
03803800
06000C00
0C000600
18000300
10000180
30000000
20000000
60000000
40000000
40000000
C0000000
C0000000
C0000000
C0000000
C0000000
C0000000
C0000000
C0000000
C0000000
C0000000
C0000000
C0000000
40000000
40000000
60000000
60000000
20000000
300000C0
18000180
0C000300
06000600
03801C00
00FFF000
001F8000
ENDCHAR
STARTCHAR 010A
ENCODING 266
SWIDTH 600 0
DWIDTH 40 0
BBX 31 59 5 -1
BITMAP
0000C000
0001C000
0000C000
00000000
00000000
00000000
00000000
00000000
00000000
00000000
00000000
001FFC00
00780780
01C001C0
03000060
06000030
0C000018
0800000C
18000004
30000006
20000002
20000000
60000000
40000000
40000000
C0000000
C0000000
C0000000
C0000000
80000000
80000000
80000000
80000000
80000000
80000000
80000000
80000000
80000000
80000000
80000000
80000000
C0000000
C0000000
C0000000
40000000
40000000
60000000
60000000
20000002
30000002
10000006
18000004
0C00000C
06000018
03000030
01800060
00E00180
003FFF00
0003F000
ENDCHAR
STARTCHAR 010B
ENCODING 267
SWIDTH 480 0
DWIDTH 32 0
BBX 26 47 4 -1
BITMAP
00060000
00070000
00060000
00000000
00000000
00000000
00000000
00000000
00000000
00000000
00000000
00040000
00FFE000
03803800
06000C00
0C000600
18000300
10000180
30000000
20000000
60000000
40000000
40000000
C0000000
C0000000
C0000000
C0000000
C0000000
C0000000
C0000000
C0000000
C0000000
C0000000
C0000000
C0000000
40000000
40000000
60000000
60000000
20000000
300000C0
18000180
0C000300
06000600
03801C00
00FFF000
001F8000
ENDCHAR
STARTCHAR 010C
ENCODING 268
SWIDTH 600 0
DWIDTH 40 0
BBX 31 63 5 -1
BITMAP
00800040
00C000C0
00600180
00300300
00180600
000C0C00
00061800
00033000
0001E000
0000C000
00000000
00000000
00000000
00000000
00000000
001FFC00
00780780
01C001C0
03000060
06000030
0C000018
0800000C
18000004
30000006
20000002
20000000
60000000
40000000
40000000
C0000000
C0000000
C0000000
C0000000
80000000
80000000
80000000
80000000
80000000
80000000
80000000
80000000
80000000
80000000
80000000
80000000
C0000000
C0000000
C0000000
40000000
40000000
60000000
60000000
20000002
30000002
10000006
18000004
0C00000C
06000018
03000030
01800060
00E00180
003FFF00
0003F000
ENDCHAR
STARTCHAR 010D
ENCODING 269
SWIDTH 480 0
DWIDTH 32 0
BBX 26 51 4 -1
BITMAP
04000200
06000600
03000C00
01801800
00C03000
00606000
0030C000
00198000
000F0000
00060000
00000000
00000000
00000000
00000000
00000000
00040000
00FFE000
03803800
06000C00
0C000600
18000300
10000180
30000000
20000000
60000000
40000000
40000000
C0000000
C0000000
C0000000
C0000000
C0000000
C0000000
C0000000
C0000000
C0000000
C0000000
C0000000
C0000000
40000000
40000000
60000000
60000000
20000000
300000C0
18000180
0C000300
06000600
03801C00
00FFF000
001F8000
ENDCHAR
STARTCHAR 010E
ENCODING 270
SWIDTH 645 0
DWIDTH 43 0
BBX 32 62 7 0
BITMAP
08000400
0C000C00
06001800
03003000
01806000
00C0C000
00618000
00330000
001E0000
000C0000
00000000
00000000
00000000
00000000
00000000
FFFC0000
FFFFF800
C0001E00
C0000380
C00000C0
C0000060
C0000030
C0000018
C0000018
C000000C
C000000C
C0000004
C0000006
C0000002
C0000002
C0000002
C0000003
C0000003
C0000003
C0000001
C0000001
C0000001
C0000001
C0000001
C0000001
C0000001
C0000001
C0000001
C0000003
C0000003
C0000003
C0000003
C0000002
C0000002
C0000006
C0000006
C0000004
C000000C
C0000008
C0000018
C0000030
C0000060
C00000C0
C0000180
C0000700
C000FC00
FFFFE000
ENDCHAR
STARTCHAR 010F
ENCODING 271
SWIDTH 555 0
DWIDTH 37 0
BBX 35 50 4 -1
BITMAP
0000006020
0000006060
0000006060
0000006060
0000006060
0000006040
0000006040
0000006040
0000006040
0000006040
0000006040
0000006000
0000006000
0000006000
0006006000
00FFF06000
03801C6000
0600066000
0C00036000
180001E000
100000E000
3000006000
2000006000
6000006000
4000006000
4000006000
C000006000
C000006000
C000006000
C000006000
C000006000
C000006000
C000006000
C000006000
C000006000
C000006000
C000006000
C000006000
4000006000
4000006000
6000006000
6000006000
2000006000
300000E000
180001E000
0C00036000
0600066000
03801C6000
00FDF06000
001F800000
ENDCHAR
STARTCHAR 0110
ENCODING 272
SWIDTH 660 0
DWIDTH 44 0
BBX 37 47 2 0
BITMAP
07FFE00000
07FFFFC000
060000F000
0600001C00
0600000600
0600000300
0600000180
06000000C0
0600000040
0600000060
0600000020
0600000030
0600000030
0600000010
0600000010
0600000018
0600000018
0600000008
0600000008
0600000008
0600000008
0600000008
FFFFC00008
0600000008
0600000008
0600000008
0600000008
0600000008
0600000008
0600000008
0600000018
0600000018
0600000018
0600000010
0600000010
0600000030
0600000020
0600000060
0600000060
06000000C0
0600000080
0600000180
0600000700
0600000E00
0600003800
060007E000
07FFFF0000
ENDCHAR
STARTCHAR 0111
ENCODING 273
SWIDTH 555 0
DWIDTH 37 0
BBX 31 50 4 -1
BITMAP
00000060
00000060
00000060
00000060
00000060
00000060
0003FFFE
00000060
00000060
00000060
00000060
00000060
00000060
00000060
00060060
00FFF060
03801C60
06000660
0C000360
180001E0
100000E0
30000060
20000060
60000060
40000060
40000060
C0000060
C0000060
C0000060
C0000060
C0000060
C0000060
C0000060
C0000060
C0000060
C0000060
C0000060
C0000060
40000060
40000060
60000060
60000060
20000060
300000E0
180001E0
0C000360
06000660
03801C60
00FDF060
001F8000
ENDCHAR
STARTCHAR 0112
ENCODING 274
SWIDTH 555 0
DWIDTH 37 0
BBX 26 57 7 0
BITMAP
0FFFFC00
00000000
00000000
00000000
00000000
00000000
00000000
00000000
00000000
00000000
FFFFFFC0
FFFFFFC0
C0000000
C0000000
C0000000
C0000000
C0000000
C0000000
C0000000
C0000000
C0000000
C0000000
C0000000
C0000000
C0000000
C0000000
C0000000
C0000000
C0000000
C0000000
C0000000
C0000000
C0000000
FFFFFF80
C0000000
C0000000
C0000000
C0000000
C0000000
C0000000
C0000000
C0000000
C0000000
C0000000
C0000000
C0000000
C0000000
C0000000
C0000000
C0000000
C0000000
C0000000
C0000000
C0000000
C0000000
C0000000
FFFFFFC0
ENDCHAR
STARTCHAR 0113
ENCODING 275
SWIDTH 525 0
DWIDTH 35 0
BBX 28 46 4 -1
BITMAP
07FFFE00
00000000
00000000
00000000
00000000
00000000
00000000
00000000
00000000
00000000
00000000
00FFE000
03803800
06000C00
0C000600
18000300
10000180
30000080
200000C0
60000040
40000060
40000060
C0000020
C0000020
C0000020
C0000020
C0000030
FFFFFFF0
C0000000
C0000000
C0000000
C0000000
C0000000
C0000000
40000000
40000000
60000000
60000060
20000040
300000C0
18000180
0C000300
06000600
03801C00
00FDF000
001F8000
ENDCHAR
STARTCHAR 0114
ENCODING 276
SWIDTH 555 0
DWIDTH 37 0
BBX 26 60 7 1
BITMAP
04000800
04000800
02001000
03003000
01806000
00C0C000
007F8000
001C0000
00000000
00000000
00000000
00000000
00000000
FFFFFFC0
FFFFFFC0
C0000000
C0000000
C0000000
C0000000
C0000000
C0000000
C0000000
C0000000
C0000000
C0000000
C0000000
C0000000
C0000000
C0000000
C0000000
C0000000
C0000000
C0000000
C0000000
C0000000
C0000000
FFFFFF80
C0000000
C0000000
C0000000
C0000000
C0000000
C0000000
C0000000
C0000000
C0000000
C0000000
C0000000
C0000000
C0000000
C0000000
C0000000
C0000000
C0000000
C0000000
C0000000
C0000000
C0000000
C0000000
FFFFFFC0
ENDCHAR
STARTCHAR 0115
ENCODING 277
SWIDTH 525 0
DWIDTH 35 0
BBX 28 49 4 0
BITMAP
06000400
02000C00
01000800
01801800
00C03000
00606000
003FC000
000E0000
00000000
00000000
00000000
00000000
00000000
00000000
00FFE000
03803800
06000C00
0C000600
18000300
10000180
30000080
200000C0
60000040
40000060
40000060
C0000020
C0000020
C0000020
C0000020
C0000030
FFFFFFF0
C0000000
C0000000
C0000000
C0000000
C0000000
C0000000
40000000
40000000
60000000
60000060
20000040
300000C0
18000180
0C000300
06000600
03801C00
00FDF000
001F8000
ENDCHAR
STARTCHAR 0116
ENCODING 278
SWIDTH 555 0
DWIDTH 37 0
BBX 26 58 7 0
BITMAP
000C0000
001E0000
000C0000
00000000
00000000
00000000
00000000
00000000
00000000
00000000
00000000
FFFFFFC0
FFFFFFC0
C0000000
C0000000
C0000000
C0000000
C0000000
C0000000
C0000000
C0000000
C0000000
C0000000
C0000000
C0000000
C0000000
C0000000
C0000000
C0000000
C0000000
C0000000
C0000000
C0000000
C0000000
FFFFFF80
C0000000
C0000000
C0000000
C0000000
C0000000
C0000000
C0000000
C0000000
C0000000
C0000000
C0000000
C0000000
C0000000
C0000000
C0000000
C0000000
C0000000
C0000000
C0000000
C0000000
C0000000
C0000000
FFFFFFC0
ENDCHAR
STARTCHAR 0117
ENCODING 279
SWIDTH 525 0
DWIDTH 35 0
BBX 28 47 4 -1
BITMAP
00060000
000E0000
00060000
00000000
00000000
00000000
00000000
00000000
00000000
00000000
00000000
00000000
00FFE000
03803800
06000C00
0C000600
18000300
10000180
30000080
200000C0
60000040
40000060
40000060
C0000020
C0000020
C0000020
C0000020
C0000030
FFFFFFF0
C0000000
C0000000
C0000000
C0000000
C0000000
C0000000
40000000
40000000
60000000
60000060
20000040
300000C0
18000180
0C000300
06000600
03801C00
00FDF000
001F8000
ENDCHAR
STARTCHAR 0118
ENCODING 280
SWIDTH 555 0
DWIDTH 37 0
BBX 26 60 7 -13
BITMAP
FFFFFFC0
FFFFFFC0
C0000000
C0000000
C0000000
C0000000
C0000000
C0000000
C0000000
C0000000
C0000000
C0000000
C0000000
C0000000
C0000000
C0000000
C0000000
C0000000
C0000000
C0000000
C0000000
C0000000
C0000000
FFFFFF80
C0000000
C0000000
C0000000
C0000000
C0000000
C0000000
C0000000
C0000000
C0000000
C0000000
C0000000
C0000000
C0000000
C0000000
C0000000
C0000000
C0000000
C0000000
C0000000
C0000000
C0000000
C0000000
FFFFFFC0
00000180
00000200
00000C00
00001800
00003000
00006000
00004000
0000C000
0000C000
0000C000
0000C000
000060C0
00003F80
ENDCHAR
STARTCHAR 0119
ENCODING 281
SWIDTH 525 0
DWIDTH 35 0
BBX 28 47 4 -12
BITMAP
00FFE000
03803800
06000C00
0C000600
18000300
10000180
30000080
200000C0
60000040
40000060
40000060
C0000020
C0000020
C0000020
C0000020
C0000030
FFFFFFF0
C0000000
C0000000
C0000000
C0000000
C0000000
C0000000
40000000
40000000
60000000
60000060
20000040
300000C0
18000180
0C000300
06000600
03801C00
00FDF000
001FA000
0000C000
00010000
00020000
00040000
000C0000
00080000
00080000
00080000
00080000
00080000
000C0C00
0007F800
ENDCHAR
STARTCHAR 011A
ENCODING 282
SWIDTH 555 0
DWIDTH 37 0
BBX 26 62 7 0
BITMAP
08000400
0C000C00
06001800
03003000
01806000
00C0C000
00618000
00330000
001E0000
000C0000
00000000
00000000
00000000
00000000
00000000
FFFFFFC0
FFFFFFC0
C0000000
C0000000
C0000000
C0000000
C0000000
C0000000
C0000000
C0000000
C0000000
C0000000
C0000000
C0000000
C0000000
C0000000
C0000000
C0000000
C0000000
C0000000
C0000000
C0000000
C0000000
FFFFFF80
C0000000
C0000000
C0000000
C0000000
C0000000
C0000000
C0000000
C0000000
C0000000
C0000000
C0000000
C0000000
C0000000
C0000000
C0000000
C0000000
C0000000
C0000000
C0000000
C0000000
C0000000
C0000000
FFFFFFC0
ENDCHAR
STARTCHAR 011B
ENCODING 283
SWIDTH 525 0
DWIDTH 35 0
BBX 28 51 4 -1
BITMAP
04000200
06000600
03000C00
01801800
00C03000
00606000
0030C000
00198000
000F0000
00060000
00000000
00000000
00000000
00000000
00000000
00000000
00FFE000
03803800
06000C00
0C000600
18000300
10000180
30000080
200000C0
60000040
40000060
40000060
C0000020
C0000020
C0000020
C0000020
C0000030
FFFFFFF0
C0000000
C0000000
C0000000
C0000000
C0000000
C0000000
40000000
40000000
60000000
60000060
20000040
300000C0
18000180
0C000300
06000600
03801C00
00FDF000
001F8000
ENDCHAR
STARTCHAR 011C
ENCODING 284
SWIDTH 660 0
DWIDTH 44 0
BBX 34 63 5 -1
BITMAP
0000600000
0000E00000
0001900000
0003080000
0006040000
000C020000
0018010000
0030008000
0060004000
0040002000
0000000000
0000000000
0000000000
0000000000
0000000000
000FFE0000
007803C000
00E0006000
0380003800
0600000C00
0C00000600
0C00000200
1800000300
1000000180
3000000000
2000000000
6000000000
4000000000
4000000000
4000000000
C000000000
C000000000
C000000000
8000000000
8000000000
8000000000
8000000000
8000000000
8000000000
8000000000
800007FFC0
8000000040
8000000040
8000000040
8000000040
C000000040
C000000040
C000000040
4000000040
4000000040
60000000C0
60000000C0
20000000C0
30000000C0
1000000140
1800000140
0C00000240
0600000440
0300000C40
01C0003040
00F000E040
003FFF8040
0003F80000
ENDCHAR
STARTCHAR 011D
ENCODING 285
SWIDTH 525 0
DWIDTH 35 0
BBX 30 64 3 -14
BITMAP
00030000
00070000
000C8000
00184000
00302000
00601000
00C00800
01800400
03000200
02000100
00000000
00000000
00000000
00000000
00000000
00020000
007FFFFC
01C01FFC
03000600
06000300
04000100
08000080
08000080
180000C0
180000C0
180000C0
180000C0
180000C0
180000C0
180000C0
180000C0
08000080
0C000180
06000100
03000200
01800C00
00F07800
00FFC000
03000000
04000000
08000000
08000000
18000000
18000000
08000000
0C000000
07FFF000
01FFFFC0
06000070
18000018
30000008
6000000C
40000004
C0000004
C0000004
C0000004
C0000004
4000000C
60000008
60000018
30000030
1C0000E0
07800F80
00FFF800
ENDCHAR
STARTCHAR 011E
ENCODING 286
SWIDTH 660 0
DWIDTH 44 0
BBX 34 62 5 -1
BITMAP
0000004000
0060004000
002000C000
0030008000
0010010000
0008030000
000C060000
0003FC0000
0000E00000
0000000000
0000000000
0000000000
0000000000
0000000000
000FFE0000
007803C000
00E0006000
0380003800
0600000C00
0C00000600
0C00000200
1800000300
1000000180
3000000000
2000000000
6000000000
4000000000
4000000000
4000000000
C000000000
C000000000
C000000000
8000000000
8000000000
8000000000
8000000000
8000000000
8000000000
8000000000
800007FFC0
8000000040
8000000040
8000000040
8000000040
C000000040
C000000040
C000000040
4000000040
4000000040
60000000C0
60000000C0
20000000C0
30000000C0
1000000140
1800000140
0C00000240
0600000440
0300000C40
01C0003040
00F000E040
003FFF8040
0003F80000
ENDCHAR
STARTCHAR 011F
ENCODING 287
SWIDTH 525 0
DWIDTH 35 0
BBX 30 63 3 -14
BITMAP
00000200
03000200
01000600
01800400
00800800
00401800
00603000
001FE000
00070000
00000000
00000000
00000000
00000000
00000000
00020000
007FFFFC
01C01FFC
03000600
06000300
04000100
08000080
08000080
180000C0
180000C0
180000C0
180000C0
180000C0
180000C0
180000C0
180000C0
08000080
0C000180
06000100
03000200
01800C00
00F07800
00FFC000
03000000
04000000
08000000
08000000
18000000
18000000
08000000
0C000000
07FFF000
01FFFFC0
06000070
18000018
30000008
6000000C
40000004
C0000004
C0000004
C0000004
C0000004
4000000C
60000008
60000018
30000030
1C0000E0
07800F80
00FFF800
ENDCHAR
STARTCHAR 0120
ENCODING 288
SWIDTH 660 0
DWIDTH 44 0
BBX 34 59 5 -1
BITMAP
0000E00000
0000E00000
0000E00000
0000000000
0000000000
0000000000
0000000000
0000000000
0000000000
0000000000
0000000000
000FFE0000
007803C000
00E0006000
0380003800
0600000C00
0C00000600
0C00000200
1800000300
1000000180
3000000000
2000000000
6000000000
4000000000
4000000000
4000000000
C000000000
C000000000
C000000000
8000000000
8000000000
8000000000
8000000000
8000000000
8000000000
8000000000
800007FFC0
8000000040
8000000040
8000000040
8000000040
C000000040
C000000040
C000000040
4000000040
4000000040
60000000C0
60000000C0
20000000C0
30000000C0
1000000140
1800000140
0C00000240
0600000440
0300000C40
01C0003040
00F000E040
003FFF8040
0003F80000
ENDCHAR
STARTCHAR 0121
ENCODING 289
SWIDTH 525 0
DWIDTH 35 0
BBX 30 60 3 -14
BITMAP
00070000
00070000
00070000
00000000
00000000
00000000
00000000
00000000
00000000
00000000
00000000
00020000
007FFFFC
01C01FFC
03000600
06000300
04000100
08000080
08000080
180000C0
180000C0
180000C0
180000C0
180000C0
180000C0
180000C0
180000C0
08000080
0C000180
06000100
03000200
01800C00
00F07800
00FFC000
03000000
04000000
08000000
08000000
18000000
18000000
08000000
0C000000
07FFF000
01FFFFC0
06000070
18000018
30000008
6000000C
40000004
C0000004
C0000004
C0000004
C0000004
4000000C
60000008
60000018
30000030
1C0000E0
07800F80
00FFF800
ENDCHAR
STARTCHAR 0122
ENCODING 290
SWIDTH 660 0
DWIDTH 44 0
BBX 34 61 5 -14
BITMAP
000FFE0000
007803C000
00E0006000
0380003800
0600000C00
0C00000600
0C00000200
1800000300
1000000180
3000000000
2000000000
6000000000
4000000000
4000000000
4000000000
C000000000
C000000000
C000000000
8000000000
8000000000
8000000000
8000000000
8000000000
8000000000
8000000000
800007FFC0
8000000040
8000000040
8000000040
8000000040
C000000040
C000000040
C000000040
4000000040
4000000040
60000000C0
60000000C0
20000000C0
30000000C0
1000000140
1800000140
0C00000240
0600000440
0300000C40
01C0003040
00F000E040
003FFF8040
0003F80000
0000000000
0000000000
0000000000
0000400000
0000E00000
0000E00000
0000600000
0000200000
0000200000
0000400000
0000400000
0000800000
0001800000
ENDCHAR
STARTCHAR 0123
ENCODING 291
SWIDTH 525 0
DWIDTH 35 0
BBX 30 64 3 -14
BITMAP
00008000
00010000
00010000
00020000
00020000
00060000
00040000
00070000
00070000
00070000
00000000
00000000
00000000
00000000
00000000
00020000
007FFFFC
01C01FFC
03000600
06000300
04000100
08000080
08000080
180000C0
180000C0
180000C0
180000C0
180000C0
180000C0
180000C0
180000C0
08000080
0C000180
06000100
03000200
01800C00
00F07800
00FFC000
03000000
04000000
08000000
08000000
18000000
18000000
08000000
0C000000
07FFF000
01FFFFC0
06000070
18000018
30000008
6000000C
40000004
C0000004
C0000004
C0000004
C0000004
4000000C
60000008
60000018
30000030
1C0000E0
07800F80
00FFF800
ENDCHAR
STARTCHAR 0124
ENCODING 292
SWIDTH 690 0
DWIDTH 46 0
BBX 32 62 7 0
BITMAP
00018000
0003C000
00066000
000C3000
00181800
00300C00
00600600
00C00300
00800180
01000080
00000000
00000000
00000000
00000000
00000000
C0000003
C0000003
C0000003
C0000003
C0000003
C0000003
C0000003
C0000003
C0000003
C0000003
C0000003
C0000003
C0000003
C0000003
C0000003
C0000003
C0000003
C0000003
C0000003
C0000003
C0000003
C0000003
C0000003
FFFFFFFF
C0000003
C0000003
C0000003
C0000003
C0000003
C0000003
C0000003
C0000003
C0000003
C0000003
C0000003
C0000003
C0000003
C0000003
C0000003
C0000003
C0000003
C0000003
C0000003
C0000003
C0000003
C0000003
C0000003
ENDCHAR
STARTCHAR 0125
ENCODING 293
SWIDTH 555 0
DWIDTH 37 0
BBX 32 60 -1 0
BITMAP
01C00000
03600000
06300000
0C180000
080C0000
10060000
20030000
40018000
8000C000
00000000
00000000
00800000
00800000
00800000
00800000
00800000
00800000
00800000
00800000
00800000
00800000
00800000
00800000
00800000
00800000
00801800
0083FFC0
008600E0
00880038
00900008
00A0000C
00C00006
00C00006
00C00002
00800002
00800003
00800003
00800003
00800003
00800003
00800003
00800003
00800003
00800003
00800003
00800003
00800003
00800003
00800003
00800003
00800003
00800003
00800003
00800003
00800003
00800003
00800003
00800003
00800003
00800003
ENDCHAR
STARTCHAR 0126
ENCODING 294
SWIDTH 690 0
DWIDTH 46 0
BBX 43 47 2 0
BITMAP
060000000800
060000000800
060000000800
060000000800
060000000800
060000000800
060000000800
060000000800
060000000800
060000000800
FFFFFFFFFFE0
060000000800
060000000800
060000000800
060000000800
060000000800
060000000800
060000000800
060000000800
060000000800
060000000800
060000000800
060000000800
07FFFFFFF800
060000000800
060000000800
060000000800
060000000800
060000000800
060000000800
060000000800
060000000800
060000000800
060000000800
060000000800
060000000800
060000000800
060000000800
060000000800
060000000800
060000000800
060000000800
060000000800
060000000800
060000000800
060000000800
060000000800
ENDCHAR
STARTCHAR 0127
ENCODING 295
SWIDTH 555 0
DWIDTH 37 0
BBX 28 49 3 0
BITMAP
0C000000
0C000000
0C000000
0C000000
0C000000
0C000000
FFFF0000
0C000000
0C000000
0C000000
0C000000
0C000000
0C000000
0C000000
0C018000
0C1FFC00
0C700700
0C800180
0D0000C0
0E000040
0E000060
0C000020
0C000020
0C000030
0C000030
0C000030
0C000010
0C000010
0C000010
0C000010
0C000010
0C000010
0C000010
0C000010
0C000010
0C000010
0C000010
0C000010
0C000010
0C000010
0C000010
0C000010
0C000010
0C000010
0C000010
0C000010
0C000010
0C000010
0C000010
ENDCHAR
STARTCHAR 0128
ENCODING 296
SWIDTH 360 0
DWIDTH 24 0
BBX 19 59 3 0
BITMAP
1E0000
778000
80C020
0030C0
001F80
000000
000000
000000
000000
000000
000000
000000
3FFF80
3FFF80
004000
004000
004000
004000
004000
004000
004000
004000
004000
004000
004000
004000
004000
004000
004000
004000
004000
004000
004000
004000
004000
004000
004000
004000
004000
004000
004000
004000
004000
004000
004000
004000
004000
004000
004000
004000
004000
004000
004000
004000
004000
004000
004000
004000
3FFF80
ENDCHAR
STARTCHAR 0129
ENCODING 297
SWIDTH 225 0
DWIDTH 15 0
BBX 20 47 -2 0
BITMAP
1E0000
778000
C0E030
003860
000F80
000000
000000
000000
000000
000000
000000
000000
000000
004000
004000
004000
004000
004000
004000
004000
004000
004000
004000
004000
004000
004000
004000
004000
004000
004000
004000
004000
004000
004000
004000
004000
004000
004000
004000
004000
004000
004000
004000
004000
004000
004000
004000
ENDCHAR
STARTCHAR 012A
ENCODING 298
SWIDTH 360 0
DWIDTH 24 0
BBX 17 57 4 0
BITMAP
FFFF80
000000
000000
000000
000000
000000
000000
000000
000000
000000
7FFF00
7FFF00
008000
008000
008000
008000
008000
008000
008000
008000
008000
008000
008000
008000
008000
008000
008000
008000
008000
008000
008000
008000
008000
008000
008000
008000
008000
008000
008000
008000
008000
008000
008000
008000
008000
008000
008000
008000
008000
008000
008000
008000
008000
008000
008000
008000
7FFF00
ENDCHAR
STARTCHAR 012B
ENCODING 299
SWIDTH 225 0
DWIDTH 15 0
BBX 17 45 -1 0
BITMAP
FFFF80
000000
000000
000000
000000
000000
000000
000000
000000
000000
000000
008000
008000
008000
008000
008000
008000
008000
008000
008000
008000
008000
008000
008000
008000
008000
008000
008000
008000
008000
008000
008000
008000
008000
008000
008000
008000
008000
008000
008000
008000
008000
008000
008000
008000
ENDCHAR
STARTCHAR 012C
ENCODING 300
SWIDTH 360 0
DWIDTH 24 0
BBX 17 61 4 0
BITMAP
800080
800180
400100
400300
200200
300600
180C00
0FF000
018000
000000
000000
000000
000000
000000
7FFF00
7FFF00
008000
008000
008000
008000
008000
008000
008000
008000
008000
008000
008000
008000
008000
008000
008000
008000
008000
008000
008000
008000
008000
008000
008000
008000
008000
008000
008000
008000
008000
008000
008000
008000
008000
008000
008000
008000
008000
008000
008000
008000
008000
008000
008000
008000
7FFF00
ENDCHAR
STARTCHAR 012D
ENCODING 301
SWIDTH 225 0
DWIDTH 15 0
BBX 17 49 -1 0
BITMAP
000080
C00080
400180
600100
200300
100600
1C0C00
07F800
00C000
000000
000000
000000
000000
000000
000000
008000
008000
008000
008000
008000
008000
008000
008000
008000
008000
008000
008000
008000
008000
008000
008000
008000
008000
008000
008000
008000
008000
008000
008000
008000
008000
008000
008000
008000
008000
008000
008000
008000
008000
ENDCHAR
STARTCHAR 012E
ENCODING 302
SWIDTH 360 0
DWIDTH 24 0
BBX 16 60 5 -13
BITMAP
FFFE
FFFE
0100
0100
0100
0100
0100
0100
0100
0100
0100
0100
0100
0100
0100
0100
0100
0100
0100
0100
0100
0100
0100
0100
0100
0100
0100
0100
0100
0100
0100
0100
0100
0100
0100
0100
0100
0100
0100
0100
0100
0100
0100
0100
0100
0100
FFFE
0004
0018
0030
0040
0080
0100
0100
0200
0200
0200
0300
0103
00FE
ENDCHAR
STARTCHAR 012F
ENCODING 303
SWIDTH 225 0
DWIDTH 15 0
BBX 10 61 1 -13
BITMAP
0700
0700
0700
0000
0000
0000
0000
0000
0000
0000
0000
0000
0000
0000
0200
0200
0200
0200
0200
0200
0200
0200
0200
0200
0200
0200
0200
0200
0200
0200
0200
0200
0200
0200
0200
0200
0200
0200
0200
0200
0200
0200
0200
0200
0200
0200
0200
0200
0600
0C00
1800
3000
6000
4000
C000
C000
8000
C000
C000
60C0
3F80
ENDCHAR
STARTCHAR 0130
ENCODING 304
SWIDTH 360 0
DWIDTH 24 0
BBX 15 58 5 0
BITMAP
0380
0380
0380
0000
0000
0000
0000
0000
0000
0000
0000
FFFE
FFFE
0100
0100
0100
0100
0100
0100
0100
0100
0100
0100
0100
0100
0100
0100
0100
0100
0100
0100
0100
0100
0100
0100
0100
0100
0100
0100
0100
0100
0100
0100
0100
0100
0100
0100
0100
0100
0100
0100
0100
0100
0100
0100
0100
0100
FFFE
ENDCHAR
STARTCHAR 0131
ENCODING 305
SWIDTH 225 0
DWIDTH 15 0
BBX 1 34 7 0
BITMAP
80
80
80
80
80
80
80
80
80
80
80
80
80
80
80
80
80
80
80
80
80
80
80
80
80
80
80
80
80
80
80
80
80
80
ENDCHAR
STARTCHAR 0132
ENCODING 306
SWIDTH 630 0
DWIDTH 42 0
BBX 28 48 7 -1
BITMAP
8003FFF0
8003FFF0
80000010
80000010
80000010
80000010
80000010
80000010
80000010
80000010
80000010
80000010
80000010
80000010
80000010
80000010
80000010
80000010
80000010
80000010
80000010
80000010
80000010
80000010
80000010
80000010
80000010
80000010
00000010
00000010
00000010
00000010
00000010
00000010
00000010
00000010
00000010
00000010
80000030
C0000030
C0000060
60000060
600000C0
30000180
18000300
0E000E00
03FFF800
007F8000
ENDCHAR
STARTCHAR 0133
ENCODING 307
SWIDTH 450 0
DWIDTH 30 0
BBX 19 61 6 -13
BITMAP
E000C0
E000E0
E000C0
000000
000000
000000
000000
000000
000000
000000
000000
000000
000000
000000
4000C0
4000C0
4000C0
4000C0
4000C0
4000C0
4000C0
4000C0
4000C0
4000C0
4000C0
4000C0
4000C0
4000C0
4000C0
4000C0
4000C0
4000C0
4000C0
4000C0
4000C0
4000C0
4000C0
4000C0
4000C0
4000C0
4000C0
4000C0
4000C0
4000C0
4000C0
4000C0
4000C0
4000C0
0000C0
0000C0
0000C0
0000C0
0000C0
0000C0
0000C0
0000C0
0000C0
0000C0
0000C0
0000C0
001FC0
ENDCHAR
STARTCHAR 0134
ENCODING 308
SWIDTH 450 0
DWIDTH 30 0
BBX 24 63 1 -1
BITMAP
000200
000700
000D80
0018C0
003060
006030
00C018
01800C
030006
060003
000000
000000
000000
000000
000000
07FFFE
07FFFE
000002
000002
000002
000002
000002
000002
000002
000002
000002
000002
000002
000002
000002
000002
000002
000002
000002
000002
000002
000002
000002
000002
000002
000002
000002
000002
000002
000002
000002
000002
000002
000002
000002
000002
000002
000002
000006
C00006
400006
600004
20000C
300018
180030
0E0060
03FFC0
007E00
ENDCHAR
STARTCHAR 0135
ENCODING 309
SWIDTH 225 0
DWIDTH 15 0
BBX 18 63 -1 -13
BITMAP
00C000
01E000
033000
061000
0C0800
180400
300200
600100
C00080
800040
000000
000000
000000
000000
000000
000000
008000
008000
008000
008000
008000
008000
008000
008000
008000
008000
008000
008000
008000
008000
008000
008000
008000
008000
008000
008000
008000
008000
008000
008000
008000
008000
008000
008000
008000
008000
008000
008000
008000
008000
008000
008000
008000
008000
008000
008000
008000
008000
008000
008000
008000
008000
3F8000
ENDCHAR
STARTCHAR 0136
ENCODING 310
SWIDTH 570 0
DWIDTH 38 0
BBX 30 61 7 -14
BITMAP
C000000C
C0000018
C0000030
C0000060
C00000C0
C0000180
C0000300
C0000600
C0000C00
C0000800
C0001000
C0003000
C0006000
C000C000
C0018000
C0030000
C0060000
C00C0000
C0180000
C0300000
C0300000
C0580000
C0C80000
C18C0000
C3060000
C6020000
CC030000
D8018000
F0008000
E000C000
C0006000
C0002000
C0003000
C0001800
C0000800
C0000C00
C0000600
C0000200
C0000300
C0000180
C0000080
C00000C0
C0000060
C0000020
C0000030
C0000018
C0000008
00000000
00000000
00000000
00000000
00000000
000E0000
000E0000
00060000
00020000
00020000
00060000
00040000
00040000
00080000
ENDCHAR
STARTCHAR 0137
ENCODING 311
SWIDTH 480 0
DWIDTH 32 0
BBX 24 63 7 -14
BITMAP
800000
800000
800000
800000
800000
800000
800000
800000
800000
800000
800000
800000
800000
800000
800000
80000C
800018
800030
800060
8000C0
800180
800300
800600
800C00
801800
803000
806000
80C000
818000
830000
878000
8CC000
986000
B03000
E01000
C01800
800C00
800600
800300
800180
800080
8000C0
800060
800030
800018
800008
800004
800006
800003
000000
000000
000000
000000
000000
007800
007800
003000
001000
001000
001000
002000
002000
004000
ENDCHAR
STARTCHAR 0138
ENCODING 312
SWIDTH 480 0
DWIDTH 32 0
BBX 24 34 7 0
BITMAP
800006
80000C
800018
800030
800060
8000C0
800180
800300
800600
800C00
801800
803000
806000
80C000
818000
838000
868000
8CC000
986000
B03000
E01800
C00C00
800600
800200
800300
800180
8000C0
800060
800030
800018
800008
800004
800006
800003
ENDCHAR
STARTCHAR 0139
ENCODING 313
SWIDTH 465 0
DWIDTH 31 0
BBX 24 62 6 0
BITMAP
010000
030000
060000
040000
0C0000
180000
300000
200000
600000
C00000
800000
000000
000000
000000
000000
600000
600000
600000
600000
600000
600000
600000
600000
600000
600000
600000
600000
600000
600000
600000
600000
600000
600000
600000
600000
600000
600000
600000
600000
600000
600000
600000
600000
600000
600000
600000
600000
600000
600000
600000
600000
600000
600000
600000
600000
600000
600000
600000
600000
600000
600000
7FFFFF
ENDCHAR
STARTCHAR 013A
ENCODING 314
SWIDTH 240 0
DWIDTH 16 0
BBX 8 63 6 0
BITMAP
03
02
06
0C
18
10
30
60
40
80
80
00
00
00
40
40
40
40
40
40
40
40
40
40
40
40
40
40
40
40
40
40
40
40
40
40
40
40
40
40
40
40
40
40
40
40
40
40
40
40
40
40
40
40
40
40
40
40
40
40
40
40
7F
ENDCHAR
STARTCHAR 013B
ENCODING 315
SWIDTH 465 0
DWIDTH 31 0
BBX 23 61 7 -14
BITMAP
C00000
C00000
C00000
C00000
C00000
C00000
C00000
C00000
C00000
C00000
C00000
C00000
C00000
C00000
C00000
C00000
C00000
C00000
C00000
C00000
C00000
C00000
C00000
C00000
C00000
C00000
C00000
C00000
C00000
C00000
C00000
C00000
C00000
C00000
C00000
C00000
C00000
C00000
C00000
C00000
C00000
C00000
C00000
C00000
C00000
C00000
FFFFFE
000000
000000
000000
000000
000800
001C00
001C00
000C00
000400
000C00
000800
000800
001000
003000
ENDCHAR
STARTCHAR 013C
ENCODING 316
SWIDTH 240 0
DWIDTH 16 0
BBX 7 63 7 -14
BITMAP
80
80
80
80
80
80
80
80
80
80
80
80
80
80
80
80
80
80
80
80
80
80
80
80
80
80
80
80
80
80
80
80
80
80
80
80
80
80
80
80
80
80
80
80
80
80
80
80
FE
00
00
00
00
08
38
38
18
08
08
10
10
30
20
ENDCHAR
STARTCHAR 013D
ENCODING 317
SWIDTH 465 0
DWIDTH 31 0
BBX 23 49 7 0
BITMAP
006000
006000
C06000
C06000
C04000
C04000
C04000
C04000
C04000
C04000
C0C000
C00000
C00000
C00000
C00000
C00000
C00000
C00000
C00000
C00000
C00000
C00000
C00000
C00000
C00000
C00000
C00000
C00000
C00000
C00000
C00000
C00000
C00000
C00000
C00000
C00000
C00000
C00000
C00000
C00000
C00000
C00000
C00000
C00000
C00000
C00000
C00000
C00000
FFFFFE
ENDCHAR
STARTCHAR 013E
ENCODING 318
SWIDTH 240 0
DWIDTH 16 0
BBX 10 49 7 0
BITMAP
8040
8040
8040
80C0
80C0
80C0
80C0
8080
8080
8080
8080
8000
8000
8000
8000
8000
8000
8000
8000
8000
8000
8000
8000
8000
8000
8000
8000
8000
8000
8000
8000
8000
8000
8000
8000
8000
8000
8000
8000
8000
8000
8000
8000
8000
8000
8000
8000
8000
FE00
ENDCHAR
STARTCHAR 013F
ENCODING 319
SWIDTH 465 0
DWIDTH 31 0
BBX 23 47 7 0
BITMAP
C00000
C00000
C00000
C00000
C00000
C00000
C00000
C00000
C00000
C00000
C00000
C00000
C00000
C00000
C00000
C00000
C00000
C00000
C00000
C00000
C00000
C00000
C00000
C00000
C00000
C00000
C000C0
C001C0
C000C0
C00000
C00000
C00000
C00000
C00000
C00000
C00000
C00000
C00000
C00000
C00000
C00000
C00000
C00000
C00000
C00000
C00000
FFFFFE
ENDCHAR
STARTCHAR 0140
ENCODING 320
SWIDTH 270 0
DWIDTH 18 0
BBX 11 49 7 0
BITMAP
8000
8000
8000
8000
8000
8000
8000
8000
8000
8000
8000
8000
8000
8000
8000
8000
8000
8000
8000
8000
8000
8000
8000
8000
8000
8000
8000
8000
8000
8000
80E0
80E0
80E0
8000
8000
8000
8000
8000
8000
8000
8000
8000
8000
8000
8000
8000
8000
8000
FE00
ENDCHAR
STARTCHAR 0141
ENCODING 321
SWIDTH 465 0
DWIDTH 31 0
BBX 30 47 1 0
BITMAP
03000000
03000000
03000000
03000000
03000000
03000000
03000000
03000000
03000000
03000000
03000000
03000000
03000000
03000000
03000000
03000000
03000000
03000000
03000000
03000000
03000000
03001800
0300F000
03078000
037C0000
03E00000
1F000000
F3000000
83000000
03000000
03000000
03000000
03000000
03000000
03000000
03000000
03000000
03000000
03000000
03000000
03000000
03000000
03000000
03000000
03000000
03000000
03FFFFFC
ENDCHAR
STARTCHAR 0142
ENCODING 322
SWIDTH 255 0
DWIDTH 17 0
BBX 13 49 2 0
BITMAP
0600
0600
0600
0600
0600
0600
0600
0600
0600
0600
0600
0600
0600
0600
0600
0600
0600
0600
0600
0600
0600
0600
0618
07F0
0F80
7E00
C600
0600
0600
0600
0600
0600
0600
0600
0600
0600
0600
0600
0600
0600
0600
0600
0600
0600
0600
0600
0600
0600
03F0
ENDCHAR
STARTCHAR 0143
ENCODING 323
SWIDTH 690 0
DWIDTH 46 0
BBX 32 62 7 0
BITMAP
00000400
00000C00
00001800
00001000
00003000
00006000
00004000
00008000
00018000
00030000
00020000
00000000
00000000
00000000
00000000
C0000001
E0000001
F0000001
D0000001
D8000001
C8000001
CC000001
C6000001
C2000001
C3000001
C1800001
C0800001
C0C00001
C0400001
C0600001
C0300001
C0100001
C0180001
C00C0001
C0040001
C0060001
C0030001
C0030001
C0018001
C0008001
C000C001
C0006001
C0002001
C0003001
C0001801
C0001801
C0000C01
C0000401
C0000601
C0000301
C0000101
C0000181
C00000C1
C00000C1
C0000061
C0000021
C0000031
C0000019
C0000009
C000000D
C0000007
C0000007
ENDCHAR
STARTCHAR 0144
ENCODING 324
SWIDTH 555 0
DWIDTH 37 0
BBX 24 50 7 0
BITMAP
000040
0000C0
000180
000100
000300
000600
000C00
000800
001800
003000
002000
000000
000000
000000
000000
001800
83FFC0
8600E0
880038
900008
A0000C
C00006
C00006
C00002
800002
800003
800003
800003
800003
800003
800003
800003
800003
800003
800003
800003
800003
800003
800003
800003
800003
800003
800003
800003
800003
800003
800003
800003
800003
800003
ENDCHAR
STARTCHAR 0145
ENCODING 325
SWIDTH 690 0
DWIDTH 46 0
BBX 32 61 7 -14
BITMAP
C0000001
E0000001
F0000001
D0000001
D8000001
C8000001
CC000001
C6000001
C2000001
C3000001
C1800001
C0800001
C0C00001
C0400001
C0600001
C0300001
C0100001
C0180001
C00C0001
C0040001
C0060001
C0030001
C0030001
C0018001
C0008001
C000C001
C0006001
C0002001
C0003001
C0001801
C0001801
C0000C01
C0000401
C0000601
C0000301
C0000101
C0000181
C00000C1
C00000C1
C0000061
C0000021
C0000031
C0000019
C0000009
C000000D
C0000007
C0000007
00000000
00000000
00000000
00000000
00000000
0001C000
0001C000
0001C000
00008000
00008000
00008000
00010000
00010000
00020000
ENDCHAR
STARTCHAR 0146
ENCODING 326
SWIDTH 555 0
DWIDTH 37 0
BBX 24 49 7 -14
BITMAP
001800
83FFC0
8600E0
880038
900008
A0000C
C00006
C00006
C00002
800002
800003
800003
800003
800003
800003
800003
800003
800003
800003
800003
800003
800003
800003
800003
800003
800003
800003
800003
800003
800003
800003
800003
800003
800003
800003
000000
000000
000000
000000
000000
003800
003800
001800
000800
000800
001800
001000
003000
002000
ENDCHAR
STARTCHAR 0147
ENCODING 327
SWIDTH 690 0
DWIDTH 46 0
BBX 32 62 7 0
BITMAP
01000080
01800180
00C00300
00600600
00300C00
00181800
000C3000
00066000
0003C000
00018000
00000000
00000000
00000000
00000000
00000000
C0000001
E0000001
F0000001
D0000001
D8000001
C8000001
CC000001
C6000001
C2000001
C3000001
C1800001
C0800001
C0C00001
C0400001
C0600001
C0300001
C0100001
C0180001
C00C0001
C0040001
C0060001
C0030001
C0030001
C0018001
C0008001
C000C001
C0006001
C0002001
C0003001
C0001801
C0001801
C0000C01
C0000401
C0000601
C0000301
C0000101
C0000181
C00000C1
C00000C1
C0000061
C0000021
C0000031
C0000019
C0000009
C000000D
C0000007
C0000007
ENDCHAR
STARTCHAR 0148
ENCODING 328
SWIDTH 555 0
DWIDTH 37 0
BBX 24 50 7 0
BITMAP
100008
180018
0C0030
060060
0300C0
018180
00C300
006600
003C00
001800
000000
000000
000000
000000
000000
001800
83FFC0
8600E0
880038
900008
A0000C
C00006
C00006
C00002
800002
800003
800003
800003
800003
800003
800003
800003
800003
800003
800003
800003
800003
800003
800003
800003
800003
800003
800003
800003
800003
800003
800003
800003
800003
800003
ENDCHAR
STARTCHAR 0149
ENCODING 329
SWIDTH 750 0
DWIDTH 50 0
BBX 40 50 4 0
BITMAP
1C00000000
1C00000000
1C00000000
0C00000000
0400000000
0400000000
0C00000000
0800000000
1800000000
1000000000
3000000000
2000000000
4000000000
8000000000
0000000000
0000000000
000041FFC0
0000470070
00004C0018
000058000C
0000500006
0000600002
0000600003
0000400003
0000400001
0000400001
0000400001
0000400001
0000400001
0000400001
0000400001
0000400001
0000400001
0000400001
0000400001
0000400001
0000400001
0000400001
0000400001
0000400001
0000400001
0000400001
0000400001
0000400001
0000400001
0000400001
0000400001
0000400001
0000400001
0000400001
ENDCHAR
STARTCHAR 014A
ENCODING 330
SWIDTH 690 0
DWIDTH 46 0
BBX 32 60 7 -13
BITMAP
C0000001
E0000001
F0000001
D0000001
D8000001
C8000001
CC000001
C6000001
C2000001
C3000001
C1800001
C0800001
C0C00001
C0400001
C0600001
C0300001
C0100001
C0180001
C00C0001
C0040001
C0060001
C0030001
C0030001
C0018001
C0008001
C000C001
C0006001
C0002001
C0003001
C0001801
C0001801
C0000C01
C0000401
C0000601
C0000301
C0000101
C0000181
C00000C1
C00000C1
C0000061
C0000021
C0000031
C0000019
C0000009
C000000D
C0000007
C0000007
00000001
00000001
00000001
00000001
00000001
00000001
00000001
00000001
00000001
00000001
00000001
00000001
0000007F
ENDCHAR
STARTCHAR 014B
ENCODING 331
SWIDTH 555 0
DWIDTH 37 0
BBX 24 48 7 -13
BITMAP
001800
83FFC0
8600E0
880038
900008
A0000C
C00006
C00006
C00002
800002
800003
800003
800003
800003
800003
800003
800003
800003
800003
800003
800003
800003
800003
800003
800003
800003
800003
800003
800003
800003
800003
800003
800003
800003
800003
000003
000003
000003
000003
000003
000003
000003
000003
000003
000003
000003
000003
00007E
ENDCHAR
STARTCHAR 014C
ENCODING 332
SWIDTH 675 0
DWIDTH 45 0
BBX 36 58 5 -1
BITMAP
007FFFC000
0000000000
0000000000
0000000000
0000000000
0000000000
0000000000
0000000000
0000000000
0000000000
000FFF0000
007803C000
00E0007000
0380001800
0600000C00
0C00000600
0C00000300
1800000300
1000000180
3000000080
20000000C0
60000000C0
4000000040
4000000060
4000000060
C000000060
C000000020
C000000020
8000000020
8000000030
8000000030
8000000030
8000000030
8000000030
8000000030
8000000030
8000000030
8000000030
8000000020
8000000020
C000000020
C000000020
C000000060
4000000060
4000000040
6000000040
60000000C0
2000000080
3000000180
1000000180
1800000300
0C00000600
0600000C00
0300001C00
01C0003000
00F000E000
003FFF8000
0003F80000
ENDCHAR
STARTCHAR 014D
ENCODING 333
SWIDTH 540 0
DWIDTH 36 0
BBX 28 46 4 -1
BITMAP
07FFFE00
00000000
00000000
00000000
00000000
00000000
00000000
00000000
00000000
00000000
00040000
00FFF000
03801C00
06000600
0C000300
18000180
10000080
300000C0
20000040
60000060
40000020
40000020
C0000030
C0000030
C0000030
C0000030
C0000030
C0000030
C0000030
C0000030
C0000030
C0000030
C0000030
C0000030
40000020
40000020
60000060
60000060
20000040
300000C0
18000180
0C000300
06000600
03801C00
00FFF000
001F8000
ENDCHAR
STARTCHAR 014E
ENCODING 334
SWIDTH 675 0
DWIDTH 45 0
BBX 36 62 5 -1
BITMAP
0000004000
0060004000
002000C000
0030008000
0010010000
0008030000
000C060000
0003FC0000
0000E00000
0000000000
0000000000
0000000000
0000000000
0000000000
000FFF0000
007803C000
00E0007000
0380001800
0600000C00
0C00000600
0C00000300
1800000300
1000000180
3000000080
20000000C0
60000000C0
4000000040
4000000060
4000000060
C000000060
C000000020
C000000020
8000000020
8000000030
8000000030
8000000030
8000000030
8000000030
8000000030
8000000030
8000000030
8000000030
8000000020
8000000020
C000000020
C000000020
C000000060
4000000060
4000000040
6000000040
60000000C0
2000000080
3000000180
1000000180
1800000300
0C00000600
0600000C00
0300001C00
01C0003000
00F000E000
003FFF8000
0003F80000
ENDCHAR
STARTCHAR 014F
ENCODING 335
SWIDTH 540 0
DWIDTH 36 0
BBX 28 49 4 0
BITMAP
02000400
03000400
01000800
01801800
00C03000
00606000
003FC000
00060000
00000000
00000000
00000000
00000000
00000000
00040000
00FFF000
03801C00
06000600
0C000300
18000180
10000080
300000C0
20000040
60000060
40000020
40000020
C0000030
C0000030
C0000030
C0000030
C0000030
C0000030
C0000030
C0000030
C0000030
C0000030
C0000030
C0000030
40000020
40000020
60000060
60000060
20000040
300000C0
18000180
0C000300
06000600
03801C00
00FFF000
001F8000
ENDCHAR
STARTCHAR 0150
ENCODING 336
SWIDTH 675 0
DWIDTH 45 0
BBX 36 63 5 -1
BITMAP
0000300400
0000200C00
0000600800
0000C01800
0001803000
0001006000
0003004000
000600C000
0004018000
0008030000
0008020000
0000000000
0000000000
0000000000
0000000000
000FFF0000
007803C000
00E0007000
0380001800
0600000C00
0C00000600
0C00000300
1800000300
1000000180
3000000080
20000000C0
60000000C0
4000000040
4000000060
4000000060
C000000060
C000000020
C000000020
8000000020
8000000030
8000000030
8000000030
8000000030
8000000030
8000000030
8000000030
8000000030
8000000030
8000000020
8000000020
C000000020
C000000020
C000000060
4000000060
4000000040
6000000040
60000000C0
2000000080
3000000180
1000000180
1800000300
0C00000600
0600000C00
0300001C00
01C0003000
00F000E000
003FFF8000
0003F80000
ENDCHAR
STARTCHAR 0151
ENCODING 337
SWIDTH 540 0
DWIDTH 36 0
BBX 28 51 4 -1
BITMAP
00010060
00030040
000600C0
00040180
000C0300
00180200
00300600
00200C00
00600800
00C01000
00801000
00000000
00000000
00000000
00000000
00040000
00FFF000
03801C00
06000600
0C000300
18000180
10000080
300000C0
20000040
60000060
40000020
40000020
C0000030
C0000030
C0000030
C0000030
C0000030
C0000030
C0000030
C0000030
C0000030
C0000030
C0000030
C0000030
40000020
40000020
60000060
60000060
20000040
300000C0
18000180
0C000300
06000600
03801C00
00FFF000
001F8000
ENDCHAR
STARTCHAR 0152
ENCODING 338
SWIDTH 960 0
DWIDTH 64 0
BBX 55 48 5 -1
BITMAP
0007FFFFFFFFFE
003E003FFFFFFE
00F00006000000
01C00006000000
03000006000000
06000006000000
0C000006000000
18000006000000
18000006000000
30000006000000
30000006000000
60000006000000
60000006000000
40000006000000
40000006000000
C0000006000000
C0000006000000
C0000006000000
80000006000000
80000006000000
80000006000000
80000006000000
80000006000000
80000007FFFFFC
80000006000000
80000006000000
80000006000000
80000006000000
80000006000000
80000006000000
C0000006000000
C0000006000000
C0000006000000
40000006000000
60000006000000
60000006000000
20000006000000
30000006000000
10000006000000
18000006000000
0C000006000000
06000006000000
07000006000000
03800006000000
00E00006000000
00780006000000
000FFFFFFFFFFE
0001FF80000000
ENDCHAR
STARTCHAR 0153
ENCODING 339
SWIDTH 915 0
DWIDTH 61 0
BBX 54 36 4 -1
BITMAP
00040000018000
00FFF0001FFC00
03801C00700600
06000600C00180
0C0003010000C0
18000182000060
10000086000020
300000C4000030
20000048000010
60000068000018
40000038000008
40000030000008
C0000030000008
C000003000000C
C000003000000C
C000003000000C
C000003000000C
C000003FFFFFFC
C0000030000000
C0000030000000
C0000030000000
C0000030000000
C0000030000000
C0000030000000
40000030000000
40000038000000
60000068000008
60000048000008
2000004C000018
30000084000010
18000182000020
0C000303000060
060006018000C0
03801C00E00300
00FFF0003F7E00
001F800007F000
ENDCHAR
STARTCHAR 0154
ENCODING 340
SWIDTH 630 0
DWIDTH 42 0
BBX 30 62 7 0
BITMAP
00002000
00006000
00004000
0000C000
00018000
00030000
00020000
00060000
000C0000
00080000
00000000
00000000
00000000
00000000
00000000
FFFFC000
FFFFFF00
C0000380
C00000C0
C0000060
C0000030
C0000010
C0000018
C0000008
C0000008
C000000C
C000000C
C000000C
C000000C
C000000C
C000000C
C0000008
C0000008
C0000018
C0000010
C0000030
C0000060
C00000C0
C0000380
FFFFFE00
FFFFC000
C0006000
C0006000
C0003000
C0001000
C0001800
C0000C00
C0000C00
C0000600
C0000200
C0000300
C0000100
C0000180
C00000C0
C0000040
C0000060
C0000020
C0000030
C0000018
C0000008
C000000C
C0000004
ENDCHAR
STARTCHAR 0155
ENCODING 341
SWIDTH 330 0
DWIDTH 22 0
BBX 15 50 7 0
BITMAP
0004
000C
0018
0030
0020
0060
00C0
0080
0100
0300
0200
0000
0000
0000
0000
0000
803E
83FE
8E00
9800
9000
A000
C000
C000
C000
8000
8000
8000
8000
8000
8000
8000
8000
8000
8000
8000
8000
8000
8000
8000
8000
8000
8000
8000
8000
8000
8000
8000
8000
8000
ENDCHAR
STARTCHAR 0156
ENCODING 342
SWIDTH 630 0
DWIDTH 42 0
BBX 30 61 7 -14
BITMAP
FFFFC000
FFFFFF00
C0000380
C00000C0
C0000060
C0000030
C0000010
C0000018
C0000008
C0000008
C000000C
C000000C
C000000C
C000000C
C000000C
C000000C
C0000008
C0000008
C0000018
C0000010
C0000030
C0000060
C00000C0
C0000380
FFFFFE00
FFFFC000
C0006000
C0006000
C0003000
C0001000
C0001800
C0000C00
C0000C00
C0000600
C0000200
C0000300
C0000100
C0000180
C00000C0
C0000040
C0000060
C0000020
C0000030
C0000018
C0000008
C000000C
C0000004
00000000
00000000
00000000
00000000
00040000
000E0000
000E0000
00060000
00060000
00040000
00040000
000C0000
00080000
00100000
ENDCHAR
STARTCHAR 0157
ENCODING 343
SWIDTH 330 0
DWIDTH 22 0
BBX 16 48 6 -14
BITMAP
401F
41FF
4700
4C00
4800
5000
6000
6000
6000
4000
4000
4000
4000
4000
4000
4000
4000
4000
4000
4000
4000
4000
4000
4000
4000
4000
4000
4000
4000
4000
4000
4000
4000
4000
0000
0000
0000
0000
4000
E000
E000
6000
2000
2000
4000
4000
8000
8000
ENDCHAR
STARTCHAR 0158
ENCODING 344
SWIDTH 630 0
DWIDTH 42 0
BBX 30 62 7 0
BITMAP
08000400
0C000C00
06001800
03003000
01806000
00C0C000
00618000
00330000
001E0000
000C0000
00000000
00000000
00000000
00000000
00000000
FFFFC000
FFFFFF00
C0000380
C00000C0
C0000060
C0000030
C0000010
C0000018
C0000008
C0000008
C000000C
C000000C
C000000C
C000000C
C000000C
C000000C
C0000008
C0000008
C0000018
C0000010
C0000030
C0000060
C00000C0
C0000380
FFFFFE00
FFFFC000
C0006000
C0006000
C0003000
C0001000
C0001800
C0000C00
C0000C00
C0000600
C0000200
C0000300
C0000100
C0000180
C00000C0
C0000040
C0000060
C0000020
C0000030
C0000018
C0000008
C000000C
C0000004
ENDCHAR
STARTCHAR 0159
ENCODING 345
SWIDTH 330 0
DWIDTH 22 0
BBX 18 50 6 0
BITMAP
800040
C000C0
600180
300300
180600
0C0C00
061800
033000
01E000
00C000
000000
000000
000000
000000
000000
000000
401F00
41FF00
470000
4C0000
480000
500000
600000
600000
600000
400000
400000
400000
400000
400000
400000
400000
400000
400000
400000
400000
400000
400000
400000
400000
400000
400000
400000
400000
400000
400000
400000
400000
400000
400000
ENDCHAR
STARTCHAR 015A
ENCODING 346
SWIDTH 540 0
DWIDTH 36 0
BBX 30 63 3 -1
BITMAP
00000800
00001800
00003000
00002000
00006000
0000C000
00018000
00010000
00030000
00060000
00040000
00000000
00000000
00000000
00000000
007FF800
03C00F00
06000180
0C0000E0
18000030
30000010
20000010
60000000
60000000
40000000
40000000
40000000
40000000
40000000
60000000
60000000
20000000
30000000
18000000
0C000000
07000000
01E00000
007F0000
0007F800
00003E00
00000380
000000C0
00000060
00000030
00000010
00000018
00000008
00000008
0000000C
0000000C
0000000C
0000000C
00000008
00000008
00000018
C0000018
60000010
30000030
18000060
0E0000C0
03800380
00FFFE00
000FE000
ENDCHAR
STARTCHAR 015B
ENCODING 347
SWIDTH 450 0
DWIDTH 30 0
BBX 24 51 3 -1
BITMAP
000040
0000C0
000180
000100
000300
000600
000C00
000800
001800
003000
002000
000000
000000
000000
000000
000000
03FFC0
060070
080018
10000C
300006
200000
200000
600000
600000
600000
200000
200000
300000
180000
0E0000
07C000
00FE00
0007E0
000070
00001C
000004
000006
000002
000003
000003
000003
000003
000003
C00003
600002
300006
18000C
0E0038
03F7E0
007F00
ENDCHAR
STARTCHAR 015C
ENCODING 348
SWIDTH 540 0
DWIDTH 36 0
BBX 30 63 3 -1
BITMAP
00030000
00078000
000CC000
00186000
00303000
00601800
00C00C00
01800600
03000200
02000100
00000000
00000000
00000000
00000000
00000000
007FF800
03C00F00
06000180
0C0000E0
18000030
30000010
20000010
60000000
60000000
40000000
40000000
40000000
40000000
40000000
60000000
60000000
20000000
30000000
18000000
0C000000
07000000
01E00000
007F0000
0007F800
00003E00
00000380
000000C0
00000060
00000030
00000010
00000018
00000008
00000008
0000000C
0000000C
0000000C
0000000C
00000008
00000008
00000018
C0000018
60000010
30000030
18000060
0E0000C0
03800380
00FFFE00
000FE000
ENDCHAR
STARTCHAR 015D
ENCODING 349
SWIDTH 450 0
DWIDTH 30 0
BBX 24 51 3 -1
BITMAP
001800
003C00
006600
00C300
018180
0300C0
060060
0C0030
180010
100008
000000
000000
000000
000000
000000
000000
03FFC0
060070
080018
10000C
300006
200000
200000
600000
600000
600000
200000
200000
300000
180000
0E0000
07C000
00FE00
0007E0
000070
00001C
000004
000006
000002
000003
000003
000003
000003
000003
C00003
600002
300006
18000C
0E0038
03F7E0
007F00
ENDCHAR
STARTCHAR 015E
ENCODING 350
SWIDTH 540 0
DWIDTH 36 0
BBX 30 60 3 -13
BITMAP
007FF800
03C00F00
06000180
0C0000E0
18000030
30000010
20000010
60000000
60000000
40000000
40000000
40000000
40000000
40000000
60000000
60000000
20000000
30000000
18000000
0C000000
07000000
01E00000
007F0000
0007F800
00003E00
00000380
000000C0
00000060
00000030
00000010
00000018
00000008
00000008
0000000C
0000000C
0000000C
0000000C
00000008
00000008
00000018
C0000018
60000010
30000030
18000060
0E0000C0
03800380
00FFFE00
001FE000
00030000
00020000
00020000
00020000
0007F000
00001800
00000800
00000800
00000800
00000800
00181000
000FE000
ENDCHAR
STARTCHAR 015F
ENCODING 351
SWIDTH 450 0
DWIDTH 30 0
BBX 24 47 3 -12
BITMAP
03FFC0
060070
080018
10000C
300006
200000
200000
600000
600000
600000
200000
200000
300000
180000
0E0000
07C000
00FE00
0007E0
000070
00001C
000004
000006
000002
000003
000003
000003
000003
000003
C00003
600002
300006
18000C
0E0038
03F7E0
003F00
000800
000800
001800
001000
001F80
0000C0
000060
000060
000060
000060
00C0C0
007F80
ENDCHAR
STARTCHAR 0160
ENCODING 352
SWIDTH 540 0
DWIDTH 36 0
BBX 30 63 3 -1
BITMAP
02000100
03000300
01800600
00C00C00
00601800
00303000
00186000
000CC000
00078000
00030000
00000000
00000000
00000000
00000000
00000000
007FF800
03C00F00
06000180
0C0000E0
18000030
30000010
20000010
60000000
60000000
40000000
40000000
40000000
40000000
40000000
60000000
60000000
20000000
30000000
18000000
0C000000
07000000
01E00000
007F0000
0007F800
00003E00
00000380
000000C0
00000060
00000030
00000010
00000018
00000008
00000008
0000000C
0000000C
0000000C
0000000C
00000008
00000008
00000018
C0000018
60000010
30000030
18000060
0E0000C0
03800380
00FFFE00
000FE000
ENDCHAR
STARTCHAR 0161
ENCODING 353
SWIDTH 450 0
DWIDTH 30 0
BBX 24 51 3 -1
BITMAP
100008
180018
0C0030
060060
0300C0
018180
00C300
006600
003C00
001800
000000
000000
000000
000000
000000
000000
03FFC0
060070
080018
10000C
300006
200000
200000
600000
600000
600000
200000
200000
300000
180000
0E0000
07C000
00FE00
0007E0
000070
00001C
000004
000006
000002
000003
000003
000003
000003
000003
C00003
600002
300006
18000C
0E0038
03F7E0
007F00
ENDCHAR
STARTCHAR 0162
ENCODING 354
SWIDTH 555 0
DWIDTH 37 0
BBX 35 61 1 -14
BITMAP
FFFFFFFFE0
FFFFFFFFE0
0000400000
0000400000
0000400000
0000400000
0000400000
0000400000
0000400000
0000400000
0000400000
0000400000
0000400000
0000400000
0000400000
0000400000
0000400000
0000400000
0000400000
0000400000
0000400000
0000400000
0000400000
0000400000
0000400000
0000400000
0000400000
0000400000
0000400000
0000400000
0000400000
0000400000
0000400000
0000400000
0000400000
0000400000
0000400000
0000400000
0000400000
0000400000
0000400000
0000400000
0000400000
0000400000
0000400000
0000400000
0000400000
0000000000
0000000000
0000000000
0000000000
0000400000
0000E00000
0000E00000
0000600000
0000200000
0000200000
0000400000
0000400000
0000800000
0001800000
ENDCHAR
STARTCHAR 0163
ENCODING 355
SWIDTH 300 0
DWIDTH 20 0
BBX 16 57 2 -14
BITMAP
0300
0300
0300
0300
0300
0300
0300
0300
0300
FFFF
FFFF
0300
0300
0300
0300
0300
0300
0300
0300
0300
0300
0300
0300
0300
0300
0300
0300
0300
0300
0300
0300
0300
0300
0300
0300
0300
0300
0300
0300
0300
0300
0300
01FE
0000
0000
0000
0000
0020
0070
0070
0030
0010
0010
0020
0020
0040
00C0
ENDCHAR
STARTCHAR 0164
ENCODING 356
SWIDTH 555 0
DWIDTH 37 0
BBX 35 62 1 0
BITMAP
0040002000
0060006000
003000C000
0018018000
000C030000
0006060000
00030C0000
0001980000
0000F00000
0000600000
0000000000
0000000000
0000000000
0000000000
0000000000
FFFFFFFFE0
FFFFFFFFE0
0000400000
0000400000
0000400000
0000400000
0000400000
0000400000
0000400000
0000400000
0000400000
0000400000
0000400000
0000400000
0000400000
0000400000
0000400000
0000400000
0000400000
0000400000
0000400000
0000400000
0000400000
0000400000
0000400000
0000400000
0000400000
0000400000
0000400000
0000400000
0000400000
0000400000
0000400000
0000400000
0000400000
0000400000
0000400000
0000400000
0000400000
0000400000
0000400000
0000400000
0000400000
0000400000
0000400000
0000400000
0000400000
ENDCHAR
STARTCHAR 0165
ENCODING 357
SWIDTH 300 0
DWIDTH 20 0
BBX 17 49 2 0
BITMAP
000180
000180
000180
000180
000100
000100
030100
030100
030100
030100
030300
030000
030000
030000
030000
FFFF00
FFFF00
030000
030000
030000
030000
030000
030000
030000
030000
030000
030000
030000
030000
030000
030000
030000
030000
030000
030000
030000
030000
030000
030000
030000
030000
030000
030000
030000
030000
030000
030000
030000
01FE00
ENDCHAR
STARTCHAR 0166
ENCODING 358
SWIDTH 555 0
DWIDTH 37 0
BBX 35 47 1 0
BITMAP
FFFFFFFFE0
FFFFFFFFE0
0000400000
0000400000
0000400000
0000400000
0000400000
0000400000
0000400000
0000400000
0000400000
0000400000
0000400000
0000400000
0000400000
0000400000
0000400000
0000400000
0000400000
0000400000
0000400000
0FFFFFFE00
0FFFFFFE00
0000400000
0000400000
0000400000
0000400000
0000400000
0000400000
0000400000
0000400000
0000400000
0000400000
0000400000
0000400000
0000400000
0000400000
0000400000
0000400000
0000400000
0000400000
0000400000
0000400000
0000400000
0000400000
0000400000
0000400000
ENDCHAR
STARTCHAR 0167
ENCODING 359
SWIDTH 315 0
DWIDTH 21 0
BBX 16 43 2 0
BITMAP
0100
0100
0100
0100
0100
0100
0100
0100
0300
FFFF
FFFF
0100
0100
0100
0100
0100
0100
0100
0100
0100
0100
0100
0100
3FFE
0100
0100
0100
0100
0100
0100
0100
0100
0100
0100
0100
0100
0100
0100
0100
0100
0100
0100
01FE
ENDCHAR
STARTCHAR 0168
ENCODING 360
SWIDTH 645 0
DWIDTH 43 0
BBX 30 60 7 -1
BITMAP
00E00000
03BC0000
06070180
0401C700
00007C00
00000000
00000000
00000000
00000000
00000000
00000000
00000000
8000000C
8000000C
8000000C
8000000C
8000000C
8000000C
8000000C
8000000C
8000000C
8000000C
8000000C
8000000C
8000000C
8000000C
8000000C
8000000C
8000000C
8000000C
8000000C
8000000C
8000000C
8000000C
8000000C
8000000C
8000000C
8000000C
8000000C
8000000C
8000000C
8000000C
8000000C
8000000C
8000000C
8000000C
8000000C
C0000008
C0000008
C0000008
40000018
40000018
60000010
20000030
30000060
18000060
0C0001C0
07000700
01FFFE00
003FE000
ENDCHAR
STARTCHAR 0169
ENCODING 361
SWIDTH 555 0
DWIDTH 37 0
BBX 24 48 6 -1
BITMAP
038000
0EF000
101804
000E18
0003F0
000000
000000
000000
000000
000000
000000
000000
000000
C00001
C00001
C00001
C00001
C00001
C00001
C00001
C00001
C00001
C00001
C00001
C00001
C00001
C00001
C00001
C00001
C00001
C00001
C00001
C00001
C00001
C00001
C00001
C00001
C00001
400001
400003
600003
600003
200005
30000D
180019
0E0071
03FFC1
007E00
ENDCHAR
STARTCHAR 016A
ENCODING 362
SWIDTH 645 0
DWIDTH 43 0
BBX 30 58 7 -1
BITMAP
03FFFE00
00000000
00000000
00000000
00000000
00000000
00000000
00000000
00000000
00000000
8000000C
8000000C
8000000C
8000000C
8000000C
8000000C
8000000C
8000000C
8000000C
8000000C
8000000C
8000000C
8000000C
8000000C
8000000C
8000000C
8000000C
8000000C
8000000C
8000000C
8000000C
8000000C
8000000C
8000000C
8000000C
8000000C
8000000C
8000000C
8000000C
8000000C
8000000C
8000000C
8000000C
8000000C
8000000C
C0000008
C0000008
C0000008
40000018
40000018
60000010
20000030
30000060
18000060
0C0001C0
07000700
01FFFE00
003FE000
ENDCHAR
STARTCHAR 016B
ENCODING 363
SWIDTH 555 0
DWIDTH 37 0
BBX 24 46 6 -1
BITMAP
0FFFF8
000000
000000
000000
000000
000000
000000
000000
000000
000000
000000
C00001
C00001
C00001
C00001
C00001
C00001
C00001
C00001
C00001
C00001
C00001
C00001
C00001
C00001
C00001
C00001
C00001
C00001
C00001
C00001
C00001
C00001
C00001
C00001
C00001
400001
400003
600003
600003
200005
30000D
180019
0E0071
03FFC1
007E00
ENDCHAR
STARTCHAR 016C
ENCODING 364
SWIDTH 645 0
DWIDTH 43 0
BBX 30 62 7 -1
BITMAP
00000200
03000200
01000600
01800400
00800800
00401800
00603000
001FE000
00070000
00000000
00000000
00000000
00000000
00000000
8000000C
8000000C
8000000C
8000000C
8000000C
8000000C
8000000C
8000000C
8000000C
8000000C
8000000C
8000000C
8000000C
8000000C
8000000C
8000000C
8000000C
8000000C
8000000C
8000000C
8000000C
8000000C
8000000C
8000000C
8000000C
8000000C
8000000C
8000000C
8000000C
8000000C
8000000C
8000000C
8000000C
8000000C
8000000C
C0000008
C0000008
C0000008
40000018
40000018
60000010
20000030
30000060
18000060
0C0001C0
07000700
01FFFE00
003FE000
ENDCHAR
STARTCHAR 016D
ENCODING 365
SWIDTH 555 0
DWIDTH 37 0
BBX 24 50 6 -1
BITMAP
080000
080018
0C0010
040030
060020
030040
0181C0
00FF00
001800
000000
000000
000000
000000
000000
000000
C00001
C00001
C00001
C00001
C00001
C00001
C00001
C00001
C00001
C00001
C00001
C00001
C00001
C00001
C00001
C00001
C00001
C00001
C00001
C00001
C00001
C00001
C00001
C00001
C00001
400001
400003
600003
600003
200005
30000D
180019
0E0071
03FFC1
007E00
ENDCHAR
STARTCHAR 016E
ENCODING 366
SWIDTH 645 0
DWIDTH 43 0
BBX 30 64 7 -1
BITMAP
001FC000
00306000
00603000
00401000
00401800
00401800
00401800
00401000
00601000
00303000
001DE000
00070000
00000000
00000000
00000000
00000000
8000000C
8000000C
8000000C
8000000C
8000000C
8000000C
8000000C
8000000C
8000000C
8000000C
8000000C
8000000C
8000000C
8000000C
8000000C
8000000C
8000000C
8000000C
8000000C
8000000C
8000000C
8000000C
8000000C
8000000C
8000000C
8000000C
8000000C
8000000C
8000000C
8000000C
8000000C
8000000C
8000000C
8000000C
8000000C
C0000008
C0000008
C0000008
40000018
40000018
60000010
20000030
30000060
18000060
0C0001C0
07000700
01FFFE00
003FE000
ENDCHAR
STARTCHAR 016F
ENCODING 367
SWIDTH 555 0
DWIDTH 37 0
BBX 24 52 6 -1
BITMAP
007F00
00C180
0100C0
010040
030040
030040
030040
030040
0100C0
018180
00FF00
001C00
000000
000000
000000
000000
000000
C00001
C00001
C00001
C00001
C00001
C00001
C00001
C00001
C00001
C00001
C00001
C00001
C00001
C00001
C00001
C00001
C00001
C00001
C00001
C00001
C00001
C00001
C00001
C00001
C00001
400001
400003
600003
600003
200005
30000D
180019
0E0071
03FFC1
007E00
ENDCHAR
STARTCHAR 0170
ENCODING 368
SWIDTH 645 0
DWIDTH 43 0
BBX 30 63 7 -1
BITMAP
00018020
00010060
00030040
000600C0
000C0180
00080300
00180200
00300600
00200C00
00401800
00401000
00000000
00000000
00000000
00000000
8000000C
8000000C
8000000C
8000000C
8000000C
8000000C
8000000C
8000000C
8000000C
8000000C
8000000C
8000000C
8000000C
8000000C
8000000C
8000000C
8000000C
8000000C
8000000C
8000000C
8000000C
8000000C
8000000C
8000000C
8000000C
8000000C
8000000C
8000000C
8000000C
8000000C
8000000C
8000000C
8000000C
8000000C
8000000C
C0000008
C0000008
C0000008
40000018
40000018
60000010
20000030
30000060
18000060
0C0001C0
07000700
01FFFE00
003FE000
ENDCHAR
STARTCHAR 0171
ENCODING 369
SWIDTH 555 0
DWIDTH 37 0
BBX 25 51 6 -1
BITMAP
00040080
000C0180
00180300
00180600
00300400
00600C00
00401800
00801000
01802000
03006000
02004000
00000000
00000000
00000000
00000000
00000000
C0000100
C0000100
C0000100
C0000100
C0000100
C0000100
C0000100
C0000100
C0000100
C0000100
C0000100
C0000100
C0000100
C0000100
C0000100
C0000100
C0000100
C0000100
C0000100
C0000100
C0000100
C0000100
C0000100
C0000100
C0000100
40000100
40000300
60000300
60000300
20000500
30000D00
18001900
0E007100
03FFC100
007E0000
ENDCHAR
STARTCHAR 0172
ENCODING 370
SWIDTH 645 0
DWIDTH 43 0
BBX 30 60 7 -13
BITMAP
8000000C
8000000C
8000000C
8000000C
8000000C
8000000C
8000000C
8000000C
8000000C
8000000C
8000000C
8000000C
8000000C
8000000C
8000000C
8000000C
8000000C
8000000C
8000000C
8000000C
8000000C
8000000C
8000000C
8000000C
8000000C
8000000C
8000000C
8000000C
8000000C
8000000C
8000000C
8000000C
8000000C
8000000C
8000000C
C0000008
C0000008
C0000008
40000018
40000018
60000010
20000030
30000060
18000060
0C0001C0
07000700
01FFFE00
003FD800
00002000
0000C000
00018000
00030000
00020000
00060000
00040000
00040000
00040000
00060000
00060600
0003FC00
ENDCHAR
STARTCHAR 0173
ENCODING 371
SWIDTH 555 0
DWIDTH 37 0
BBX 26 47 6 -13
BITMAP
C0000100
C0000100
C0000100
C0000100
C0000100
C0000100
C0000100
C0000100
C0000100
C0000100
C0000100
C0000100
C0000100
C0000100
C0000100
C0000100
C0000100
C0000100
C0000100
C0000100
C0000100
C0000100
C0000100
C0000100
C0000100
40000100
40000300
60000300
60000300
20000500
30000D00
18001900
0E007100
03FFC100
007E0200
00000400
00001800
00003000
00002000
00004000
0000C000
0000C000
00008000
0000C000
0000C000
000060C0
00003F80
ENDCHAR
STARTCHAR 0174
ENCODING 372
SWIDTH 870 0
DWIDTH 58 0
BBX 54 62 2 0
BITMAP
00000030000000
00000078000000
000000CC000000
00000186000000
00000303000000
00000601800000
00000C00800000
00001800400000
00003000200000
00002000100000
00000000000000
00000000000000
00000000000000
00000000000000
00000000000000
C0000030000004
C000003000000C
4000007800000C
40000068000008
60000048000008
6000004C000018
200000CC000018
20000084000010
30000084000030
30000186000030
10000182000020
18000102000020
18000103000060
18000303000060
08000201000040
0C000201000040
0C0006018000C0
040006018000C0
04000400800080
06000400800080
06000C00C00180
02000C00400180
02000800400100
03000800600300
03001800600300
01001000200200
01001000200200
01803000300600
01803000100600
00802000100400
00C02000180400
00C06000180C00
00404000080C00
00404000080800
0060C0000C0800
0060C000041800
00208000041800
00208000061000
00318000063000
00318000023000
00110000022000
00130000032000
001B0000036000
001A0000016000
000A0000014000
000E000001C000
000E000000C000
ENDCHAR
STARTCHAR 0175
ENCODING 373
SWIDTH 720 0
DWIDTH 48 0
BBX 44 50 2 0
BITMAP
000006000000
00000F000000
000019800000
000030C00000
000020600000
000040300000
000080180000
0001000C0000
000200060000
000400020000
000000000000
000000000000
000000000000
000000000000
000000000000
000000000000
C00006000010
400006000030
400007000020
60000D000020
200009000060
200009800040
300009800040
1000188000C0
1000108000C0
180010C00080
180030400080
080020400180
080020600100
0C0060200100
040040200300
040040300200
0600C0100200
020080100600
020080180400
030080080400
030180080400
010100080C00
0101000C0800
018300040800
008200041800
008200061000
00C600021000
004400023000
004400032000
006C00012000
002800012000
00280001E000
00380000C000
00380000C000
ENDCHAR
STARTCHAR 0176
ENCODING 374
SWIDTH 540 0
DWIDTH 36 0
BBX 34 62 1 0
BITMAP
0000C00000
0001E00000
0003300000
0006180000
00040C0000
0008060000
0010030000
0020018000
004000C000
0080004000
0000000000
0000000000
0000000000
0000000000
0000000000
C0000000C0
6000000080
2000000180
3000000100
1000000300
1800000600
0C00000400
0400000C00
0600000800
0200001800
0300003000
0180002000
0080006000
00C0004000
004000C000
0060018000
0030010000
0010030000
0018020000
0008060000
000C0C0000
0006080000
0002180000
0003100000
0001300000
0001E00000
0000C00000
0000C00000
0000C00000
0000C00000
0000C00000
0000C00000
0000C00000
0000C00000
0000C00000
0000C00000
0000C00000
0000C00000
0000C00000
0000C00000
0000C00000
0000C00000
0000C00000
0000C00000
0000C00000
0000C00000
0000C00000
ENDCHAR
STARTCHAR 0177
ENCODING 375
SWIDTH 450 0
DWIDTH 30 0
BBX 26 63 2 -13
BITMAP
000C0000
001E0000
00330000
00218000
0040C000
00806000
01003000
02001800
04000C00
08000400
00000000
00000000
00000000
00000000
00000000
00000000
80000040
C0000040
C00000C0
40000080
60000180
20000180
20000100
30000300
10000200
18000200
18000600
08000400
0C000400
04000C00
04000800
06001800
02001000
03001000
03003000
01002000
01802000
00806000
00804000
00C0C000
00408000
00408000
00618000
00210000
00310000
00130000
00120000
001A0000
000E0000
000C0000
000C0000
00080000
00080000
00180000
00100000
00300000
00300000
00200000
00600000
00400000
00400000
00C00000
3F800000
ENDCHAR
STARTCHAR 0178
ENCODING 376
SWIDTH 540 0
DWIDTH 36 0
BBX 34 58 1 0
BITMAP
0030030000
0038038000
0038038000
0000000000
0000000000
0000000000
0000000000
0000000000
0000000000
0000000000
0000000000
C0000000C0
6000000080
2000000180
3000000100
1000000300
1800000600
0C00000400
0400000C00
0600000800
0200001800
0300003000
0180002000
0080006000
00C0004000
004000C000
0060018000
0030010000
0010030000
0018020000
0008060000
000C0C0000
0006080000
0002180000
0003100000
0001300000
0001E00000
0000C00000
0000C00000
0000C00000
0000C00000
0000C00000
0000C00000
0000C00000
0000C00000
0000C00000
0000C00000
0000C00000
0000C00000
0000C00000
0000C00000
0000C00000
0000C00000
0000C00000
0000C00000
0000C00000
0000C00000
0000C00000
ENDCHAR
STARTCHAR 0179
ENCODING 377
SWIDTH 555 0
DWIDTH 37 0
BBX 32 62 3 0
BITMAP
00000400
00000C00
00001800
00003000
00002000
00006000
0000C000
00008000
00010000
00030000
00020000
00000000
00000000
00000000
00000000
7FFFFFFE
7FFFFFFE
00000004
0000000C
00000018
00000010
00000030
00000060
00000040
000000C0
00000180
00000100
00000300
00000600
00000400
00000C00
00001800
00001000
00003000
00006000
0000C000
0000C000
00018000
00030000
00030000
00060000
000C0000
00080000
00180000
00300000
00200000
00600000
00C00000
00800000
01800000
03000000
02000000
06000000
0C000000
08000000
18000000
30000000
20000000
60000000
C0000000
80000000
FFFFFFFF
ENDCHAR
STARTCHAR 017A
ENCODING 378
SWIDTH 405 0
DWIDTH 27 0
BBX 24 50 2 0
BITMAP
000040
0000C0
000180
000100
000300
000600
000C00
000800
001800
003000
002000
000000
000000
000000
000000
000000
FFFFFF
FFFFFF
000002
000004
00000C
000018
000010
000030
000060
0000C0
000080
000180
000300
000200
000400
000C00
001800
001000
003000
006000
004000
008000
018000
030000
020000
060000
0C0000
180000
100000
300000
600000
400000
800000
FFFFFF
ENDCHAR
STARTCHAR 017B
ENCODING 379
SWIDTH 555 0
DWIDTH 37 0
BBX 32 58 3 0
BITMAP
00018000
00038000
00018000
00000000
00000000
00000000
00000000
00000000
00000000
00000000
00000000
7FFFFFFE
7FFFFFFE
00000004
0000000C
00000018
00000010
00000030
00000060
00000040
000000C0
00000180
00000100
00000300
00000600
00000400
00000C00
00001800
00001000
00003000
00006000
0000C000
0000C000
00018000
00030000
00030000
00060000
000C0000
00080000
00180000
00300000
00200000
00600000
00C00000
00800000
01800000
03000000
02000000
06000000
0C000000
08000000
18000000
30000000
20000000
60000000
C0000000
80000000
FFFFFFFF
ENDCHAR
STARTCHAR 017C
ENCODING 380
SWIDTH 405 0
DWIDTH 27 0
BBX 24 46 2 0
BITMAP
001800
003C00
001800
000000
000000
000000
000000
000000
000000
000000
000000
000000
FFFFFF
FFFFFF
000002
000004
00000C
000018
000010
000030
000060
0000C0
000080
000180
000300
000200
000400
000C00
001800
001000
003000
006000
004000
008000
018000
030000
020000
060000
0C0000
180000
100000
300000
600000
400000
800000
FFFFFF
ENDCHAR
STARTCHAR 017D
ENCODING 381
SWIDTH 555 0
DWIDTH 37 0
BBX 32 62 3 0
BITMAP
01000080
01800180
00C00300
00600600
00300C00
00181800
000C3000
00066000
0003C000
00018000
00000000
00000000
00000000
00000000
00000000
7FFFFFFE
7FFFFFFE
00000004
0000000C
00000018
00000010
00000030
00000060
00000040
000000C0
00000180
00000100
00000300
00000600
00000400
00000C00
00001800
00001000
00003000
00006000
0000C000
0000C000
00018000
00030000
00030000
00060000
000C0000
00080000
00180000
00300000
00200000
00600000
00C00000
00800000
01800000
03000000
02000000
06000000
0C000000
08000000
18000000
30000000
20000000
60000000
C0000000
80000000
FFFFFFFF
ENDCHAR
STARTCHAR 017E
ENCODING 382
SWIDTH 405 0
DWIDTH 27 0
BBX 24 50 2 0
BITMAP
100008
180018
0C0030
060060
0300C0
018180
00C300
006600
003C00
001800
000000
000000
000000
000000
000000
000000
FFFFFF
FFFFFF
000002
000004
00000C
000018
000010
000030
000060
0000C0
000080
000180
000300
000200
000400
000C00
001800
001000
003000
006000
004000
008000
018000
030000
020000
060000
0C0000
180000
100000
300000
600000
400000
800000
FFFFFF
ENDCHAR
STARTCHAR 018F
ENCODING 399
SWIDTH 675 0
DWIDTH 45 0
BBX 36 48 5 -1
BITMAP
000FFF0000
007803C000
00E0007000
0380001800
0600000C00
0C00000600
0C00000300
1800000300
1000000180
3000000080
20000000C0
60000000C0
2000000040
0000000060
0000000060
0000000060
0000000020
0000000020
0000000020
0000000030
0000000030
0000000030
0000000030
0000000030
FFFFFFFFF0
8000000030
8000000030
8000000030
8000000020
8000000020
C000000020
C000000020
C000000060
4000000060
4000000040
6000000040
60000000C0
2000000080
3000000180
1000000180
1800000300
0C00000600
0600000C00
0300001C00
01C0003000
00F000E000
003FFF8000
0003F80000
ENDCHAR
STARTCHAR 0192
ENCODING 402
SWIDTH 480 0
DWIDTH 32 0
BBX 31 56 0 -9
BITMAP
00001FFE
00007FFE
00004000
00004000
00004000
00004000
00004000
0000C000
0000C000
0000C000
0000C000
0000C000
00008000
00008000
00008000
00008000
00008000
00018000
00018000
00018000
00018000
00018000
00010000
00010000
00010000
1FFFFFFC
00010000
00030000
00030000
00030000
00030000
00030000
00020000
00020000
00020000
00020000
00020000
00060000
00060000
00060000
00060000
00060000
00040000
00040000
00040000
00040000
00040000
000C0000
000C0000
000C0000
000C0000
000C0000
00080000
00080000
00080000
FFF00000
ENDCHAR
STARTCHAR 01A0
ENCODING 416
SWIDTH 675 0
DWIDTH 45 0
BBX 36 55 5 -1
BITMAP
0000000030
0000000030
0000000030
0000000030
0000000030
0000000030
0000000030
000FFFFFE0
007803FFC0
00E0007000
0380001800
0600000C00
0C00000600
0C00000300
1800000300
1000000180
3000000080
20000000C0
60000000C0
4000000040
4000000060
4000000060
C000000060
C000000020
C000000020
8000000020
8000000030
8000000030
8000000030
8000000030
8000000030
8000000030
8000000030
8000000030
8000000030
8000000020
8000000020
C000000020
C000000020
C000000060
4000000060
4000000040
6000000040
60000000C0
2000000080
3000000180
1000000180
1800000300
0C00000600
0600000C00
0300001C00
01C0003000
00F000E000
003FFF8000
0003F80000
ENDCHAR
STARTCHAR 01A1
ENCODING 417
SWIDTH 540 0
DWIDTH 36 0
BBX 28 41 4 -1
BITMAP
00000020
00000020
00000020
00000020
00000020
00040020
00FFFFE0
03801C00
06000600
0C000300
18000180
10000080
300000C0
20000040
60000060
40000020
40000020
C0000030
C0000030
C0000030
C0000030
C0000030
C0000030
C0000030
C0000030
C0000030
C0000030
C0000030
C0000030
40000020
40000020
60000060
60000060
20000040
300000C0
18000180
0C000300
06000600
03801C00
00FFF000
001F8000
ENDCHAR
STARTCHAR 01AF
ENCODING 431
SWIDTH 645 0
DWIDTH 43 0
BBX 35 55 7 -1
BITMAP
0000000020
0000000020
0000000020
0000000020
0000000020
0000000020
0000000020
8000000FE0
8000000FC0
8000000C00
8000000C00
8000000C00
8000000C00
8000000C00
8000000C00
8000000C00
8000000C00
8000000C00
8000000C00
8000000C00
8000000C00
8000000C00
8000000C00
8000000C00
8000000C00
8000000C00
8000000C00
8000000C00
8000000C00
8000000C00
8000000C00
8000000C00
8000000C00
8000000C00
8000000C00
8000000C00
8000000C00
8000000C00
8000000C00
8000000C00
8000000C00
8000000C00
C000000800
C000000800
C000000800
4000001800
4000001800
6000001000
2000003000
3000006000
1800006000
0C0001C000
0700070000
01FFFE0000
003FE00000
ENDCHAR
STARTCHAR 01B0
ENCODING 432
SWIDTH 555 0
DWIDTH 37 0
BBX 29 42 6 -1
BITMAP
00000008
00000008
00000008
00000008
00000008
00000008
00000008
C00001F8
C0000100
C0000100
C0000100
C0000100
C0000100
C0000100
C0000100
C0000100
C0000100
C0000100
C0000100
C0000100
C0000100
C0000100
C0000100
C0000100
C0000100
C0000100
C0000100
C0000100
C0000100
C0000100
C0000100
C0000100
40000100
40000300
60000300
60000300
20000500
30000D00
18001900
0E007100
03FFC100
007E0000
ENDCHAR
STARTCHAR 01FA
ENCODING 506
SWIDTH 600 0
DWIDTH 40 0
BBX 36 73 2 0
BITMAP
0000020000
0000060000
0000040000
00000C0000
0000180000
0000300000
0000600000
0000000000
0000000000
0000000000
0001F80000
0006060000
0004020000
000C030000
0008010000
0008010000
0008010000
000C030000
0004020000
0006060000
0003FC0000
0000600000
0000000000
0000000000
0000000000
0000000000
0000600000
0000600000
0000F00000
0000900000
0000900000
0001980000
0001080000
00030C0000
00030C0000
0002040000
0006060000
0004060000
0004020000
000C030000
0008010000
0008010000
0018018000
0010008000
003000C000
003000C000
0020004000
0060006000
0060006000
0040002000
00C0003000
0080001000
0080001000
0180001800
0100000800
0300000C00
03FFFFFC00
0200000400
0600000600
0600000600
0400000200
0C00000300
0800000100
0800000100
1800000180
1000000080
30000000C0
30000000C0
2000000040
6000000060
6000000060
4000000020
C000000030
ENDCHAR
STARTCHAR 01FB
ENCODING 507
SWIDTH 510 0
DWIDTH 34 0
BBX 29 61 4 0
BITMAP
0000C000
00018000
00030000
00020000
00060000
000C0000
00080000
00000000
00000000
007F0000
00C18000
0180C000
01004000
01006000
01006000
01006000
01004000
01804000
00C0C000
00778000
001C0000
00000000
00000000
00000000
00000000
00180000
01FFC000
07007000
0C001800
18000C00
30000400
20000600
60000200
00000200
00000200
00000300
00000300
00000300
00000300
00000300
00000300
00000300
03FFFF00
0E000300
18000300
30000300
60000300
40000300
C0000300
C0000300
C0000300
C0000300
C0000300
C0000300
C0000700
40000F00
60000B00
30003300
1C00E300
07FF81F8
01FC0000
ENDCHAR
STARTCHAR 01FC
ENCODING 508
SWIDTH 855 0
DWIDTH 57 0
BBX 53 62 0 0
BITMAP
00000000000400
00000000000C00
00000000001800
00000000001800
00000000003000
00000000006000
00000000004000
0000000000C000
00000000018000
00000000030000
00000000020000
00000000000000
00000000000000
00000000000000
00000000000000
0000003FFFFFF8
0000007FFFFFF8
00000058000000
000000D8000000
00000198000000
00000118000000
00000318000000
00000218000000
00000618000000
00000418000000
00000C18000000
00000818000000
00001818000000
00001018000000
00003018000000
00006018000000
00004018000000
0000C018000000
00008018000000
00018018000000
00010018000000
00030018000000
00020018000000
0006001FFFFFF0
000C0018000000
000C0018000000
00180018000000
00100018000000
00300018000000
00200018000000
007FFFF8000000
00400018000000
00C00018000000
00800018000000
01800018000000
03000018000000
03000018000000
06000018000000
04000018000000
0C000018000000
08000018000000
18000018000000
10000018000000
30000018000000
20000018000000
60000018000000
C000001FFFFFF8
ENDCHAR
STARTCHAR 01FD
ENCODING 509
SWIDTH 855 0
DWIDTH 57 0
BBX 49 51 4 -1
BITMAP
00000006000000
00000004000000
0000000C000000
00000018000000
00000030000000
00000020000000
00000060000000
000000C0000000
00000080000000
00000100000000
00000100000000
00000000000000
00000000000000
00000000000000
00000000000000
00180000180000
03FFC003FF8000
0600700E00E000
1C001818003000
10000830001800
20000C60000C00
60000440000600
40000680000200
00000280000300
00000300000100
00000300000100
00000300000180
00000300000080
00000300000080
00000200000080
00000200000080
00000200000080
03FFFFFFFFFF80
0E000200000000
38000200000000
60000200000000
40000200000000
C0000300000000
80000300000000
80000300000000
80000300000000
80000300000000
80000380000180
80000680000100
C00004C0000300
C0000C60000600
60001830000C00
30003018001800
1800E00E007000
0FDF8003FFC000
01FC00007E0000
ENDCHAR
STARTCHAR 01FE
ENCODING 510
SWIDTH 675 0
DWIDTH 45 0
BBX 36 64 5 -2
BITMAP
0000030000
0000030000
0000060000
00000C0000
0000080000
0000180000
0000300000
0000600000
0000400000
0000C00000
0000800000
0000000000
0000000000
0000000020
0000000020
000FFF0060
007803C0C0
00E0007080
0380001980
0600000F00
0C00000600
0C00000700
1800000F00
1000001980
3000001080
20000030C0
60000060C0
4000004040
400000C060
4000018060
C000010060
C000030020
C000060020
80000C0020
8000080030
8000180030
8000300030
8000200030
8000600030
8000C00030
8000800030
8001800030
8003000030
8006000020
8004000020
C00C000020
C018000020
C010000060
4030000060
4060000040
6040000040
20C00000C0
3180000080
3300000180
1B00000180
1E00000300
0C00000600
0E00000C00
1B00001C00
31C0003000
20F000E000
603FFF8000
C003F80000
8000000000
ENDCHAR
STARTCHAR 01FF
ENCODING 511
SWIDTH 540 0
DWIDTH 36 0
BBX 31 52 3 -2
BITMAP
00000800
00001800
00001000
00003000
00006000
0000C000
00008000
00018000
00030000
00020000
00000000
00000000
00000000
00000000
00000006
0003000C
007FF808
00C00E10
03000330
060001E0
0C0000C0
080000E0
18000120
10000330
30000610
30000C10
20000818
20001018
60002018
60006008
6000C008
60018008
60010008
60020008
60060008
600C0008
60180008
60100018
20200018
20600018
20C00010
31800010
11000030
1A000020
0C000060
0C000040
1E000080
33000380
21C00600
407EF800
C00FE000
80000000
ENDCHAR
STARTCHAR 0218
ENCODING 536
SWIDTH 540 0
DWIDTH 36 0
BBX 30 61 3 -14
BITMAP
007FF800
03C00F00
06000180
0C0000E0
18000030
30000010
20000010
60000000
60000000
40000000
40000000
40000000
40000000
40000000
60000000
60000000
20000000
30000000
18000000
0C000000
07000000
01E00000
007F0000
0007F800
00003E00
00000380
000000C0
00000060
00000030
00000010
00000018
00000008
00000008
0000000C
0000000C
0000000C
0000000C
00000008
00000008
00000018
C0000018
60000010
30000030
18000060
0E0000C0
03800380
00FFFE00
000FE000
00000000
00000000
00000000
00010000
00038000
00038000
00018000
00018000
00010000
00010000
00030000
00020000
00040000
ENDCHAR
STARTCHAR 0219
ENCODING 537
SWIDTH 450 0
DWIDTH 30 0
BBX 24 48 3 -13
BITMAP
03FFC0
060070
080018
10000C
300006
200000
200000
600000
600000
600000
200000
200000
300000
180000
0E0000
07C000
00FE00
0007E0
000070
00001C
000004
000006
000002
000003
000003
000003
000003
000003
C00003
600002
300006
18000C
0E0038
03F7E0
007F00
000000
000000
000000
000400
001C00
001C00
000C00
000400
000400
000800
000800
001800
001000
ENDCHAR
STARTCHAR 021A
ENCODING 538
SWIDTH 555 0
DWIDTH 37 0
BBX 35 61 1 -14
BITMAP
FFFFFFFFE0
FFFFFFFFE0
0000400000
0000400000
0000400000
0000400000
0000400000
0000400000
0000400000
0000400000
0000400000
0000400000
0000400000
0000400000
0000400000
0000400000
0000400000
0000400000
0000400000
0000400000
0000400000
0000400000
0000400000
0000400000
0000400000
0000400000
0000400000
0000400000
0000400000
0000400000
0000400000
0000400000
0000400000
0000400000
0000400000
0000400000
0000400000
0000400000
0000400000
0000400000
0000400000
0000400000
0000400000
0000400000
0000400000
0000400000
0000400000
0000000000
0000000000
0000000000
0000000000
0000400000
0000E00000
0000E00000
0000600000
0000200000
0000200000
0000400000
0000400000
0000800000
0001800000
ENDCHAR
STARTCHAR 021B
ENCODING 539
SWIDTH 300 0
DWIDTH 20 0
BBX 16 57 2 -14
BITMAP
0300
0300
0300
0300
0300
0300
0300
0300
0300
FFFF
FFFF
0300
0300
0300
0300
0300
0300
0300
0300
0300
0300
0300
0300
0300
0300
0300
0300
0300
0300
0300
0300
0300
0300
0300
0300
0300
0300
0300
0300
0300
0300
0300
01FE
0000
0000
0000
0000
0020
0070
0070
0030
0010
0010
0020
0020
0040
00C0
ENDCHAR
STARTCHAR 0237
ENCODING 567
SWIDTH 225 0
DWIDTH 15 0
BBX 7 47 1 -13
BITMAP
02
02
02
02
02
02
02
02
02
02
02
02
02
02
02
02
02
02
02
02
02
02
02
02
02
02
02
02
02
02
02
02
02
02
02
02
02
02
02
02
02
02
02
02
02
02
FE
ENDCHAR
STARTCHAR 0259
ENCODING 601
SWIDTH 525 0
DWIDTH 35 0
BBX 28 36 4 -1
BITMAP
000C0000
00FFE000
03803800
06000C00
08000200
10000100
30000180
60000080
400000C0
40000040
00000060
00000060
00000020
00000020
00000020
00000020
00000020
00000030
FFFFFFF0
FFFFFFF0
C0000020
C0000020
C0000020
C0000020
40000020
40000060
60000040
20000040
200000C0
10000080
18000100
0C000300
06000600
03801C00
00FBF000
001F8000
ENDCHAR
STARTCHAR 02BB
ENCODING 699
SWIDTH 600 0
DWIDTH 40 0
BBX 5 10 18 40
BITMAP
18
10
20
60
40
40
40
E0
F0
60
ENDCHAR
STARTCHAR 02BC
ENCODING 700
SWIDTH 600 0
DWIDTH 40 0
BBX 2 11 16 38
BITMAP
40
40
40
40
C0
C0
C0
80
80
80
80
ENDCHAR
STARTCHAR 02C6
ENCODING 710
SWIDTH 600 0
DWIDTH 40 0
BBX 18 10 11 40
BITMAP
00C000
01E000
033000
061800
0C0C00
180600
300300
600180
C000C0
800040
ENDCHAR
STARTCHAR 02C7
ENCODING 711
SWIDTH 600 0
DWIDTH 40 0
BBX 18 10 11 40
BITMAP
800040
C000C0
600180
300300
180600
0C0C00
061800
033000
01E000
00C000
ENDCHAR
STARTCHAR 02D8
ENCODING 728
SWIDTH 600 0
DWIDTH 40 0
BBX 16 8 12 41
BITMAP
8001
8001
4002
6006
300C
1818
0FF0
0380
ENDCHAR
STARTCHAR 02D9
ENCODING 729
SWIDTH 600 0
DWIDTH 40 0
BBX 4 3 18 43
BITMAP
60
F0
60
ENDCHAR
STARTCHAR 02DA
ENCODING 730
SWIDTH 600 0
DWIDTH 40 0
BBX 12 12 14 39
BITMAP
1F80
6060
4020
C030
8010
8010
8010
C030
4020
6060
3FC0
0600
ENDCHAR
STARTCHAR 02DB
ENCODING 731
SWIDTH 600 0
DWIDTH 40 0
BBX 10 14 11 -13
BITMAP
0180
0100
0600
0800
1000
2000
4000
C000
8000
8000
8000
8000
C0C0
7F80
ENDCHAR
STARTCHAR 02DC
ENCODING 732
SWIDTH 600 0
DWIDTH 40 0
BBX 20 5 10 42
BITMAP
0E0000
738000
C06030
003860
000F80
ENDCHAR
STARTCHAR 02DD
ENCODING 733
SWIDTH 600 0
DWIDTH 40 0
BBX 19 11 14 39
BITMAP
010060
030040
0600C0
0C0180
080300
180200
300600
200C00
400800
C01000
801000
ENDCHAR
STARTCHAR 0300
ENCODING 768
SWIDTH 0 0
DWIDTH 0 0
BBX 8 11 -6 39
BITMAP
80
C0
60
20
30
18
0C
04
06
03
01
ENDCHAR
STARTCHAR 0301
ENCODING 769
SWIDTH 0 0
DWIDTH 0 0
BBX 8 11 -2 39
BITMAP
01
03
06
04
0C
18
10
20
60
C0
80
ENDCHAR
STARTCHAR 0302
ENCODING 770
SWIDTH 0 0
DWIDTH 0 0
BBX 18 10 -9 40
BITMAP
00C000
01E000
033000
061800
0C0C00
180600
300300
600180
4000C0
800040
ENDCHAR
STARTCHAR 0303
ENCODING 771
SWIDTH 0 0
DWIDTH 0 0
BBX 20 5 -10 42
BITMAP
1E0000
338000
C06030
003860
000FC0
ENDCHAR
STARTCHAR 0304
ENCODING 772
SWIDTH 0 0
DWIDTH 0 0
BBX 18 1 -9 44
BITMAP
FFFFC0
ENDCHAR
STARTCHAR 0306
ENCODING 774
SWIDTH 0 0
DWIDTH 0 0
BBX 16 8 -8 41
BITMAP
8001
C001
4002
6006
300C
1818
0FF0
0180
ENDCHAR
STARTCHAR 0307
ENCODING 775
SWIDTH 0 0
DWIDTH 0 0
BBX 3 3 -1 43
BITMAP
C0
E0
C0
ENDCHAR
STARTCHAR 0308
ENCODING 776
SWIDTH 0 0
DWIDTH 0 0
BBX 16 3 -8 43
BITMAP
6006
F007
6006
ENDCHAR
STARTCHAR 0309
ENCODING 777
SWIDTH 0 0
DWIDTH 0 0
BBX 11 10 -5 39
BITMAP
FFE0
0060
0040
00C0
0180
0100
0300
0200
0400
0C00
ENDCHAR
STARTCHAR 030A
ENCODING 778
SWIDTH 0 0
DWIDTH 0 0
BBX 12 12 -6 39
BITMAP
1FC0
6060
4020
C030
8010
8010
8010
C030
4020
6060
3FC0
0600
ENDCHAR
STARTCHAR 030B
ENCODING 779
SWIDTH 0 0
DWIDTH 0 0
BBX 19 11 -6 39
BITMAP
010060
030040
0600C0
040180
0C0300
180200
300600
200C00
600800
C01000
801000
ENDCHAR
STARTCHAR 030C
ENCODING 780
SWIDTH 0 0
DWIDTH 0 0
BBX 18 10 -9 40
BITMAP
800040
C000C0
600180
300300
180600
0C0C00
061800
033000
01E000
00C000
ENDCHAR
STARTCHAR 0312
ENCODING 786
SWIDTH 0 0
DWIDTH 0 0
BBX 4 10 -1 40
BITMAP
30
20
40
40
80
80
80
C0
E0
C0
ENDCHAR
STARTCHAR 0315
ENCODING 789
SWIDTH 0 0
DWIDTH 0 0
BBX 3 11 0 38
BITMAP
60
60
40
40
40
40
C0
C0
C0
80
80
ENDCHAR
STARTCHAR 031B
ENCODING 795
SWIDTH 0 0
DWIDTH 0 0
BBX 7 8 -5 33
BITMAP
06
06
06
06
06
06
06
FE
ENDCHAR
STARTCHAR 0323
ENCODING 803
SWIDTH 0 0
DWIDTH 0 0
BBX 4 3 -2 -9
BITMAP
60
F0
60
ENDCHAR
STARTCHAR 0326
ENCODING 806
SWIDTH 0 0
DWIDTH 0 0
BBX 4 9 -2 -13
BITMAP
F0
F0
60
20
20
20
40
40
80
ENDCHAR
STARTCHAR 0327
ENCODING 807
SWIDTH 0 0
DWIDTH 0 0
BBX 11 13 -5 -13
BITMAP
0C00
0800
0800
0800
1800
1F80
0040
0060
0020
0020
0060
C0C0
3F80
ENDCHAR
STARTCHAR 0328
ENCODING 808
SWIDTH 0 0
DWIDTH 0 0
BBX 10 14 -9 -13
BITMAP
0180
0100
0600
0800
1000
2000
4000
C000
8000
8000
8000
8000
C0C0
7F80
ENDCHAR
STARTCHAR 037E
ENCODING 894
SWIDTH 255 0
DWIDTH 17 0
BBX 6 43 4 -10
BITMAP
1C
1C
1C
1C
00
00
00
00
00
00
00
00
00
00
00
00
00
00
00
00
00
00
00
00
00
00
00
00
00
08
1C
1C
1C
04
04
0C
08
08
18
10
20
60
C0
ENDCHAR
STARTCHAR 0384
ENCODING 900
SWIDTH 600 0
DWIDTH 40 0
BBX 6 11 19 39
BITMAP
0C
0C
08
18
10
30
20
60
40
40
80
ENDCHAR
STARTCHAR 0385
ENCODING 901
SWIDTH 600 0
DWIDTH 40 0
BBX 16 11 12 39
BITMAP
0060
0060
0040
00C0
6086
E187
6106
0300
0200
0200
0400
ENDCHAR
STARTCHAR 0386
ENCODING 902
SWIDTH 600 0
DWIDTH 40 0
BBX 36 50 2 0
BITMAP
00C0000000
0080000000
0180000000
0100600000
0300600000
0300F00000
0200900000
0600900000
0401980000
0C01080000
08030C0000
00030C0000
0002040000
0006060000
0004060000
0004020000
000C030000
0008010000
0008010000
0018018000
0010008000
003000C000
003000C000
0020004000
0060006000
0060006000
0040002000
00C0003000
0080001000
0080001000
0180001800
0100000800
0300000C00
03FFFFFC00
0200000400
0600000600
0600000600
0400000200
0C00000300
0800000100
0800000100
1800000180
1000000080
30000000C0
30000000C0
2000000040
6000000060
6000000060
4000000020
C000000030
ENDCHAR
STARTCHAR 0387
ENCODING 903
SWIDTH 255 0
DWIDTH 17 0
BBX 3 4 7 29
BITMAP
E0
E0
E0
E0
ENDCHAR
STARTCHAR 0388
ENCODING 904
SWIDTH 570 0
DWIDTH 38 0
BBX 35 50 -1 0
BITMAP
0C00000000
1800000000
1800000000
103FFFFFE0
303FFFFFE0
2020000000
6020000000
4020000000
C020000000
8020000000
8020000000
0020000000
0020000000
0020000000
0020000000
0020000000
0020000000
0020000000
0020000000
0020000000
0020000000
0020000000
0020000000
0020000000
0020000000
0020000000
003FFFFFC0
0020000000
0020000000
0020000000
0020000000
0020000000
0020000000
0020000000
0020000000
0020000000
0020000000
0020000000
0020000000
0020000000
0020000000
0020000000
0020000000
0020000000
0020000000
0020000000
0020000000
0020000000
0020000000
003FFFFFE0
ENDCHAR
STARTCHAR 0389
ENCODING 905
SWIDTH 705 0
DWIDTH 47 0
BBX 41 50 -1 0
BITMAP
0C0000000000
180000000000
180000000000
102000000080
302000000080
202000000080
602000000080
402000000080
C02000000080
802000000080
802000000080
002000000080
002000000080
002000000080
002000000080
002000000080
002000000080
002000000080
002000000080
002000000080
002000000080
002000000080
002000000080
002000000080
002000000080
002000000080
003FFFFFFF80
002000000080
002000000080
002000000080
002000000080
002000000080
002000000080
002000000080
002000000080
002000000080
002000000080
002000000080
002000000080
002000000080
002000000080
002000000080
002000000080
002000000080
002000000080
002000000080
002000000080
002000000080
002000000080
002000000080
ENDCHAR
STARTCHAR 038A
ENCODING 906
SWIDTH 420 0
DWIDTH 28 0
BBX 25 50 -1 0
BITMAP
0C000000
18000000
18000000
107FFF80
307FFF80
2000C000
6000C000
4000C000
C000C000
8000C000
8000C000
0000C000
0000C000
0000C000
0000C000
0000C000
0000C000
0000C000
0000C000
0000C000
0000C000
0000C000
0000C000
0000C000
0000C000
0000C000
0000C000
0000C000
0000C000
0000C000
0000C000
0000C000
0000C000
0000C000
0000C000
0000C000
0000C000
0000C000
0000C000
0000C000
0000C000
0000C000
0000C000
0000C000
0000C000
0000C000
0000C000
0000C000
0000C000
007FFF80
ENDCHAR
STARTCHAR 038C
ENCODING 908
SWIDTH 675 0
DWIDTH 45 0
BBX 42 51 -1 -1
BITMAP
0C0000000000
180000000000
180000000000
10003FFC0000
3001E00F0000
20038001C000
600E00006000
401800003000
C03000001800
803000000C00
806000000C00
004000000600
00C000000200
008000000300
018000000300
010000000100
010000000180
010000000180
030000000180
030000000080
030000000080
020000000080
0200000000C0
0200000000C0
0200000000C0
0200000000C0
0200000000C0
0200000000C0
0200000000C0
0200000000C0
0200000000C0
020000000080
020000000080
030000000080
030000000080
030000000180
010000000180
010000000100
018000000100
018000000300
008000000200
00C000000600
004000000600
006000000C00
003000001800
001800003000
000C00007000
00070000C000
0003C0038000
0000FFFE0000
00000FE00000
ENDCHAR
STARTCHAR 038E
ENCODING 910
SWIDTH 615 0
DWIDTH 41 0
BBX 41 50 -1 0
BITMAP
0C0000000000
180000000000
180000000000
108000000080
30C000000180
206000000100
602000000300
403000000600
C01000000400
801800000C00
800C00000800
000400001800
000600003000
000200002000
000300006000
000180004000
00018000C000
0000C0018000
000040010000
000060030000
000030020000
000030060000
0000180C0000
000008080000
00000C180000
000006100000
000006300000
000003600000
000001400000
000001C00000
000000800000
000000800000
000000800000
000000800000
000000800000
000000800000
000000800000
000000800000
000000800000
000000800000
000000800000
000000800000
000000800000
000000800000
000000800000
000000800000
000000800000
000000800000
000000800000
000000800000
ENDCHAR
STARTCHAR 038F
ENCODING 911
SWIDTH 690 0
DWIDTH 46 0
BBX 43 50 -1 0
BITMAP
0C0000000000
180000000000
180000000000
10003FFE0000
3000F0078000
20038000E000
600E00007000
401C00001800
C01800000C00
803000000600
806000000200
004000000300
00C000000100
008000000180
018000000080
018000000080
0100000000C0
0100000000C0
030000000040
030000000040
030000000040
030000000040
030000000040
030000000060
030000000060
030000000060
030000000060
030000000040
030000000040
030000000040
030000000040
030000000040
0100000000C0
0100000000C0
018000000080
018000000180
00C000000180
00C000000300
006000000300
006000000600
003000000400
001800000C00
000C00001800
000600003000
000300006000
000180018000
000060070000
000030040000
000030040000
03FFF007FFC0
ENDCHAR
STARTCHAR 0390
ENCODING 912
SWIDTH 255 0
DWIDTH 17 0
BBX 15 50 1 0
BITMAP
0060
0040
00C0
0080
E186
E10E
E10E
0300
0200
0600
0400
0000
0000
0000
0000
0000
0200
0200
0200
0200
0200
0200
0200
0200
0200
0200
0200
0200
0200
0200
0200
0200
0200
0200
0200
0200
0200
0200
0200
0200
0200
0200
0200
0200
0200
0200
0200
0200
0200
03FE
ENDCHAR
STARTCHAR 0391
ENCODING 913
SWIDTH 600 0
DWIDTH 40 0
BBX 36 47 2 0
BITMAP
0000600000
0000600000
0000F00000
0000900000
0000900000
0001980000
0001080000
00030C0000
00030C0000
0002040000
0006060000
0004060000
0004020000
000C030000
0008010000
0008010000
0018018000
0010008000
003000C000
003000C000
0020004000
0060006000
0060006000
0040002000
00C0003000
0080001000
0080001000
0180001800
0100000800
0300000C00
03FFFFFC00
0200000400
0600000600
0600000600
0400000200
0C00000300
0800000100
0800000100
1800000180
1000000080
30000000C0
30000000C0
2000000040
6000000060
6000000060
4000000020
C000000030
ENDCHAR
STARTCHAR 0392
ENCODING 914
SWIDTH 615 0
DWIDTH 41 0
BBX 30 47 7 0
BITMAP
FFFF8000
FFFFFC00
C0000700
C0000180
C00000C0
C0000040
C0000060
C0000060
C0000020
C0000020
C0000020
C0000030
C0000030
C0000020
C0000020
C0000020
C0000060
C0000060
C00000C0
C0000180
C0000300
C0000E00
FFFFFC00
C0000700
C00000C0
C0000060
C0000030
C0000010
C0000018
C0000008
C0000008
C0000008
C000000C
C000000C
C000000C
C000000C
C000000C
C0000008
C0000008
C0000018
C0000018
C0000030
C0000030
C0000060
C00001C0
C0000F00
FFFFFC00
ENDCHAR
STARTCHAR 0393
ENCODING 915
SWIDTH 495 0
DWIDTH 33 0
BBX 24 47 7 0
BITMAP
FFFFFF
FFFFFF
C00000
C00000
C00000
C00000
C00000
C00000
C00000
C00000
C00000
C00000
C00000
C00000
C00000
C00000
C00000
C00000
C00000
C00000
C00000
C00000
C00000
C00000
C00000
C00000
C00000
C00000
C00000
C00000
C00000
C00000
C00000
C00000
C00000
C00000
C00000
C00000
C00000
C00000
C00000
C00000
C00000
C00000
C00000
C00000
C00000
ENDCHAR
STARTCHAR 0394
ENCODING 916
SWIDTH 600 0
DWIDTH 40 0
BBX 34 47 3 0
BITMAP
0000C00000
0000C00000
0001E00000
0001200000
0001200000
0003300000
0002100000
0006180000
0006180000
0004080000
000C0C0000
0008040000
0008040000
0018060000
0010020000
0010020000
0030030000
0020010000
0060018000
0060018000
0040008000
00C000C000
00C000C000
0080004000
0180006000
0100002000
0100002000
0300003000
0200001000
0600001800
0600001800
0400000800
0C00000C00
0C00000C00
0800000400
1800000600
1000000200
1000000200
3000000300
2000000100
6000000180
6000000180
4000000080
C0000000C0
C0000000C0
8000000040
FFFFFFFFC0
ENDCHAR
STARTCHAR 0395
ENCODING 917
SWIDTH 555 0
DWIDTH 37 0
BBX 26 47 7 0
BITMAP
FFFFFFC0
FFFFFFC0
C0000000
C0000000
C0000000
C0000000
C0000000
C0000000
C0000000
C0000000
C0000000
C0000000
C0000000
C0000000
C0000000
C0000000
C0000000
C0000000
C0000000
C0000000
C0000000
C0000000
C0000000
FFFFFF80
C0000000
C0000000
C0000000
C0000000
C0000000
C0000000
C0000000
C0000000
C0000000
C0000000
C0000000
C0000000
C0000000
C0000000
C0000000
C0000000
C0000000
C0000000
C0000000
C0000000
C0000000
C0000000
FFFFFFC0
ENDCHAR
STARTCHAR 0396
ENCODING 918
SWIDTH 555 0
DWIDTH 37 0
BBX 32 47 3 0
BITMAP
7FFFFFFE
7FFFFFFE
00000004
0000000C
00000018
00000010
00000030
00000060
00000040
000000C0
00000180
00000100
00000300
00000600
00000400
00000C00
00001800
00001000
00003000
00006000
0000C000
0000C000
00018000
00030000
00030000
00060000
000C0000
00080000
00180000
00300000
00200000
00600000
00C00000
00800000
01800000
03000000
02000000
06000000
0C000000
08000000
18000000
30000000
20000000
60000000
C0000000
80000000
FFFFFFFF
ENDCHAR
STARTCHAR 0397
ENCODING 919
SWIDTH 690 0
DWIDTH 46 0
BBX 32 47 7 0
BITMAP
C0000003
C0000003
C0000003
C0000003
C0000003
C0000003
C0000003
C0000003
C0000003
C0000003
C0000003
C0000003
C0000003
C0000003
C0000003
C0000003
C0000003
C0000003
C0000003
C0000003
C0000003
C0000003
C0000003
FFFFFFFF
C0000003
C0000003
C0000003
C0000003
C0000003
C0000003
C0000003
C0000003
C0000003
C0000003
C0000003
C0000003
C0000003
C0000003
C0000003
C0000003
C0000003
C0000003
C0000003
C0000003
C0000003
C0000003
C0000003
ENDCHAR
STARTCHAR 0398
ENCODING 920
SWIDTH 675 0
DWIDTH 45 0
BBX 36 48 5 -1
BITMAP
000FFF0000
007803C000
00E0007000
0380001800
0600000C00
0C00000600
0C00000300
1800000300
1000000180
3000000080
20000000C0
60000000C0
4000000040
4000000060
4000000060
C000000060
C000000020
C000000020
8000000020
8000000030
8000000030
8000000030
8000000030
81FFFFF030
8000000030
8000000030
8000000030
8000000030
8000000020
8000000020
C000000020
C000000020
C000000060
4000000060
4000000040
6000000040
60000000C0
2000000080
3000000180
1000000180
1800000300
0C00000600
0600000C00
0300001C00
01C0003000
00F000E000
003FFF8000
0003F80000
ENDCHAR
STARTCHAR 0399
ENCODING 921
SWIDTH 360 0
DWIDTH 24 0
BBX 15 47 5 0
BITMAP
FFFE
FFFE
0100
0100
0100
0100
0100
0100
0100
0100
0100
0100
0100
0100
0100
0100
0100
0100
0100
0100
0100
0100
0100
0100
0100
0100
0100
0100
0100
0100
0100
0100
0100
0100
0100
0100
0100
0100
0100
0100
0100
0100
0100
0100
0100
0100
FFFE
ENDCHAR
STARTCHAR 039A
ENCODING 922
SWIDTH 570 0
DWIDTH 38 0
BBX 30 47 7 0
BITMAP
C000000C
C0000018
C0000030
C0000060
C00000C0
C0000180
C0000300
C0000600
C0000C00
C0000800
C0001000
C0003000
C0006000
C000C000
C0018000
C0030000
C0060000
C00C0000
C0180000
C0300000
C0300000
C0580000
C0C80000
C18C0000
C3060000
C6020000
CC030000
D8018000
F0008000
E000C000
C0006000
C0002000
C0003000
C0001800
C0000800
C0000C00
C0000600
C0000200
C0000300
C0000180
C0000080
C00000C0
C0000060
C0000020
C0000030
C0000018
C0000008
ENDCHAR
STARTCHAR 039B
ENCODING 923
SWIDTH 585 0
DWIDTH 39 0
BBX 35 47 2 0
BITMAP
0000600000
0000E00000
0000A00000
0000B00000
0001900000
0001100000
0001180000
0003080000
00020C0000
00060C0000
0006040000
0004060000
000C060000
0008020000
0008030000
0018010000
0010010000
0010018000
0030008000
0020008000
002000C000
0060004000
0040006000
00C0006000
00C0002000
0080003000
0180003000
0180001000
0100001800
0300001800
0300000800
0200000C00
0600000400
0400000400
0400000600
0C00000200
0800000200
1800000300
1800000100
1000000180
3000000180
3000000080
20000000C0
60000000C0
6000000040
4000000060
C000000060
ENDCHAR
STARTCHAR 039C
ENCODING 924
SWIDTH 795 0
DWIDTH 53 0
BBX 39 47 7 0
BITMAP
C000000006
E00000000E
F00000001E
D000000016
D800000036
C800000026
CC00000066
C6000000C6
C200000086
C300000186
C180000106
C180000306
C0C0000606
C040000406
C060000C06
C030000806
C010001806
C018003006
C008002006
C00C006006
C006004006
C002008006
C003018006
C001010006
C001830006
C000C60006
C000440006
C0006C0006
C000380006
C000380006
C000100006
C000000006
C000000006
C000000006
C000000006
C000000006
C000000006
C000000006
C000000006
C000000006
C000000006
C000000006
C000000006
C000000006
C000000006
C000000006
C000000006
ENDCHAR
STARTCHAR 039D
ENCODING 925
SWIDTH 690 0
DWIDTH 46 0
BBX 32 47 7 0
BITMAP
C0000001
E0000001
F0000001
D0000001
D8000001
C8000001
CC000001
C6000001
C2000001
C3000001
C1800001
C0800001
C0C00001
C0400001
C0600001
C0300001
C0100001
C0180001
C00C0001
C0040001
C0060001
C0030001
C0030001
C0018001
C0008001
C000C001
C0006001
C0002001
C0003001
C0001801
C0001801
C0000C01
C0000401
C0000601
C0000301
C0000101
C0000181
C00000C1
C00000C1
C0000061
C0000021
C0000031
C0000019
C0000009
C000000D
C0000007
C0000007
ENDCHAR
STARTCHAR 039E
ENCODING 926
SWIDTH 555 0
DWIDTH 37 0
BBX 27 47 5 0
BITMAP
FFFFFFE0
FFFFFFE0
00000000
00000000
00000000
00000000
00000000
00000000
00000000
00000000
00000000
00000000
00000000
00000000
00000000
00000000
00000000
00000000
00000000
00000000
00000000
00000000
00000000
3FFFFF80
00000000
00000000
00000000
00000000
00000000
00000000
00000000
00000000
00000000
00000000
00000000
00000000
00000000
00000000
00000000
00000000
00000000
00000000
00000000
00000000
00000000
00000000
FFFFFFE0
ENDCHAR
STARTCHAR 039F
ENCODING 927
SWIDTH 675 0
DWIDTH 45 0
BBX 36 48 5 -1
BITMAP
000FFF0000
007803C000
00E0007000
0380001800
0600000C00
0C00000600
0C00000300
1800000300
1000000180
3000000080
20000000C0
60000000C0
4000000040
4000000060
4000000060
C000000060
C000000020
C000000020
8000000020
8000000030
8000000030
8000000030
8000000030
8000000030
8000000030
8000000030
8000000030
8000000030
8000000020
8000000020
C000000020
C000000020
C000000060
4000000060
4000000040
6000000040
60000000C0
2000000080
3000000180
1000000180
1800000300
0C00000600
0600000C00
0300001C00
01C0003000
00F000E000
003FFF8000
0003F80000
ENDCHAR
STARTCHAR 03A0
ENCODING 928
SWIDTH 675 0
DWIDTH 45 0
BBX 31 47 7 0
BITMAP
FFFFFFFE
FFFFFFFE
C0000002
C0000002
C0000002
C0000002
C0000002
C0000002
C0000002
C0000002
C0000002
C0000002
C0000002
C0000002
C0000002
C0000002
C0000002
C0000002
C0000002
C0000002
C0000002
C0000002
C0000002
C0000002
C0000002
C0000002
C0000002
C0000002
C0000002
C0000002
C0000002
C0000002
C0000002
C0000002
C0000002
C0000002
C0000002
C0000002
C0000002
C0000002
C0000002
C0000002
C0000002
C0000002
C0000002
C0000002
C0000002
ENDCHAR
STARTCHAR 03A1
ENCODING 929
SWIDTH 585 0
DWIDTH 39 0
BBX 30 47 7 0
BITMAP
FFFFC000
FFFFFF00
C0000380
C00000C0
C0000060
C0000030
C0000010
C0000018
C0000008
C0000008
C000000C
C000000C
C000000C
C000000C
C000000C
C000000C
C0000008
C0000008
C0000018
C0000010
C0000030
C0000060
C00000C0
C0000380
FFFFFE00
FFFFC000
C0000000
C0000000
C0000000
C0000000
C0000000
C0000000
C0000000
C0000000
C0000000
C0000000
C0000000
C0000000
C0000000
C0000000
C0000000
C0000000
C0000000
C0000000
C0000000
C0000000
C0000000
ENDCHAR
STARTCHAR 03A3
ENCODING 931
SWIDTH 570 0
DWIDTH 38 0
BBX 31 47 3 0
BITMAP
7FFFFFFE
7FFFFFFE
60000000
30000000
18000000
08000000
04000000
06000000
03000000
01800000
00C00000
00400000
00200000
00300000
00180000
000C0000
00060000
00030000
00010000
00018000
0000C000
00006000
00003000
00001000
00003000
00006000
0000C000
00018000
00030000
00020000
00060000
000C0000
00180000
00300000
00600000
00400000
00C00000
01800000
03000000
06000000
04000000
08000000
18000000
30000000
60000000
C0000000
FFFFFFFE
ENDCHAR
STARTCHAR 03A4
ENCODING 932
SWIDTH 555 0
DWIDTH 37 0
BBX 35 47 1 0
BITMAP
FFFFFFFFE0
FFFFFFFFE0
0000400000
0000400000
0000400000
0000400000
0000400000
0000400000
0000400000
0000400000
0000400000
0000400000
0000400000
0000400000
0000400000
0000400000
0000400000
0000400000
0000400000
0000400000
0000400000
0000400000
0000400000
0000400000
0000400000
0000400000
0000400000
0000400000
0000400000
0000400000
0000400000
0000400000
0000400000
0000400000
0000400000
0000400000
0000400000
0000400000
0000400000
0000400000
0000400000
0000400000
0000400000
0000400000
0000400000
0000400000
0000400000
ENDCHAR
STARTCHAR 03A5
ENCODING 933
SWIDTH 540 0
DWIDTH 36 0
BBX 34 47 1 0
BITMAP
C0000000C0
6000000080
2000000180
3000000100
1000000300
1800000600
0C00000400
0400000C00
0600000800
0200001800
0300003000
0180002000
0080006000
00C0004000
004000C000
0060018000
0030010000
0010030000
0018020000
0008060000
000C0C0000
0006080000
0002180000
0003100000
0001300000
0001E00000
0000C00000
0000C00000
0000C00000
0000C00000
0000C00000
0000C00000
0000C00000
0000C00000
0000C00000
0000C00000
0000C00000
0000C00000
0000C00000
0000C00000
0000C00000
0000C00000
0000C00000
0000C00000
0000C00000
0000C00000
0000C00000
ENDCHAR
STARTCHAR 03A6
ENCODING 934
SWIDTH 825 0
DWIDTH 55 0
BBX 47 50 4 -2
BITMAP
000001000000
000001000000
000001000000
00003FFC0000
0007FFFFE000
003C01007800
00E001000E00
01C001000700
030001000180
0600010000C0
0C0001000060
080001000020
180001000030
100001000018
300001000018
200001000008
60000100000C
60000100000C
400001000004
400001000004
400001000004
C00001000006
C00001000006
C00001000006
C00001000006
C00001000006
C00001000006
400001000006
400001000004
400001000004
400001000004
60000100000C
60000100000C
200001000008
300001000018
100001000010
180001000030
080001000020
0C0001000060
0600010000C0
030001000180
01C001000700
007001001C00
003E0100F800
0007FFFFC000
00002FE00000
000001000000
000001000000
000001000000
000001000000
ENDCHAR
STARTCHAR 03A7
ENCODING 935
SWIDTH 555 0
DWIDTH 37 0
BBX 33 47 2 0
BITMAP
C000000180
6000000300
3000000200
3000000600
1800000C00
0C00000800
0C00001800
0600003000
0300002000
0300006000
018000C000
00C0008000
00C0018000
0060030000
0030020000
0030060000
00180C0000
000C080000
000C180000
0006300000
0003200000
0003600000
0001C00000
0000C00000
0001C00000
0003600000
0002300000
0006100000
000C180000
00080C0000
0018040000
0030060000
0020030000
0060010000
00C0018000
008000C000
0180004000
0300006000
0200003000
0600001000
0C00001800
0800000C00
1800000400
3000000600
2000000300
6000000100
C000000180
ENDCHAR
STARTCHAR 03A8
ENCODING 936
SWIDTH 750 0
DWIDTH 50 0
BBX 40 47 5 0
BITMAP
C000180003
C000180003
C000180003
C000180003
C000180003
C000180003
C000180003
C000180003
C000180003
C000180003
C000180003
C000180003
C000180003
C000180003
C000180003
C000180003
C000180003
C000180003
C000180002
4000180002
4000180002
4000180006
6000180006
2000180004
300018000C
300018000C
1800180018
0C00180030
0600180060
03001800C0
01C0180380
007E187E00
0007FFF000
0000180000
0000180000
0000180000
0000180000
0000180000
0000180000
0000180000
0000180000
0000180000
0000180000
0000180000
0000180000
0000180000
0000180000
ENDCHAR
STARTCHAR 03A9
ENCODING 937
SWIDTH 690 0
DWIDTH 46 0
BBX 37 47 5 0
BITMAP
000FFF8000
003C01E000
00E0003800
0380001C00
0700000600
0600000300
0C00000180
1800000080
10000000C0
3000000040
2000000060
6000000020
6000000020
4000000030
4000000030
C000000010
C000000010
C000000010
C000000010
C000000010
C000000018
C000000018
C000000018
C000000018
C000000010
C000000010
C000000010
C000000010
C000000010
4000000030
4000000030
6000000020
6000000060
3000000060
30000000C0
18000000C0
1800000180
0C00000100
0600000300
0300000600
0180000C00
00C0001800
0060006000
001801C000
000C010000
000C010000
FFFC01FFF0
ENDCHAR
STARTCHAR 03AA
ENCODING 938
SWIDTH 360 0
DWIDTH 24 0
BBX 15 58 5 0
BITMAP
C00E
E00E
E00E
0000
0000
0000
0000
0000
0000
0000
0000
FFFE
FFFE
0100
0100
0100
0100
0100
0100
0100
0100
0100
0100
0100
0100
0100
0100
0100
0100
0100
0100
0100
0100
0100
0100
0100
0100
0100
0100
0100
0100
0100
0100
0100
0100
0100
0100
0100
0100
0100
0100
0100
0100
0100
0100
0100
0100
FFFE
ENDCHAR
STARTCHAR 03AB
ENCODING 939
SWIDTH 540 0
DWIDTH 36 0
BBX 34 58 1 0
BITMAP
0030030000
0038038000
0038038000
0000000000
0000000000
0000000000
0000000000
0000000000
0000000000
0000000000
0000000000
C0000000C0
6000000080
2000000180
3000000100
1000000300
1800000600
0C00000400
0400000C00
0600000800
0200001800
0300003000
0180002000
0080006000
00C0004000
004000C000
0060018000
0030010000
0010030000
0018020000
0008060000
000C0C0000
0006080000
0002180000
0003100000
0001300000
0001E00000
0000C00000
0000C00000
0000C00000
0000C00000
0000C00000
0000C00000
0000C00000
0000C00000
0000C00000
0000C00000
0000C00000
0000C00000
0000C00000
0000C00000
0000C00000
0000C00000
0000C00000
0000C00000
0000C00000
0000C00000
0000C00000
ENDCHAR
STARTCHAR 03AC
ENCODING 940
SWIDTH 630 0
DWIDTH 42 0
BBX 36 51 4 -1
BITMAP
0000600000
0000400000
0000C00000
0000C00000
0000800000
0001800000
0001000000
0003000000
0002000000
0006000000
0004000000
0000000000
0000000000
0000000000
0000000000
000C000000
00FFC00080
0380700180
0600180100
0C000C0100
1800060300
1000020200
3000030200
2000010600
6000018400
4000008400
4000008C00
C000008800
C00000C800
C000005800
C000005000
C000007000
C000002000
C000002000
C000007000
C000005000
C000005000
C00000D000
C000009800
4000008800
4000018800
6000010800
6000030C00
2000020400
3000060400
1800040400
08000C0600
0600180600
0300700200
01F7C003F0
003E000000
ENDCHAR
STARTCHAR 03AD
ENCODING 941
SWIDTH 525 0
DWIDTH 35 0
BBX 26 51 5 -1
BITMAP
0000C000
0000C000
00008000
00018000
00010000
00030000
00020000
00060000
00040000
00040000
00080000
00000000
00000000
00000000
00000000
000E0000
01FFF000
07001C00
0C000700
18000180
30000080
30000000
20000000
20000000
20000000
20000000
30000000
30000000
10000000
18000000
0E000000
03800000
00FFF000
07800000
0C000000
10000000
20000000
60000000
40000000
40000000
C0000000
C0000000
40000000
40000000
40000040
600000C0
30000180
18000300
0E000E00
03F7F800
007F0000
ENDCHAR
STARTCHAR 03AE
ENCODING 942
SWIDTH 555 0
DWIDTH 37 0
BBX 29 63 2 -13
BITMAP
00000600
00000C00
00000C00
00000800
00001800
00001000
00003000
00002000
00006000
00004000
00004000
00000000
00000000
00000000
00000000
00000000
FC0FFE00
FE380380
026000C0
02C00060
02800030
03000010
03000018
02000018
02000008
02000008
02000008
02000008
02000008
02000008
02000008
02000008
02000008
02000008
02000008
02000008
02000008
02000008
02000008
02000008
02000008
02000008
02000008
02000008
02000008
02000008
02000008
02000008
02000008
02000008
00000008
00000008
00000008
00000008
00000008
00000008
00000008
00000008
00000008
00000008
00000008
00000008
00000008
ENDCHAR
STARTCHAR 03AF
ENCODING 943
SWIDTH 255 0
DWIDTH 17 0
BBX 9 50 7 0
BITMAP
0400
0C00
0800
1800
1000
3000
2000
2000
4000
4000
C000
0000
0000
0000
0000
0000
8000
8000
8000
8000
8000
8000
8000
8000
8000
8000
8000
8000
8000
8000
8000
8000
8000
8000
8000
8000
8000
8000
8000
8000
8000
8000
8000
8000
8000
8000
8000
8000
8000
FF80
ENDCHAR
STARTCHAR 03B0
ENCODING 944
SWIDTH 540 0
DWIDTH 36 0
BBX 24 51 6 -1
BITMAP
000300
000200
000600
000400
070C70
070870
070870
001000
001000
003000
002000
000000
000000
000000
000000
000000
C00001
C00001
C00001
C00001
C00001
C00001
C00001
C00001
C00001
C00001
C00001
C00001
C00001
C00001
C00001
C00001
C00001
C00001
C00001
C00001
C00001
C00001
C00001
400003
400003
400003
400002
600002
200006
300004
10000C
180018
0E0030
03F7E0
007E00
ENDCHAR
STARTCHAR 03B1
ENCODING 945
SWIDTH 630 0
DWIDTH 42 0
BBX 36 36 4 -1
BITMAP
000C000000
00FFC00080
0380700180
0600180100
0C000C0100
1800060300
1000020200
3000030200
2000010600
6000018400
4000008400
4000008C00
C000008800
C00000C800
C000005800
C000005000
C000007000
C000002000
C000002000
C000007000
C000005000
C000005000
C00000D000
C000009800
4000008800
4000018800
6000010800
6000030C00
2000020400
3000060400
1800040400
08000C0600
0600180600
0300700200
01F7C003F0
003E000000
ENDCHAR
STARTCHAR 03B2
ENCODING 946
SWIDTH 555 0
DWIDTH 37 0
BBX 27 63 7 -13
BITMAP
00FF0000
0381E000
0C003000
18001800
10000C00
30000600
20000200
60000200
40000300
40000100
C0000100
C0000100
C0000100
80000100
80000300
80000300
80000200
80000600
80000400
80000C00
80001000
80006000
81FF8000
81FFE000
80003800
80000C00
80000200
80000100
80000180
80000080
800000C0
80000040
80000040
80000040
80000060
80000060
80000060
80000060
80000060
80000040
80000040
80000040
C00000C0
C0000080
E0000180
A0000300
90000600
8C000C00
86003800
83F7E000
803F0000
80000000
80000000
80000000
80000000
80000000
80000000
80000000
80000000
80000000
80000000
80000000
80000000
ENDCHAR
STARTCHAR 03B3
ENCODING 947
SWIDTH 465 0
DWIDTH 31 0
BBX 30 47 0 -13
BITMAP
F800000C
F8000008
0C000018
04000010
04000010
06000030
02000020
03000060
03000060
01000040
018000C0
01800080
00800080
00C00180
00400100
00400300
00600200
00200200
00200600
00300400
00100400
00100C00
00180800
00081800
000C1000
000C1000
00043000
00062000
00022000
00026000
00024000
00014000
00018000
00018000
00018000
00018000
00018000
00018000
00018000
00018000
00018000
00018000
00018000
00018000
00018000
00018000
00018000
ENDCHAR
STARTCHAR 03B4
ENCODING 948
SWIDTH 540 0
DWIDTH 36 0
BBX 28 50 4 -1
BITMAP
1FFFFFC0
08000000
04000000
02000000
01800000
00C00000
00600000
00300000
00180000
000C0000
00060000
00030000
00018000
0000C000
00006000
0001F000
003E1800
00E00C00
01800600
06000200
0C000300
18000180
10000080
300000C0
20000040
60000060
40000020
40000020
C0000030
C0000030
C0000030
C0000030
C0000030
C0000030
C0000030
C0000030
C0000030
C0000030
40000030
40000020
60000020
60000060
20000040
300000C0
18000180
0C000300
06000600
03801C00
00FFF800
001F8000
ENDCHAR
STARTCHAR 03B5
ENCODING 949
SWIDTH 525 0
DWIDTH 35 0
BBX 26 36 5 -1
BITMAP
000E0000
01FFF000
07001C00
0C000700
18000180
30000080
30000000
20000000
20000000
20000000
20000000
30000000
30000000
10000000
18000000
0E000000
03800000
00FFF000
07800000
0C000000
10000000
20000000
60000000
40000000
40000000
C0000000
C0000000
40000000
40000000
40000040
600000C0
30000180
18000300
0E000E00
03F7F800
007F0000
ENDCHAR
STARTCHAR 03B6
ENCODING 950
SWIDTH 420 0
DWIDTH 28 0
BBX 23 60 4 -11
BITMAP
7FFFFE
000006
00000C
000018
000010
000020
000040
0000C0
000180
000300
000200
000400
000C00
001800
003000
006000
004000
008000
018000
030000
060000
040000
080000
180000
100000
300000
200000
600000
400000
C00000
C00000
C00000
800000
800000
800000
800000
C00000
C00000
C00000
400000
600000
300000
180000
0C0000
070000
01C000
007000
001F00
0001F0
000018
000008
000008
000018
000010
000010
000010
000030
000020
000020
000020
ENDCHAR
STARTCHAR 03B7
ENCODING 951
SWIDTH 555 0
DWIDTH 37 0
BBX 29 47 2 -12
BITMAP
FC0FFE00
FE380380
026000C0
02C00060
02800030
03000010
03000018
02000018
02000008
02000008
02000008
02000008
02000008
02000008
02000008
02000008
02000008
02000008
02000008
02000008
02000008
02000008
02000008
02000008
02000008
02000008
02000008
02000008
02000008
02000008
02000008
02000008
02000008
02000008
00000008
00000008
00000008
00000008
00000008
00000008
00000008
00000008
00000008
00000008
00000008
00000008
00000008
ENDCHAR
ENDFONT
